<svg width="25" height="25" viewBox="0 0 25 25" fill="none" xmlns="http://www.w3.org/2000/svg">
<g clip-path="url(#clip0)">
<path d="M7.56968 17.3396L6.57857 17.3879L4.65698 22.9087C4.59575 23.0846 4.73823 23.2644 4.92344 23.245L7.61694 22.9629C7.69219 22.9551 7.76699 22.9811 7.82109 23.034L9.75737 24.9275C9.89048 25.0576 10.1138 25.0052 10.175 24.8293L12.1091 19.2725L11.5388 18.7189L7.56968 17.3396Z" fill="#FF4755"/>
<path d="M12.1092 19.2725L12.5001 18.1497L6.96832 16.2686L6.57867 17.388C8.14947 18.5089 10.0514 19.195 12.1092 19.2725Z" fill="#FC2B3A"/>
<path d="M17.4304 17.3396L18.4215 17.3879L20.3431 22.9087C20.4043 23.0846 20.2618 23.2644 20.0766 23.245L17.3831 22.9629C17.3079 22.9551 17.2331 22.9811 17.179 23.034L15.2427 24.9275C15.1096 25.0576 14.8863 25.0052 14.8251 24.8293L12.891 19.2725L13.4613 18.7189L17.4304 17.3396Z" fill="#FF4755"/>
<path d="M12.8908 19.2725L12.5 18.1497L18.0317 16.2686L18.4214 17.388C16.8506 18.5089 14.9486 19.195 12.8908 19.2725Z" fill="#FC2B3A"/>
<path d="M12.5003 17.5838C3.4255 17.5838 3.42931 8.7689 3.43683 8.61738C3.67506 3.81807 7.64181 0 12.5003 0C17.3588 0 21.3255 3.81807 21.5638 8.61743C21.5713 8.76895 21.5751 17.5838 12.5003 17.5838Z" fill="#FFE27A"/>
<path d="M12.5001 17.2349C7.6416 17.2349 3.675 13.4168 3.43672 8.61743C3.4292 8.76895 3.42529 8.92144 3.42529 9.07481C3.42529 14.0867 7.48823 18.1496 12.5001 18.1496C17.512 18.1496 21.5749 14.0867 21.5749 9.07481C21.5749 8.92139 21.571 8.76895 21.5635 8.61743C21.3252 13.4168 17.3586 17.2349 12.5001 17.2349Z" fill="#F9CF58"/>
<path d="M12.5 15.6311C5.36538 15.6311 5.35581 8.61533 5.36538 8.46406C5.60127 4.72891 8.70537 1.77246 12.5 1.77246C16.2946 1.77246 19.3987 4.72891 19.6346 8.46406C19.6442 8.61528 19.6346 15.6311 12.5 15.6311Z" fill="#FFBA57"/>
<path d="M12.5002 15.3091C8.70558 15.3091 5.60201 12.3525 5.36613 8.61743C5.35656 8.7687 5.35114 8.92114 5.35114 9.07481C5.35114 13.0231 8.55187 16.2238 12.5002 16.2238C16.4485 16.2238 19.6492 13.0231 19.6492 9.07481C19.6492 8.92109 19.6438 8.7687 19.6342 8.61743C19.3983 12.3525 16.2947 15.3091 12.5002 15.3091Z" fill="#FFAC3E"/>
<path d="M12.9078 13.3213C12.4114 13.3213 12.0091 12.919 12.0091 12.4226V11.9473V7.38594C12.0091 7.38594 11.4713 7.92524 10.8279 7.60166C10.3262 7.34937 10.3262 6.7 10.3262 6.7L11.4343 4.82959C11.5961 4.55645 11.8901 4.38892 12.2075 4.38892H12.9078C13.4041 4.38892 13.8065 4.79126 13.8065 5.28765V11.9473V12.4226C13.8065 12.919 13.4041 13.3213 12.9078 13.3213Z" fill="#FFE27A"/>
<path d="M11.8858 6.67966C11.6473 7.08234 11.1401 7.25695 10.7172 7.05651C10.546 6.97541 10.414 6.84939 10.3262 6.70056C10.0767 7.12272 10.2118 7.66584 10.6273 7.92243C11.0558 8.18707 11.6284 8.02907 11.8851 7.59572L12.0094 7.38581V6.7134C12.0094 6.64592 11.9203 6.62155 11.8858 6.67966Z" fill="#F9CF58"/>
<path d="M12.9079 12.846C12.4116 12.846 12.0092 12.4437 12.0092 11.9473V12.8621C12.0092 13.3585 12.4116 13.7608 12.9079 13.7608C13.4043 13.7608 13.8067 13.3585 13.8067 12.8621V11.9473C13.8067 12.4437 13.4043 12.846 12.9079 12.846Z" fill="#F9CF58"/>
</g>
<defs>
<clipPath id="clip0">
<rect width="25" height="25" fill="white"/>
</clipPath>
</defs>
</svg>
