<svg width="25" height="25" viewBox="0 0 25 25" fill="none" xmlns="http://www.w3.org/2000/svg">
<g clip-path="url(#clip0)">
<path d="M11.4244 18.6432L7.67699 17.3941L6.57846 17.3879L4.65692 22.9087C4.59569 23.0845 4.73817 23.2644 4.92338 23.2449L7.61688 22.9629C7.69213 22.955 7.76693 22.9811 7.82103 23.0339L9.75731 24.9275C9.89042 25.0576 10.1138 25.0051 10.1749 24.8293L12.1091 19.2724L11.4244 18.6432Z" fill="#0083FD"/>
<path d="M12.1092 19.2725L12.5 18.1497L6.96826 16.2686L6.57861 17.388C8.14941 18.5089 10.0514 19.195 12.1092 19.2725Z" fill="#0072FC"/>
<path d="M13.5757 18.6432L17.323 17.3941L18.4216 17.3879L20.3432 22.9087C20.4044 23.0846 20.2619 23.2644 20.0767 23.245L17.3832 22.9629C17.3079 22.9551 17.2331 22.9811 17.1791 23.034L15.2428 24.9275C15.1097 25.0577 14.8864 25.0052 14.8252 24.8293L12.8911 19.2725L13.5757 18.6432Z" fill="#0083FD"/>
<path d="M12.8908 19.2725L12.5 18.1497L18.0317 16.2686L18.4214 17.388C16.8506 18.5089 14.9486 19.195 12.8908 19.2725Z" fill="#0072FC"/>
<path d="M12.5002 17.3879C3.43674 17.3879 3.42922 8.76895 3.43674 8.61743C3.67497 3.81807 7.64172 0 12.5002 0C17.3587 0 21.3255 3.81807 21.5637 8.61743C21.5712 8.76895 21.5637 17.3879 12.5002 17.3879Z" fill="#FF9838"/>
<path d="M12.5 17.2348C7.64154 17.2348 3.67494 13.4168 3.43666 8.61743C3.42914 8.76895 3.42523 8.92144 3.42523 9.07481C3.42523 14.0867 7.48817 18.1496 12.5 18.1496C17.5119 18.1496 21.5748 14.0867 21.5748 9.07481C21.5748 8.92144 21.5709 8.76895 21.5634 8.61743C21.3251 13.4168 17.3585 17.2348 12.5 17.2348Z" fill="#FF8709"/>
<path d="M19.6491 9.0748C19.6491 12.136 16.4484 15.7844 12.5001 15.7844C8.55181 15.7844 5.35107 11.9353 5.35107 9.0748C5.35107 8.92114 5.35591 8.76865 5.36548 8.61738C5.60132 4.88223 8.70547 1.92578 12.5001 1.92578C16.2947 1.92578 19.3989 4.88223 19.6347 8.61738C19.6443 8.76865 19.6491 8.92114 19.6491 9.0748Z" fill="#CE7430"/>
<path d="M12.5001 15.309C8.70552 15.309 5.60195 12.3525 5.36606 8.61743C5.35649 8.7687 5.35107 8.92109 5.35107 9.07481C5.35107 13.0231 8.55181 16.2238 12.5001 16.2238C16.4484 16.2238 19.6491 13.0231 19.6491 9.07481C19.6491 8.92109 19.6437 8.7687 19.6341 8.61743C19.3982 12.3525 16.2947 15.309 12.5001 15.309Z" fill="#BC672E"/>
<path d="M12.509 13.3212C10.9693 13.3212 9.98958 12.2599 9.801 11.0006C9.78386 10.886 9.77844 10.6402 9.77844 10.6402C9.90955 10.3061 10.2348 10.0696 10.6154 10.0696C11.1117 10.0696 11.5141 10.472 11.5141 10.9683C11.5141 11.5169 11.9604 11.9632 12.509 11.9632C13.0575 11.9632 13.5039 11.5169 13.5039 10.9683C13.5039 10.8034 13.4635 10.6477 13.3922 10.5106C13.3922 10.5106 13.3247 9.66318 12.5571 9.66318C11.7871 9.66318 11.7355 8.61689 11.7355 8.61689C11.8921 8.35297 12.1799 8.17607 12.509 8.17607C13.0576 8.17607 13.5039 7.72978 13.5039 7.1812C13.5039 6.63261 13.0576 6.18633 12.509 6.18633C11.9604 6.18633 11.5141 6.63261 11.5141 7.1812C11.5141 7.67758 11.1117 8.07993 10.6154 8.07993C10.1191 8.07993 9.71667 7.67758 9.71667 7.1812C9.71667 5.64155 10.9693 4.38892 12.509 4.38892C14.0487 4.38892 15.3013 5.64155 15.3013 7.1812C15.3013 7.91127 15.0198 8.5767 14.5594 9.0748C14.9216 9.46669 15.1731 9.9622 15.2639 10.5113C15.2639 10.5113 15.2667 10.8126 15.2406 10.9661C15.0178 12.2758 14.0487 13.3212 12.509 13.3212Z" fill="#FFAA5C"/>
<path d="M12.5088 9.05874C12.1797 9.05874 11.8927 8.8813 11.7362 8.61743C11.6566 8.75151 11.6101 8.90757 11.6101 9.0748C11.6101 9.57119 12.0125 9.97353 12.5088 9.97353C12.8925 9.97353 13.2255 10.1922 13.3914 10.5111C13.4627 10.374 13.5038 10.2187 13.5038 10.0537C13.5037 9.50503 13.0574 9.05874 12.5088 9.05874Z" fill="#EA9957"/>
<path d="M12.509 12.846C11.1707 12.846 10.0497 11.8994 9.77927 10.6406C9.73938 10.7423 9.71667 10.8526 9.71667 10.9685C9.71667 12.5082 10.9693 13.7609 12.509 13.7609C14.0487 13.7609 15.3013 12.5082 15.3013 10.9685C15.3013 10.8128 15.2878 10.6603 15.2632 10.5115C15.0441 11.834 13.8928 12.846 12.509 12.846Z" fill="#EA9957"/>
</g>
<defs>
<clipPath id="clip0">
<rect width="25" height="25" fill="white"/>
</clipPath>
</defs>
</svg>
