<svg width="20" height="20" viewBox="0 0 20 20" fill="none" xmlns="http://www.w3.org/2000/svg">
<rect width="20" height="20" fill="white"/>
<path d="M10 0C4.48582 0 0 4.48582 0 10C0 15.5142 4.48582 20 10 20C15.5142 20 20 15.5142 20 10C20 4.48582 15.5142 0 10 0ZM14.1667 14.1667H5.83332C5.3725 14.1667 5 13.7934 5 13.3334C5 12.8734 5.3725 12.5 5.83332 12.5H14.1666C14.6275 12.5 15 12.8734 15 13.3334C15 13.7933 14.6275 14.1667 14.1667 14.1667ZM14.1667 10.8333H5.83332C5.3725 10.8333 5 10.46 5 10C5 9.54 5.3725 9.16668 5.83332 9.16668H14.1666C14.6275 9.16668 15 9.54 15 10C15 10.46 14.6275 10.8333 14.1667 10.8333ZM14.1667 7.5H5.83332C5.3725 7.5 5 7.12668 5 6.66668C5 6.20668 5.3725 5.83336 5.83332 5.83336H14.1666C14.6275 5.83336 15 6.20668 15 6.66668C15 7.12668 14.6275 7.5 14.1667 7.5Z" fill="#047734"/>
</svg>
