<?xml version="1.0" encoding="iso-8859-1"?>
<!-- Generator: Adobe Illustrator 19.0.0, SVG Export Plug-In . SVG Version: 6.00 Build 0)  -->
<svg version="1.1" id="Capa_1" width="31.2px" height="31.2px" fill="#5A738E" xmlns="http://www.w3.org/2000/svg" xmlns:xlink="http://www.w3.org/1999/xlink" x="0px" y="0px"
	 viewBox="0 0 512 512" style="enable-background:new 0 0 512 512;" xml:space="preserve">
<g>
	<g>
		<g>
			<path d="M480,313.44l-68.64-68.64c-6.241-6.204-16.319-6.204-22.56,0L304,329.44L203.36,228.8c-6.241-6.204-16.319-6.204-22.56,0
				L32,377.44V48c0-8.837,7.163-16,16-16h288V0H48C21.49,0,0,21.49,0,48v416c0,26.51,21.49,48,48,48h416c26.51,0,48-21.49,48-48V192
				h-32V313.44z"/>
			<path d="M160,128c0,35.346,28.654,64,64,64c35.346,0,64-28.654,64-64c0-35.346-28.654-64-64-64C188.654,64,160,92.654,160,128z
				 M256,128c0,17.673-14.327,32-32,32s-32-14.327-32-32s14.327-32,32-32S256,110.327,256,128z"/>
			<polygon points="448,64 448,0 416,0 416,64 352,64 352,96 416,96 416,160 448,160 448,96 512,96 512,64 			"/>
		</g>
	</g>
</g>
<g>
</g>
<g>
</g>
<g>
</g>
<g>
</g>
<g>
</g>
<g>
</g>
<g>
</g>
<g>
</g>
<g>
</g>
<g>
</g>
<g>
</g>
<g>
</g>
<g>
</g>
<g>
</g>
<g>
</g>
</svg>
