<svg width="402" height="255" viewBox="0 0 402 255" fill="none" xmlns="http://www.w3.org/2000/svg">
	<rect x="0.5" y="0.5" width="401" height="253.632" rx="3.5" fill="#EDEDED" stroke="#5A738E"/>
	<g opacity="0.5" clip-path="url(#clip0)">
		<path d="M224.027 133.22L216.971 126.164C216.329 125.527 215.293 125.527 214.652 126.164L205.935 134.865L195.589 124.52C194.948 123.882 193.912 123.882 193.27 124.52L177.974 139.799V105.934C177.974 105.026 178.71 104.289 179.619 104.289H209.224V101H179.619C176.894 101 174.685 103.209 174.685 105.934V148.697C174.685 151.422 176.894 153.632 179.619 153.632H222.382C225.107 153.632 227.316 151.422 227.316 148.697V120.737H224.027V133.22Z" fill="#5A738E"/>
		<path d="M191.132 114.158C191.132 117.791 194.077 120.737 197.711 120.737C201.344 120.737 204.29 117.791 204.29 114.158C204.29 110.524 201.344 107.579 197.711 107.579C194.077 107.579 191.132 110.524 191.132 114.158ZM201 114.158C201 115.975 199.527 117.447 197.711 117.447C195.894 117.447 194.421 115.975 194.421 114.158C194.421 112.341 195.894 110.868 197.711 110.868C199.527 110.868 201 112.341 201 114.158Z" fill="#5A738E"/>
		<path d="M220.738 107.579V101H217.448V107.579H210.869V110.868H217.448V117.447H220.738V110.868H227.317V107.579H220.738Z" fill="#5A738E"/>
	</g>
	<defs>
		<clipPath id="clip0">
			<rect width="52.6316" height="52.6316" fill="white" transform="translate(174.685 101)"/>
		</clipPath>
	</defs>
</svg>
