<svg width="20" height="20" viewBox="0 0 20 20" fill="none" xmlns="http://www.w3.org/2000/svg">
<g clip-path="url(#clip0_4051_10946)">
<path fill-rule="evenodd" clip-rule="evenodd" d="M3.3335 4.16667C3.11248 4.16667 2.90052 4.25446 2.74424 4.41074C2.58796 4.56702 2.50016 4.77899 2.50016 5V16.6667C2.50016 16.8877 2.58796 17.0996 2.74424 17.2559C2.90052 17.4122 3.11248 17.5 3.3335 17.5H15.0002C15.2212 17.5 15.4331 17.4122 15.5894 17.2559C15.7457 17.0996 15.8335 16.8877 15.8335 16.6667V12.2167C15.8335 11.7564 16.2066 11.3833 16.6668 11.3833C17.1271 11.3833 17.5002 11.7564 17.5002 12.2167V16.6667C17.5002 17.3297 17.2368 17.9656 16.7679 18.4344C16.2991 18.9033 15.6632 19.1667 15.0002 19.1667H3.3335C2.67045 19.1667 2.03457 18.9033 1.56573 18.4344C1.09689 17.9656 0.833496 17.3297 0.833496 16.6667V5C0.833496 4.33696 1.09689 3.70107 1.56573 3.23223C2.03457 2.76339 2.67045 2.5 3.3335 2.5H7.7835C8.24373 2.5 8.61683 2.8731 8.61683 3.33333C8.61683 3.79357 8.24373 4.16667 7.7835 4.16667H3.3335Z" fill="white"/>
<path fill-rule="evenodd" clip-rule="evenodd" d="M14.4109 1.07739C14.7363 0.751954 15.264 0.751954 15.5894 1.07739L18.9228 4.41072C19.2482 4.73616 19.2482 5.2638 18.9228 5.58924L10.5894 13.9226C10.4331 14.0788 10.2212 14.1666 10.0002 14.1666H6.66683C6.20659 14.1666 5.8335 13.7936 5.8335 13.3333V9.99998C5.8335 9.77897 5.92129 9.56701 6.07757 9.41072L14.4109 1.07739ZM7.50016 10.3452V12.5H9.65498L17.155 4.99998L15.0002 2.84516L7.50016 10.3452Z" fill="white"/>
</g>
<defs>
<clipPath id="clip0_4051_10946">
<rect width="20" height="20" fill="white"/>
</clipPath>
</defs>
</svg>
