<svg width="20" height="20" viewBox="0 0 20 20" fill="none" xmlns="http://www.w3.org/2000/svg">
<path fill-rule="evenodd" clip-rule="evenodd" d="M9.55806 0.808058C9.80214 0.563981 10.1979 0.563981 10.4419 0.808058L13.7232 4.08931C13.9673 4.33339 13.9673 4.72911 13.7232 4.97319C13.4791 5.21727 13.0834 5.21727 12.8393 4.97319L10 2.13388L7.16069 4.97319C6.91661 5.21727 6.52089 5.21727 6.27681 4.97319C6.03273 4.72911 6.03273 4.33339 6.27681 4.08931L9.55806 0.808058Z" fill="white"/>
<path fill-rule="evenodd" clip-rule="evenodd" d="M10 0.625C10.3452 0.625 10.625 0.904822 10.625 1.25V10C10.625 10.3452 10.3452 10.625 10 10.625C9.65482 10.625 9.375 10.3452 9.375 10V1.25C9.375 0.904822 9.65482 0.625 10 0.625Z" fill="white"/>
<path fill-rule="evenodd" clip-rule="evenodd" d="M3.49112 7.24112C3.72554 7.0067 4.04348 6.875 4.375 6.875H6.25C6.59518 6.875 6.875 7.15482 6.875 7.5C6.875 7.84518 6.59518 8.125 6.25 8.125L4.375 8.125L4.375 16.25H15.625V8.125H13.75C13.4048 8.125 13.125 7.84518 13.125 7.5C13.125 7.15482 13.4048 6.875 13.75 6.875H15.625C15.9565 6.875 16.2745 7.0067 16.5089 7.24112C16.7433 7.47554 16.875 7.79348 16.875 8.125V16.25C16.875 16.5815 16.7433 16.8995 16.5089 17.1339C16.2745 17.3683 15.9565 17.5 15.625 17.5H4.375C4.04348 17.5 3.72554 17.3683 3.49112 17.1339C3.2567 16.8995 3.125 16.5815 3.125 16.25V8.125C3.125 7.79348 3.2567 7.47554 3.49112 7.24112Z" fill="white"/>
</svg>
