<svg width="16" height="16" viewBox="0 0 16 16" fill="none" xmlns="http://www.w3.org/2000/svg">
<path fill-rule="evenodd" clip-rule="evenodd" d="M2 8C2 7.72386 2.22386 7.5 2.5 7.5H13.5C13.7761 7.5 14 7.72386 14 8C14 8.27614 13.7761 8.5 13.5 8.5H2.5C2.22386 8.5 2 8.27614 2 8Z" fill="#1D9752"/>
<path fill-rule="evenodd" clip-rule="evenodd" d="M2 4C2 3.72386 2.22386 3.5 2.5 3.5H13.5C13.7761 3.5 14 3.72386 14 4C14 4.27614 13.7761 4.5 13.5 4.5H2.5C2.22386 4.5 2 4.27614 2 4Z" fill="#1D9752"/>
<path fill-rule="evenodd" clip-rule="evenodd" d="M2 12C2 11.7239 2.22386 11.5 2.5 11.5H13.5C13.7761 11.5 14 11.7239 14 12C14 12.2761 13.7761 12.5 13.5 12.5H2.5C2.22386 12.5 2 12.2761 2 12Z" fill="#1D9752"/>
</svg>
