<svg width="20" height="20" viewBox="0 0 20 20" fill="none" xmlns="http://www.w3.org/2000/svg">
<path fill-rule="evenodd" clip-rule="evenodd" d="M13.125 3.125C13.125 2.77982 13.4048 2.5 13.75 2.5H16.875C17.2202 2.5 17.5 2.77982 17.5 3.125V6.25C17.5 6.59518 17.2202 6.875 16.875 6.875C16.5298 6.875 16.25 6.59518 16.25 6.25V3.75H13.75C13.4048 3.75 13.125 3.47018 13.125 3.125Z" fill="white"/>
<path fill-rule="evenodd" clip-rule="evenodd" d="M3.125 13.125C3.47018 13.125 3.75 13.4048 3.75 13.75V16.25H6.25C6.59518 16.25 6.875 16.5298 6.875 16.875C6.875 17.2202 6.59518 17.5 6.25 17.5H3.125C2.77982 17.5 2.5 17.2202 2.5 16.875V13.75C2.5 13.4048 2.77982 13.125 3.125 13.125Z" fill="white"/>
<path fill-rule="evenodd" clip-rule="evenodd" d="M16.875 13.125C17.2202 13.125 17.5 13.4048 17.5 13.75V16.875C17.5 17.2202 17.2202 17.5 16.875 17.5H13.75C13.4048 17.5 13.125 17.2202 13.125 16.875C13.125 16.5298 13.4048 16.25 13.75 16.25H16.25V13.75C16.25 13.4048 16.5298 13.125 16.875 13.125Z" fill="white"/>
<path fill-rule="evenodd" clip-rule="evenodd" d="M2.5 3.125C2.5 2.77982 2.77982 2.5 3.125 2.5H6.25C6.59518 2.5 6.875 2.77982 6.875 3.125C6.875 3.47018 6.59518 3.75 6.25 3.75H3.75V6.25C3.75 6.59518 3.47018 6.875 3.125 6.875C2.77982 6.875 2.5 6.59518 2.5 6.25V3.125Z" fill="white"/>
<path fill-rule="evenodd" clip-rule="evenodd" d="M5.625 6.875C5.625 6.18464 6.18464 5.625 6.875 5.625H13.125C13.8154 5.625 14.375 6.18464 14.375 6.875V13.125C14.375 13.8154 13.8154 14.375 13.125 14.375H6.875C6.18464 14.375 5.625 13.8154 5.625 13.125V6.875ZM13.125 6.875H6.875V13.125H13.125V6.875Z" fill="white"/>
</svg>
