<svg width="20" height="20" viewBox="0 0 20 20" fill="none" xmlns="http://www.w3.org/2000/svg">
<path fill-rule="evenodd" clip-rule="evenodd" d="M2.49984 11.6667C2.96007 11.6667 3.33317 12.0398 3.33317 12.5V15.8334C3.33317 16.0544 3.42097 16.2663 3.57725 16.4226C3.73353 16.5789 3.94549 16.6667 4.1665 16.6667H15.8332C16.0542 16.6667 16.2661 16.5789 16.4224 16.4226C16.5787 16.2663 16.6665 16.0544 16.6665 15.8334V12.5C16.6665 12.0398 17.0396 11.6667 17.4998 11.6667C17.9601 11.6667 18.3332 12.0398 18.3332 12.5V15.8334C18.3332 16.4964 18.0698 17.1323 17.6009 17.6011C17.1321 18.07 16.4962 18.3334 15.8332 18.3334H4.1665C3.50346 18.3334 2.86758 18.07 2.39874 17.6011C1.9299 17.1323 1.6665 16.4964 1.6665 15.8334V12.5C1.6665 12.0398 2.0396 11.6667 2.49984 11.6667Z" fill="white"/>
<path fill-rule="evenodd" clip-rule="evenodd" d="M9.41074 1.91076C9.73618 1.58533 10.2638 1.58533 10.5893 1.91076L14.7559 6.07743C15.0814 6.40287 15.0814 6.93051 14.7559 7.25594C14.4305 7.58138 13.9028 7.58138 13.5774 7.25594L10 3.67853L6.42259 7.25594C6.09715 7.58138 5.56951 7.58138 5.24408 7.25594C4.91864 6.93051 4.91864 6.40287 5.24408 6.07743L9.41074 1.91076Z" fill="white"/>
<path fill-rule="evenodd" clip-rule="evenodd" d="M9.99984 1.66669C10.4601 1.66669 10.8332 2.03978 10.8332 2.50002V12.5C10.8332 12.9603 10.4601 13.3334 9.99984 13.3334C9.5396 13.3334 9.1665 12.9603 9.1665 12.5V2.50002C9.1665 2.03978 9.5396 1.66669 9.99984 1.66669Z" fill="white"/>
</svg>
