<svg width="49" height="50" viewBox="0 0 49 50" fill="none" xmlns="http://www.w3.org/2000/svg">
	<g clip-path="url(#clip0)">
		<path d="M24.2188 0.78125C10.8398 0.78125 0 11.6211 0 25C0 38.3789 10.8398 49.2188 24.2188 49.2188C37.5977 49.2188 48.4375 38.3789 48.4375 25C48.4375 11.6211 37.5977 0.78125 24.2188 0.78125ZM24.2188 10.1562C28.9648 10.1562 32.8125 14.0039 32.8125 18.75C32.8125 23.4961 28.9648 27.3438 24.2188 27.3438C19.4727 27.3438 15.625 23.4961 15.625 18.75C15.625 14.0039 19.4727 10.1562 24.2188 10.1562ZM24.2188 43.75C18.4863 43.75 13.3496 41.1523 9.91211 37.0898C11.748 33.6328 15.3418 31.25 19.5312 31.25C19.7656 31.25 20 31.2891 20.2246 31.3574C21.4941 31.7676 22.8223 32.0312 24.2188 32.0312C25.6152 32.0312 26.9531 31.7676 28.2129 31.3574C28.4375 31.2891 28.6719 31.25 28.9062 31.25C33.0957 31.25 36.6895 33.6328 38.5254 37.0898C35.0879 41.1523 29.9512 43.75 24.2188 43.75Z" fill="#5A738E"/>
	</g>
	<defs>
		<clipPath id="clip0">
			<rect width="48.4375" height="50" fill="white"/>
		</clipPath>
	</defs>
</svg>
