<svg width="31.2px" height="31.2px" viewBox="0 0 32 32" fill="none" xmlns="http://www.w3.org/2000/svg">
<path d="M3.00039 31.5999C3.00039 31.5999 0.400391 31.5999 0.400391 28.9999C0.400391 26.3999 3.00039 18.5999 16.0004 18.5999C29.0004 18.5999 31.6004 26.3999 31.6004 28.9999C31.6004 31.5999 29.0004 31.5999 29.0004 31.5999H3.00039ZM23.8004 8.1999C23.8004 10.2686 22.9786 12.2526 21.5158 13.7153C20.053 15.1781 18.0691 15.9999 16.0004 15.9999C13.9317 15.9999 11.9477 15.1781 10.485 13.7153C9.02217 12.2526 8.20039 10.2686 8.20039 8.1999C8.20039 6.13121 9.02217 4.14725 10.485 2.68447C11.9477 1.22169 13.9317 0.399902 16.0004 0.399902C18.0691 0.399902 20.053 1.22169 21.5158 2.68447C22.9786 4.14725 23.8004 6.13121 23.8004 8.1999Z" fill="#F2F2F2"/>
</svg>
