<svg width="23" height="21" viewBox="0 0 23 21" fill="none" xmlns="http://www.w3.org/2000/svg">
<path d="M18.8245 1.1217C18.738 0.985152 18.5877 0.902344 18.4261 0.902344H11.1657H3.90517C3.74353 0.902344 3.59327 0.985152 3.50684 1.1217L0.0730892 6.54661C-0.0336115 6.71525 -0.0226567 6.93279 0.100519 7.08978L10.7947 20.7218C10.9835 20.9625 11.3479 20.9625 11.5366 20.7218L22.2309 7.08978C22.3541 6.93279 22.365 6.71525 22.2583 6.54661L18.8245 1.1217Z" fill="#10C4C4"/>
<path d="M3.50699 1.1217L3.44833 1.21442L0.0732427 6.54661C0.0189003 6.63253 -0.00456177 6.73103 0.00139001 6.8279H22.3302C22.3363 6.73112 22.3128 6.63253 22.2584 6.54661L18.8833 1.21442L18.8246 1.1217C18.7382 0.985152 18.5879 0.902344 18.4263 0.902344H11.1658H3.90533C3.74377 0.902344 3.59342 0.985152 3.50699 1.1217Z" fill="#21D8DE"/>
<path d="M11.1366 0.902344L7.36212 6.82756H11.1657H14.9111L11.1366 0.902344Z" fill="#25F2F2"/>
<path d="M14.9113 6.82777L22.3303 6.82811C22.3332 6.7805 22.3289 6.73254 22.3174 6.68579C22.3171 6.68492 22.3171 6.68406 22.317 6.68328C22.3117 6.66232 22.3044 6.64188 22.2962 6.62161C22.2951 6.61885 22.2945 6.61592 22.2933 6.61316C22.2835 6.59047 22.2719 6.5683 22.2584 6.54691L21.5628 5.4479L19.3264 1.9147L18.8247 1.12191C18.8137 1.10457 18.8017 1.08818 18.7888 1.07266C18.7873 1.07093 18.7856 1.06947 18.7841 1.06774C18.7724 1.05403 18.7601 1.04083 18.747 1.02875C18.7468 1.02849 18.7464 1.02823 18.7462 1.02798C18.7169 1.00106 18.6846 0.977946 18.6498 0.959229L14.9113 6.82777Z" fill="#25F2F2"/>
<path d="M22.3306 6.82771C22.3306 6.82771 22.3306 6.82763 22.3306 6.82771C22.3335 6.7801 22.3292 6.73205 22.3178 6.68539C22.3178 6.6853 22.3178 6.6853 22.3178 6.68521C22.3176 6.68444 22.3175 6.68358 22.3173 6.6828C22.3121 6.66184 22.3047 6.6414 22.2965 6.62113C22.2954 6.61837 22.2948 6.61543 22.2937 6.61267C22.2839 6.58999 22.2724 6.56782 22.2588 6.54643L21.6307 5.55403L20.863 4.34116L19.3269 1.91422L18.8251 1.12142C18.8141 1.10408 18.8021 1.0877 18.7892 1.07217C18.788 1.0707 18.7867 1.06949 18.7854 1.06811C18.7852 1.06777 18.7848 1.06751 18.7845 1.06708C18.7727 1.05345 18.7606 1.04025 18.7475 1.02818C18.7474 1.02809 18.7472 1.028 18.7471 1.02792C18.7469 1.02766 18.7466 1.02749 18.7463 1.02731C18.7172 1.00049 18.6848 0.977372 18.6502 0.95874L16.8548 3.77712L18.5134 6.39746C18.5963 6.52848 18.6072 6.68875 18.5506 6.82745L22.3306 6.82771Z" fill="#21D8DE"/>
<path d="M3.6822 0.959229C3.61198 0.997009 3.55135 1.05239 3.50735 1.12191L2.3013 3.02734L0.0736089 6.54682C0.0192665 6.63274 -0.00419556 6.73124 0.00175622 6.82811L7.42069 6.82777L3.6822 0.959229Z" fill="#25F2F2"/>
<path d="M7.42064 6.83008H0.00170898C0.00740199 6.92341 0.040525 7.01519 0.100992 7.0923L10.7952 20.7244C10.8717 20.8219 10.9772 20.8792 11.0881 20.8977L7.42064 6.83008Z" fill="#21D8DE"/>
<path d="M22.2309 7.09019C22.2461 7.07087 22.2595 7.05051 22.2713 7.02955C22.2814 7.01144 22.2898 6.99255 22.2973 6.97348C22.2984 6.97064 22.3 6.96796 22.3012 6.96512C22.3176 6.92112 22.3273 6.87515 22.3302 6.82874C22.3302 6.82857 22.3303 6.8284 22.3303 6.82823L14.8823 6.82788L11.2433 20.8957C11.2952 20.8871 11.3457 20.8697 11.3927 20.844C11.3971 20.8417 11.4015 20.8394 11.4057 20.8369C11.4134 20.8324 11.4208 20.8274 11.4282 20.8224C11.4349 20.8179 11.4416 20.8133 11.4481 20.8085C11.4542 20.8039 11.4602 20.7992 11.4662 20.7943C11.4741 20.7877 11.4819 20.7807 11.4894 20.7734C11.4938 20.7692 11.4984 20.7652 11.5026 20.7608C11.5145 20.7487 11.526 20.736 11.5368 20.7222L18.3157 12.081L22.2309 7.09019Z" fill="#21D8DE"/>
<path d="M22.2309 7.09002C22.2461 7.0707 22.2594 7.05034 22.2713 7.02938C22.2813 7.01144 22.2895 6.9928 22.297 6.97391C22.2973 6.97305 22.2977 6.97228 22.2981 6.97141C22.2991 6.96926 22.3002 6.96719 22.3011 6.96494C22.3175 6.92104 22.3272 6.87515 22.3301 6.82883C22.3301 6.82857 22.3302 6.82831 22.3302 6.82805L18.5501 6.82788C18.5339 6.86773 18.5128 6.90603 18.4854 6.94105L13.0658 13.8495L11.2432 20.8955C11.2951 20.8869 11.3455 20.8695 11.3926 20.8438C11.3956 20.8422 11.3987 20.8405 11.4017 20.8389C11.403 20.8381 11.4043 20.8375 11.4056 20.8368C11.4132 20.8323 11.4206 20.8273 11.428 20.8224C11.4347 20.8178 11.4414 20.8133 11.448 20.8084C11.454 20.8038 11.4601 20.7991 11.4659 20.7942C11.469 20.7917 11.4717 20.7889 11.4747 20.7864C11.4796 20.782 11.4845 20.7778 11.4893 20.7732C11.4937 20.7691 11.4983 20.7651 11.5025 20.7607C11.5143 20.7485 11.5259 20.7358 11.5366 20.722L18.3155 12.0808L22.2309 7.09002Z" fill="#10C4C4"/>
<path d="M16.8543 3.7774L18.649 0.960223C18.6158 0.942368 18.5812 0.927014 18.5445 0.917439C18.5063 0.907519 18.4666 0.902344 18.4262 0.902344H15.0234C15.0438 0.923994 15.0629 0.947112 15.0792 0.97273L16.8543 3.7774Z" fill="#10C4C4"/>
<path d="M10.8508 20.7807C10.8311 20.7629 10.8122 20.7439 10.7952 20.7222C10.8122 20.7439 10.8311 20.763 10.8508 20.7807Z" fill="#0BB2AD"/>
<path d="M10.914 20.8281C10.8987 20.8185 10.8839 20.8079 10.8694 20.7964C10.8839 20.8079 10.8987 20.8186 10.914 20.8281Z" fill="#0BB2AD"/>
<path d="M10.9878 20.8658C10.9708 20.8589 10.9539 20.8516 10.9376 20.8425C10.9539 20.8515 10.9707 20.8591 10.9878 20.8658Z" fill="#0BB2AD"/>
<path d="M11.0643 20.8891C11.0586 20.8879 11.0531 20.8863 11.0474 20.8848C11.053 20.8862 11.0586 20.8879 11.0643 20.8891Z" fill="#0BB2AD"/>
<path d="M9.23474 18.7332L9.30262 18.8198L9.23474 18.7332Z" fill="#0BB2AD"/>
<path d="M10.2025 17.4996L11.0871 20.8927C11.139 20.9009 11.1921 20.9015 11.2441 20.8926L13.0659 13.8496L10.2025 17.4996Z" fill="#0BB2AD"/>
<path d="M11.0879 20.8954L11.0872 20.8927C11.0795 20.8915 11.0716 20.8908 11.0638 20.8892C11.072 20.891 11.0797 20.894 11.0879 20.8954Z" fill="#21D8DE"/>
<path d="M11.0473 20.8846C11.0272 20.8796 11.0074 20.8732 10.9879 20.8655C11.0073 20.8734 11.0272 20.8795 11.0473 20.8846Z" fill="#21D8DE"/>
<path d="M9.30292 18.8198L10.7953 20.7221L10.7954 20.7223L10.7953 20.7221L9.30292 18.8198Z" fill="#21D8DE"/>
<path d="M10.8703 20.7967C10.8638 20.7915 10.8574 20.7864 10.8511 20.7808C10.8574 20.7864 10.8638 20.7914 10.8703 20.7967Z" fill="#21D8DE"/>
<path d="M10.9376 20.8421C10.9297 20.8378 10.9222 20.8327 10.9146 20.8279C10.9222 20.8327 10.9297 20.8377 10.9376 20.8421Z" fill="#21D8DE"/>
<path d="M9.23474 18.7333L9.30263 18.8199L10.7949 20.7222C10.795 20.7223 10.7951 20.7223 10.7951 20.7224C10.8121 20.7442 10.831 20.7632 10.8507 20.7809C10.8568 20.7864 10.8632 20.7914 10.8696 20.7966C10.8839 20.8083 10.8988 20.8187 10.9142 20.8283C10.9219 20.8332 10.9294 20.8383 10.9372 20.8426C10.9535 20.8516 10.9704 20.8589 10.9875 20.8659C11.007 20.8735 11.0268 20.88 11.0469 20.885C11.0525 20.8865 11.058 20.8881 11.0636 20.8893C11.0713 20.891 11.0792 20.8917 11.087 20.8929L10.2024 17.4998L9.23474 18.7333Z" fill="#10C4C4"/>
</svg>
