<svg width="140" height="140" viewBox="0 0 140 140" fill="none" xmlns="http://www.w3.org/2000/svg">
<path d="M35.9458 48.9243C35.6974 48.9286 35.4505 48.884 35.2193 48.793C34.9881 48.7019 34.7771 48.5662 34.5983 48.3936C34.2373 48.045 34.0296 47.5673 34.0208 47.0655C34.012 46.5638 34.2029 46.0791 34.5515 45.7181C34.9001 45.357 35.3778 45.1493 35.8796 45.1405C45.1626 45.0368 54.4255 44.2527 63.5939 42.7946C63.7568 42.7606 63.9236 42.7491 64.0896 42.7605C66.3876 42.882 68.6172 43.5851 70.5693 44.8038C70.8916 45.0379 71.1318 45.3679 71.2556 45.7467C71.3794 46.1254 71.3804 46.5335 71.2586 46.9129C71.1367 47.2922 70.8982 47.6234 70.5771 47.8592C70.2559 48.0951 69.8685 48.2235 69.4701 48.2262C69.0245 48.2261 68.5925 48.0732 68.2461 47.7929C66.9707 47.062 65.5422 46.6389 64.0744 46.5575C54.7833 48.0173 45.3994 48.8083 35.995 48.9243H35.9458Z" fill="#BDBDBD"/>
<path d="M105.152 93.9324C103.537 93.9345 101.964 93.4244 100.658 92.4757L100.252 92.1938C100.199 92.1578 100.11 92.0859 100.026 92.0046L77.757 75.967C77.5491 75.8251 77.3716 75.6431 77.2349 75.4318C77.0982 75.2204 77.0051 74.9838 76.961 74.736C76.9168 74.4882 76.9226 74.2341 76.978 73.9885C77.0333 73.7429 77.1371 73.5109 77.2832 73.3059C77.4294 73.101 77.615 72.9273 77.8291 72.7949C78.0433 72.6626 78.2817 72.5744 78.5304 72.5354C78.779 72.4964 79.033 72.5074 79.2774 72.5677C79.5218 72.6281 79.7516 72.7367 79.9535 72.887L81.467 73.9654L102.306 88.9927C102.369 89.0374 102.428 89.086 102.484 89.1384L102.845 89.39C103.666 89.9782 104.681 90.2289 105.681 90.0906C106.681 89.9522 107.59 89.4353 108.22 88.6465C108.607 88.1586 108.87 87.5848 108.989 86.9737C109.107 86.3626 109.076 85.732 108.899 85.1351C108.687 84.3832 108.248 83.7153 107.641 83.2224L77.8554 58.9551C66.4492 65.0092 58.3689 61.8951 54.5114 59.43C53.8739 59.0151 53.3563 58.4403 53.0102 57.7629C52.6641 57.0855 52.5016 56.3293 52.5389 55.5696C52.5763 54.8098 52.8121 54.0732 53.2229 53.433C53.6337 52.7928 54.2052 52.2715 54.8803 51.9211L71.93 42.8665C73.0183 42.2972 74.2084 41.9489 75.4319 41.8417C76.6554 41.7346 77.888 41.8707 79.0586 42.2422L89.1443 45.5151C92.1136 46.4917 95.3341 46.3757 98.2254 45.1878L102.618 43.3886C102.848 43.2944 103.095 43.2463 103.343 43.2472C103.592 43.2481 103.838 43.2979 104.067 43.3938C104.296 43.4897 104.504 43.6299 104.679 43.8062C104.854 43.9826 104.993 44.1917 105.087 44.4216C105.182 44.6516 105.23 44.8978 105.229 45.1463C105.228 45.3948 105.178 45.6408 105.082 45.87C104.986 46.0993 104.846 46.3074 104.67 46.4825C104.493 46.6576 104.284 46.7962 104.054 46.8905L99.6651 48.6878C95.9421 50.2203 91.7937 50.3707 87.9695 49.1116L77.8932 45.8405C77.2031 45.6237 76.4769 45.5455 75.7564 45.6105C75.0359 45.6754 74.3354 45.8822 73.6951 46.2189L56.6416 55.2754C56.5467 55.3201 56.466 55.3903 56.4086 55.4782C56.3511 55.566 56.3192 55.668 56.3162 55.773C56.3084 55.8679 56.3268 55.9631 56.3696 56.0482C56.4123 56.1333 56.4776 56.205 56.5584 56.2554C60.5314 58.7943 67.3516 60.6559 77.1157 55.0465C77.4478 54.8557 77.8299 54.7702 78.2116 54.8013C78.5934 54.8323 78.9567 54.9785 79.2535 55.2205L110.016 80.2881C111.222 81.2613 112.099 82.5824 112.528 84.0719C112.868 85.2442 112.925 86.4804 112.695 87.679C112.465 88.8777 111.954 90.0047 111.204 90.9678C110.489 91.8925 109.572 92.6407 108.523 93.1547C107.474 93.6687 106.32 93.9348 105.152 93.9324Z" fill="#BDBDBD"/>
<path d="M97.3225 102.701C95.7192 102.703 94.1553 102.205 92.8481 101.277L72.3968 86.7659C71.9972 86.472 71.729 86.0328 71.6501 85.543C71.5712 85.0532 71.6878 84.552 71.9748 84.1474C72.2618 83.7427 72.6963 83.467 73.1847 83.3797C73.6731 83.2923 74.1762 83.4002 74.5857 83.6803L95.0371 98.1892C95.8951 98.7496 96.9365 98.9568 97.9438 98.7674C98.951 98.5781 99.846 98.0068 100.442 97.173C101.038 96.3392 101.289 95.3074 101.142 94.2931C100.995 93.2788 100.461 92.3606 99.6533 91.7303L79.27 77.0397C78.8943 76.7358 78.6492 76.2996 78.5849 75.8207C78.5205 75.3418 78.6419 74.8564 78.9241 74.4641C79.2062 74.0718 79.6278 73.8024 80.1024 73.711C80.5769 73.6197 81.0684 73.7134 81.476 73.973L101.865 88.6654C103.192 89.6262 104.181 90.9827 104.69 92.5402C105.198 94.0977 105.201 95.7763 104.696 97.3352C104.192 98.8942 103.207 100.253 101.883 101.218C100.559 102.183 98.9628 102.703 97.3244 102.705L97.3225 102.701Z" fill="#BDBDBD"/>
<path d="M88.4934 110.282C86.9706 110.282 85.4844 109.815 84.2348 108.945L65.908 96.25C65.4953 95.9642 65.2131 95.5262 65.1233 95.0324C65.0335 94.5385 65.1436 94.0292 65.4294 93.6165C65.7151 93.2038 66.1531 92.9215 66.647 92.8317C67.1409 92.742 67.6502 92.8521 68.0629 93.1378L86.3896 105.832C86.7921 106.111 87.2454 106.307 87.7238 106.41C88.2021 106.513 88.6961 106.521 89.1775 106.433C89.6589 106.346 90.1183 106.164 90.5294 105.898C90.9405 105.633 91.2953 105.289 91.5734 104.886C92.1271 104.079 92.3421 103.087 92.1723 102.123C92.0025 101.159 91.4615 100.3 90.6653 99.7311L72.4275 86.7943C72.2201 86.6525 72.0431 86.4709 71.9067 86.2599C71.7703 86.049 71.6772 85.813 71.633 85.5658C71.5888 85.3185 71.5942 85.0649 71.649 84.8198C71.7039 84.5746 71.8069 84.3428 71.9523 84.138C72.0976 83.9331 72.2823 83.7592 72.4955 83.6265C72.7088 83.4937 72.9463 83.4048 73.1943 83.3648C73.4423 83.3248 73.6958 83.3347 73.94 83.3937C74.1841 83.4527 74.4141 83.5598 74.6164 83.7086L92.8542 96.6454C94.4596 97.7927 95.5509 99.5238 95.8936 101.467C96.2364 103.41 95.8034 105.41 94.6875 107.038C94.1299 107.851 93.4167 108.545 92.5889 109.081C91.7611 109.617 90.8353 109.983 89.8651 110.159C89.4125 110.242 88.9534 110.283 88.4934 110.282Z" fill="#BDBDBD"/>
<path d="M77.6831 116.503C76.3595 116.496 75.0607 116.143 73.9164 115.477L63.7437 109.612C63.3127 109.36 62.9991 108.947 62.8714 108.464C62.7437 107.981 62.8123 107.467 63.0621 107.034C63.3119 106.602 63.7227 106.285 64.2048 106.155C64.6869 106.024 65.2013 106.089 65.6356 106.336L75.8064 112.201C76.6662 112.686 77.6817 112.816 78.6361 112.563C79.5905 112.31 80.4081 111.694 80.9145 110.846C81.3955 110.033 81.5485 109.068 81.3421 108.146C81.1357 107.225 80.5856 106.417 79.8039 105.887L66.8066 96.8838C66.6024 96.7423 66.4281 96.562 66.2935 96.3531C66.159 96.1442 66.0669 95.9109 66.0226 95.6664C65.9782 95.422 65.9824 95.1712 66.035 94.9283C66.0876 94.6855 66.1875 94.4554 66.3289 94.2512C66.4704 94.047 66.6508 93.8726 66.8596 93.7381C67.0685 93.6036 67.3018 93.5115 67.5463 93.4671C67.7908 93.4228 68.0415 93.427 68.2844 93.4796C68.5272 93.5321 68.7573 93.632 68.9615 93.7735L81.9569 102.775C83.2762 103.688 84.2693 104.999 84.7918 106.516C85.3143 108.033 85.3387 109.678 84.8616 111.209C84.3844 112.741 83.4306 114.081 82.1391 115.033C80.8475 115.985 79.2858 116.5 77.6812 116.503H77.6831Z" fill="#BDBDBD"/>
<path d="M56.261 115.373C54.7133 115.376 53.2016 114.906 51.928 114.026C50.6544 113.147 49.6794 111.9 49.1332 110.451C48.5871 109.003 48.4958 107.423 48.8716 105.921C49.2473 104.42 50.0723 103.069 51.2362 102.049L56.2894 97.6216C57.0403 96.9623 57.9138 96.4574 58.8598 96.1357C59.8059 95.814 60.806 95.6818 61.8032 95.7467C62.8003 95.8115 63.775 96.0721 64.6714 96.5135C65.5678 96.955 66.3685 97.5688 67.0278 98.3197C67.6869 99.0708 68.1917 99.9443 68.5132 100.89C68.8348 101.837 68.9668 102.837 68.9018 103.834C68.8368 104.831 68.5761 105.806 68.1344 106.702C67.6927 107.598 67.0789 108.399 66.3278 109.058L61.2746 113.495C59.8876 114.71 58.1051 115.378 56.261 115.373ZM61.3067 99.5135C60.3789 99.5111 59.4822 99.8474 58.7848 100.459L53.7297 104.892C53.352 105.223 53.0434 105.626 52.8213 106.076C52.5991 106.527 52.468 107.017 52.4352 107.518C52.4024 108.02 52.4687 108.522 52.6303 108.998C52.7919 109.474 53.0455 109.913 53.3768 110.291C54.0459 111.053 54.9906 111.519 56.003 111.585C56.5043 111.618 57.0072 111.552 57.4828 111.39C57.9585 111.228 58.3977 110.975 58.7754 110.643L63.8286 106.207C64.4115 105.694 64.8244 105.015 65.0122 104.262C65.2001 103.508 65.1541 102.716 64.8803 101.989C64.6065 101.262 64.1179 100.636 63.4795 100.194C62.8412 99.7517 62.0833 99.5144 61.3067 99.5135Z" fill="#BDBDBD"/>
<path d="M44.8075 110.22C44.6391 110.22 44.4707 110.22 44.3023 110.205C43.3046 110.142 42.3291 109.883 41.4322 109.441C40.5353 108.999 39.7348 108.384 39.0769 107.632C38.4087 106.88 37.8953 106.005 37.5664 105.055C37.2374 104.105 37.0993 103.099 37.1599 102.096C37.2205 101.092 37.4788 100.11 37.9197 99.2069C38.3607 98.3035 38.9758 97.496 39.7296 96.8308L48.1713 89.4202C48.9222 88.761 49.7956 88.2561 50.7417 87.9344C51.6877 87.6127 52.6879 87.4805 53.685 87.5453C54.6822 87.6101 55.6568 87.8707 56.5532 88.3122C57.4497 88.7537 58.2504 89.3674 58.9096 90.1183L57.5418 91.4294L58.9626 90.1808C59.6221 90.9316 60.1272 91.805 60.449 92.7511C60.7709 93.6972 60.9032 94.6974 60.8383 95.6946C60.7735 96.6918 60.5128 97.6665 60.0712 98.563C59.6296 99.4594 59.0157 100.26 58.2645 100.919L49.8153 108.33C48.4329 109.55 46.6516 110.223 44.8075 110.22ZM53.1791 91.3121C52.2524 91.3096 51.3568 91.6461 50.661 92.2581L42.2194 99.6686C41.6542 100.179 41.2516 100.844 41.0616 101.581C40.8716 102.319 40.9026 103.096 41.1509 103.816C41.3991 104.535 41.8535 105.166 42.4576 105.63C43.0617 106.094 43.7887 106.369 44.5483 106.423C45.05 106.457 45.5534 106.391 46.0293 106.229C46.5052 106.066 46.944 105.811 47.3199 105.477L55.7615 98.0662C56.1392 97.7348 56.448 97.3323 56.6701 96.8815C56.8922 96.4308 57.0233 95.9408 57.056 95.4394C57.0887 94.938 57.0223 94.435 56.8605 93.9593C56.6988 93.4835 56.4449 93.0443 56.1134 92.6667L56.0586 92.6043C55.7284 92.2281 55.3271 91.9209 54.8777 91.7004C54.4283 91.48 53.9398 91.3506 53.4402 91.3197C53.3513 91.3159 53.2623 91.314 53.1772 91.314L53.1791 91.3121Z" fill="#BDBDBD"/>
<path d="M35.2612 103.275C35.0947 103.275 34.9264 103.275 34.7561 103.259C33.7583 103.197 32.7828 102.937 31.8859 102.496C30.9891 102.054 30.1886 101.439 29.5307 100.686L29.3245 100.441C27.9947 98.9237 27.3216 96.9409 27.4532 94.9279C27.5849 92.915 28.5104 91.0367 30.0264 89.7059L39.8131 81.1149C40.5639 80.4554 41.4373 79.9503 42.3834 79.6284C43.3295 79.3066 44.3297 79.1743 45.327 79.2391C46.3242 79.304 47.2988 79.5646 48.1953 80.0063C49.0917 80.4479 49.8924 81.0618 50.5515 81.813L50.7653 82.057C52.0956 83.5737 52.7689 85.5566 52.6373 87.5697C52.5057 89.5827 51.5798 91.4611 50.0634 92.7916L40.2766 101.383C38.8924 102.605 37.1081 103.278 35.2612 103.275ZM44.821 83.0086C43.8943 83.0063 42.9988 83.3427 42.3029 83.9546L32.5161 92.5457C31.7528 93.2153 31.2866 94.1608 31.2203 95.174C31.154 96.1873 31.4928 97.1854 32.1623 97.9489L32.3761 98.193C33.0461 98.9543 33.9908 99.4185 35.0029 99.4838C36.0149 99.549 37.0114 99.21 37.7737 98.5411L47.5604 89.95C47.9381 89.6186 48.2469 89.2161 48.469 88.7654C48.6911 88.3146 48.8222 87.8246 48.8549 87.3232C48.8876 86.8218 48.8212 86.3188 48.6594 85.8431C48.4977 85.3673 48.2438 84.9281 47.9123 84.5505L47.7023 84.3103C47.3719 83.9324 46.9699 83.6239 46.5195 83.4024C46.0691 83.1809 45.5792 83.051 45.0783 83.02C44.9893 83.0124 44.9061 83.0086 44.821 83.0086Z" fill="#BDBDBD"/>
<path d="M27.0373 94.8538C26.8708 94.8538 26.7005 94.8538 26.5321 94.8368C25.0209 94.7416 23.5718 94.2004 22.368 93.2818C21.1642 92.3632 20.2597 91.1083 19.7689 89.6758C19.2781 88.2433 19.223 86.6974 19.6105 85.2336C19.9981 83.7698 20.8109 82.4537 21.9462 81.4517L28.074 76.073C28.8249 75.4135 29.6983 74.9084 30.6443 74.5866C31.5904 74.2648 32.5906 74.1325 33.5879 74.1973C34.5851 74.2621 35.5598 74.5228 36.4562 74.9644C37.3527 75.4061 38.1533 76.02 38.8124 76.7711L38.8786 76.8468C39.5381 77.5976 40.0432 78.471 40.3651 79.4171C40.6869 80.3632 40.8192 81.3634 40.7544 82.3606C40.6895 83.3579 40.4289 84.3325 39.9872 85.229C39.5456 86.1254 38.9317 86.9261 38.1805 87.5852L32.0527 92.9638C30.6683 94.186 28.884 94.8584 27.0373 94.8538ZM33.0913 77.9649C32.1647 77.9626 31.2691 78.299 30.5732 78.9109L24.4454 84.2895C24.0677 84.6209 23.7589 85.0234 23.5368 85.4742C23.3147 85.9249 23.1836 86.4149 23.1509 86.9163C23.1182 87.4178 23.1846 87.9207 23.3464 88.3964C23.5081 88.8722 23.762 89.3114 24.0935 89.689C24.4224 90.0785 24.8253 90.3988 25.2789 90.6315C25.7326 90.8641 26.2278 91.0043 26.7361 91.0441C27.2443 91.0839 27.7554 91.0224 28.2397 90.8631C28.7239 90.7039 29.1718 90.4501 29.5573 90.1165L35.6851 84.7379C36.0628 84.4065 36.3716 84.004 36.5937 83.5533C36.8158 83.1025 36.9469 82.6125 36.9796 82.1111C37.0123 81.6096 36.9459 81.1067 36.7841 80.631C36.6224 80.1552 36.3685 79.716 36.037 79.3384L35.9708 79.2628C35.6403 78.8844 35.2381 78.5753 34.7873 78.3535C34.3366 78.1317 33.8463 78.0016 33.3448 77.9706C33.2521 77.9687 33.167 77.9649 33.0819 77.9649H33.0913Z" fill="#BDBDBD"/>
<path d="M23.6051 84.4011C23.1956 84.4019 22.7971 84.2691 22.47 84.0227L16.0054 79.1038C15.8076 78.9534 15.6414 78.7655 15.5163 78.5508C15.3911 78.3361 15.3095 78.0989 15.276 77.8527C15.2426 77.6065 15.2579 77.3561 15.3212 77.1158C15.3845 76.8756 15.4945 76.6501 15.645 76.4523C15.9488 76.0529 16.3988 75.7906 16.8961 75.723C17.1423 75.6895 17.3927 75.7049 17.633 75.7682C17.8732 75.8315 18.0987 75.9415 18.2965 76.0919L24.7611 81.0108C25.0795 81.2497 25.3145 81.5828 25.4326 81.963C25.5508 82.3431 25.546 82.7508 25.419 83.128C25.292 83.5053 25.0492 83.8329 24.7252 84.0641C24.4013 84.2954 24.0126 84.4186 23.6146 84.4162L23.6051 84.4011Z" fill="#BDBDBD"/>
<path d="M110.712 86.4973C110.338 86.4972 109.972 86.3862 109.661 86.1783C109.35 85.9704 109.107 85.675 108.964 85.3293C108.821 84.9837 108.784 84.6033 108.857 84.2364C108.93 83.8695 109.11 83.5324 109.374 83.2678L119.99 72.6486C120.346 72.304 120.824 72.1133 121.32 72.1176C121.816 72.1219 122.291 72.3209 122.642 72.6717C122.993 73.0224 123.191 73.497 123.196 73.993C123.2 74.4891 123.009 74.9669 122.665 75.3238L112.049 85.9392C111.874 86.1155 111.666 86.2556 111.436 86.3514C111.207 86.4472 110.96 86.4967 110.712 86.4973Z" fill="#BDBDBD"/>
<path d="M125.187 82.5716C124.863 82.572 124.545 82.4894 124.262 82.3318C123.98 82.1741 123.743 81.9466 123.573 81.671L100.473 44.0981C100.229 43.7006 100.14 43.227 100.224 42.7682C100.308 42.3094 100.558 41.8977 100.927 41.6121L123.806 23.8927C124.057 23.6982 124.353 23.57 124.667 23.5201C124.98 23.4701 125.302 23.5 125.601 23.6068C125.9 23.7137 126.167 23.8942 126.378 24.1316C126.589 24.369 126.737 24.6558 126.808 24.9654L138.059 74.0543C138.153 74.4538 138.114 74.8727 137.948 75.2481C137.783 75.6235 137.5 75.9349 137.142 76.1354L126.11 82.3351C125.828 82.4919 125.51 82.5733 125.187 82.5716ZM104.586 43.5608L125.843 78.1351L134.056 73.5189L123.783 28.6962L104.586 43.5608Z" fill="#BDBDBD"/>
<path d="M14.8136 83.2432C14.4896 83.2431 14.171 83.1597 13.8885 83.0011L2.85686 76.8108C2.49897 76.6103 2.21595 76.2989 2.05045 75.9235C1.88494 75.5482 1.84593 75.1292 1.93929 74.7297L13.1923 25.6465C13.2633 25.3369 13.4111 25.0501 13.6222 24.8127C13.8332 24.5753 14.1006 24.3948 14.3997 24.2879C14.6989 24.1811 15.0201 24.1512 15.3338 24.2012C15.6475 24.2511 15.9436 24.3793 16.1947 24.5738L39.0752 42.2914C39.444 42.5769 39.6944 42.9886 39.7782 43.4474C39.862 43.9062 39.7734 44.3798 39.5293 44.7773L16.4274 82.3503C16.2569 82.6244 16.0192 82.8504 15.7367 83.0067C15.4542 83.163 15.1365 83.2445 14.8136 83.2432ZM5.94443 74.2038L14.1571 78.8181L35.4144 44.2419L16.2174 29.3773L5.94443 74.2038Z" fill="#BDBDBD"/>
</svg>
