<svg width="22" height="22" viewBox="0 0 22 22" fill="none" xmlns="http://www.w3.org/2000/svg">
<path d="M11.3793 6.4483H10.6207V15.5518H11.3793V6.4483Z" fill="#454546"/>
<path d="M19.7242 15.5517H18.9655V11.3793H3.0345V15.5517H2.27588V10.6207H19.7242V15.5517Z" fill="#454546"/>
<path d="M5.31034 15.5518H0V20.8621H5.31034V15.5518Z" fill="#4FBE87"/>
<path d="M22 15.5518H16.6897V20.8621H22V15.5518Z" fill="#0E9549"/>
<path d="M13.6552 15.5518H8.34485V20.8621H13.6552V15.5518Z" fill="#2AA266"/>
<path d="M11 6.44829C9.53361 6.44829 8.34485 5.25953 8.34485 3.79311C8.34485 2.3267 9.53361 1.13794 11 1.13794C12.4664 1.13794 13.6552 2.3267 13.6552 3.79311C13.6552 5.25953 12.4664 6.44829 11 6.44829Z" fill="#F0C419"/>
</svg>
