<svg width="25" height="25" viewBox="0 0 25 25" fill="none" xmlns="http://www.w3.org/2000/svg">
<g clip-path="url(#clip0)">
<path d="M7.56968 17.3395L6.57857 17.3878L4.65698 22.9086C4.59575 23.0844 4.73823 23.2643 4.92344 23.2448L7.61694 22.9628C7.69219 22.9549 7.76699 22.981 7.82109 23.0338L9.75737 24.9273C9.89048 25.0575 10.1138 25.005 10.175 24.8292L12.1091 19.2723L11.5388 18.7188L7.56968 17.3395Z" fill="#FF4755"/>
<path d="M12.1092 19.2725L12.5001 18.1497L6.96832 16.2686L6.57867 17.388C8.14947 18.5089 10.0514 19.195 12.1092 19.2725Z" fill="#FC2B3A"/>
<path d="M17.4304 17.3395L18.4215 17.3878L20.3431 22.9086C20.4043 23.0844 20.2618 23.2643 20.0766 23.2448L17.3831 22.9628C17.3079 22.9549 17.2331 22.981 17.179 23.0338L15.2427 24.9273C15.1096 25.0575 14.8863 25.005 14.8251 24.8292L12.891 19.2723L13.4613 18.7188L17.4304 17.3395Z" fill="#FF4755"/>
<path d="M12.8908 19.2725L12.5 18.1497L18.0317 16.2686L18.4214 17.388C16.8506 18.5089 14.9486 19.195 12.8908 19.2725Z" fill="#FC2B3A"/>
<path d="M12.5003 17.5838C3.4255 17.5838 3.42931 8.7689 3.43683 8.61738C3.67506 3.81807 7.64181 0 12.5003 0C17.3588 0 21.3255 3.81807 21.5638 8.61743C21.5713 8.76895 21.5751 17.5838 12.5003 17.5838Z" fill="#FFE27A"/>
<path d="M12.5001 17.235C7.6416 17.235 3.675 13.4169 3.43672 8.61755C3.4292 8.76907 3.42529 8.92156 3.42529 9.07493C3.42529 14.0868 7.48823 18.1497 12.5001 18.1497C17.512 18.1497 21.5749 14.0868 21.5749 9.07493C21.5749 8.92151 21.571 8.76907 21.5635 8.61755C21.3252 13.4169 17.3586 17.235 12.5001 17.235Z" fill="#F9CF58"/>
<path d="M12.5 15.6312C5.36538 15.6312 5.35581 8.61545 5.36538 8.46418C5.60127 4.72903 8.70537 1.77258 12.5 1.77258C16.2946 1.77258 19.3987 4.72903 19.6346 8.46418C19.6442 8.6154 19.6346 15.6312 12.5 15.6312Z" fill="#FFBA57"/>
<path d="M12.5002 15.3092C8.70558 15.3092 5.60201 12.3527 5.36613 8.61755C5.35656 8.76882 5.35114 8.92127 5.35114 9.07493C5.35114 13.0232 8.55187 16.224 12.5002 16.224C16.4485 16.224 19.6492 13.0232 19.6492 9.07493C19.6492 8.92122 19.6438 8.76882 19.6342 8.61755C19.3983 12.3527 16.2947 15.3092 12.5002 15.3092Z" fill="#FFAC3E"/>
<path d="M12.9078 13.3212C12.4114 13.3212 12.0091 12.9189 12.0091 12.4225V11.9471V7.38582C12.0091 7.38582 11.4713 7.92512 10.8279 7.60154C10.3262 7.34924 10.3262 6.69988 10.3262 6.69988L11.4343 4.82947C11.5961 4.55632 11.8901 4.38879 12.2075 4.38879H12.9078C13.4041 4.38879 13.8065 4.79114 13.8065 5.28752V11.9471V12.4225C13.8065 12.9189 13.4041 13.3212 12.9078 13.3212Z" fill="#FFE27A"/>
<path d="M11.8858 6.67966C11.6473 7.08234 11.1401 7.25695 10.7172 7.05651C10.546 6.97541 10.414 6.84939 10.3262 6.70056C10.0767 7.12272 10.2118 7.66584 10.6273 7.92243C11.0558 8.18707 11.6284 8.02907 11.8851 7.59572L12.0094 7.38581V6.7134C12.0094 6.64592 11.9203 6.62155 11.8858 6.67966Z" fill="#F9CF58"/>
<path d="M12.9079 12.846C12.4116 12.846 12.0092 12.4437 12.0092 11.9473V12.8621C12.0092 13.3585 12.4116 13.7608 12.9079 13.7608C13.4043 13.7608 13.8067 13.3585 13.8067 12.8621V11.9473C13.8067 12.4437 13.4043 12.846 12.9079 12.846Z" fill="#F9CF58"/>
</g>
<defs>
<clipPath id="clip0">
<rect width="25" height="25" fill="white"/>
</clipPath>
</defs>
</svg>
