<svg width="25" height="25" viewBox="0 0 25 25" fill="none" xmlns="http://www.w3.org/2000/svg">
<g clip-path="url(#clip0)">
<path d="M11.4974 18.6909L7.46757 17.2972L6.57846 17.3878L4.65692 22.9086C4.59569 23.0845 4.73817 23.2643 4.92338 23.2449L7.61688 22.9628C7.69213 22.955 7.76693 22.981 7.82103 23.0339L9.75731 24.9274C9.89042 25.0576 10.1138 25.0051 10.1749 24.8292L12.1091 19.2723L11.4974 18.6909Z" fill="#98DB7C"/>
<path d="M12.1092 19.2723L12.5 18.1495L6.96826 16.2683L6.57861 17.3878C8.14941 18.5086 10.0514 19.1948 12.1092 19.2723Z" fill="#82D361"/>
<path d="M13.5027 18.6909L17.5325 17.2972L18.4216 17.3878L20.3432 22.9086C20.4043 23.0845 20.2619 23.2643 20.0767 23.2449L17.3832 22.9628C17.3079 22.955 17.2331 22.981 17.1791 23.0339L15.2428 24.9274C15.1097 25.0576 14.8864 25.0051 14.8252 24.8292L12.8911 19.2723L13.5027 18.6909Z" fill="#98DB7C"/>
<path d="M12.8908 19.2723L12.5 18.1495L18.0317 16.2683L18.4214 17.3878C16.8506 18.5086 14.9486 19.1948 12.8908 19.2723Z" fill="#82D361"/>
<path d="M12.5 17.5507C3.43649 17.5507 3.42897 8.76894 3.43649 8.61743C3.67473 3.81807 7.64147 0 12.5 0C17.3552 0 21.3199 3.81299 21.563 8.60781C21.5708 8.7625 21.563 17.5507 12.5 17.5507Z" fill="#E0E0E0"/>
<path d="M12.5 17.2349C7.64154 17.2349 3.67494 13.4168 3.43666 8.61743C3.42914 8.76895 3.42523 8.92144 3.42523 9.07481C3.42523 14.0867 7.48817 18.1496 12.5 18.1496C17.5119 18.1496 21.5748 14.0867 21.5748 9.07481C21.5748 8.92139 21.5709 8.76895 21.5634 8.61743C21.3251 13.4168 17.3585 17.2349 12.5 17.2349Z" fill="#CECECE"/>
<path d="M12.5001 15.6558C5.35108 15.6558 5.35592 8.76865 5.36549 8.61738C5.60138 4.88223 8.70548 1.92578 12.5001 1.92578C16.2947 1.92578 19.3988 4.88223 19.6347 8.61738C19.6443 8.76865 19.6347 15.6558 12.5001 15.6558Z" fill="#9E9E9E"/>
<path d="M12.5001 15.3092C8.70552 15.3092 5.60195 12.3526 5.36606 8.61755C5.35649 8.76882 5.35107 8.92127 5.35107 9.07493C5.35107 13.0232 8.55181 16.224 12.5001 16.224C16.4484 16.224 19.6491 13.0232 19.6491 9.07493C19.6491 8.92122 19.6437 8.76882 19.6341 8.61755C19.3982 12.3526 16.2947 15.3092 12.5001 15.3092Z" fill="#898989"/>
<path d="M14.558 13.3212H10.4603C9.96395 13.3212 9.5807 12.4572 9.61806 12.2597C9.72172 11.7114 9.96571 11.1947 10.33 10.7641L13.2133 7.35647C13.483 7.03762 13.3627 6.69407 13.3193 6.59631C13.2666 6.47751 13.1028 6.19973 12.7212 6.18684C12.7101 6.18645 12.6987 6.18625 12.6872 6.18625C12.1511 6.18625 11.715 6.62239 11.715 7.15847C11.715 7.65481 11.3126 8.0572 10.8163 8.0572C10.32 8.0572 9.91757 7.65486 9.91757 7.15847C9.91757 5.63132 11.16 4.38879 12.6872 4.38879C12.7188 4.38879 12.7502 4.38933 12.7815 4.39041C13.7371 4.42263 14.5726 4.98874 14.9624 5.8677C15.358 6.75979 15.2136 7.77512 14.5854 8.51751L11.7022 11.9251C11.6916 11.9377 11.6812 11.9504 11.671 11.9633H14.5581C14.8872 11.9633 15.175 12.1402 15.3316 12.4041C15.4111 12.5382 15.0544 13.3212 14.558 13.3212Z" fill="#E0E0E0"/>
<path d="M14.558 12.8459H10.4603C10.074 12.8459 9.74565 12.6018 9.61855 12.2599C9.5812 12.4574 9.56152 12.6589 9.56152 12.862C9.56152 13.3584 9.96392 13.7607 10.4603 13.7607H14.558C15.0543 13.7607 15.4567 13.3584 15.4567 12.862C15.4567 12.6948 15.4102 12.5387 15.3307 12.4046C15.1741 12.6685 14.8871 12.8459 14.558 12.8459Z" fill="#CECECE"/>
</g>
<defs>
<clipPath id="clip0">
<rect width="25" height="25" fill="white"/>
</clipPath>
</defs>
</svg>
