<svg width="20" height="21" viewBox="0 0 20 21" fill="none" xmlns="http://www.w3.org/2000/svg">
<g clip-path="url(#clip0)">
<path d="M19.6667 0.416626H0.333374V2.41663H19.6667V0.416626Z" fill="#556080"/>
<path d="M19 2.41663H1V16.4166H19V2.41663Z" fill="#ECF0F1"/>
<path d="M4.66667 10.1576C3.74767 10.1576 3 9.40994 3 8.49094C3 8.30661 3.149 8.15761 3.33333 8.15761C3.51767 8.15761 3.66667 8.30661 3.66667 8.49094C3.66667 9.04227 4.11533 9.49094 4.66667 9.49094C4.96167 9.49094 5.24 9.36161 5.43033 9.13661C5.516 9.03527 5.555 8.90461 5.541 8.76827C5.52567 8.62194 5.45033 8.48561 5.33367 8.39527L3.59033 7.03927C3.33133 6.83761 3.16333 6.53461 3.12933 6.20861C3.09633 5.88994 3.19033 5.58194 3.394 5.34094C3.71133 4.96527 4.17533 4.74994 4.66667 4.74994C5.58567 4.74994 6.33333 5.49761 6.33333 6.41661C6.33333 6.60094 6.18433 6.74994 6 6.74994C5.81567 6.74994 5.66667 6.60094 5.66667 6.41661C5.66667 5.86527 5.218 5.41661 4.66667 5.41661C4.37167 5.41661 4.09333 5.54594 3.903 5.77094C3.81733 5.87227 3.77833 6.00261 3.79233 6.13894C3.80767 6.28527 3.883 6.42161 3.99967 6.51227L5.743 7.86827C6.00167 8.06961 6.16967 8.37227 6.204 8.69794C6.23733 9.01694 6.143 9.32527 5.93933 9.56594C5.622 9.94227 5.158 10.1576 4.66667 10.1576Z" fill="#24AE5F"/>
<path d="M4.66671 5.41665C4.48237 5.41665 4.33337 5.26765 4.33337 5.08332V4.49099C4.33337 4.30665 4.48237 4.15765 4.66671 4.15765C4.85104 4.15765 5.00004 4.30665 5.00004 4.49099V5.08332C5.00004 5.26765 4.85104 5.41665 4.66671 5.41665Z" fill="#24AE5F"/>
<path d="M4.66671 10.75C4.48237 10.75 4.33337 10.601 4.33337 10.4166V9.8243C4.33337 9.63997 4.48237 9.49097 4.66671 9.49097C4.85104 9.49097 5.00004 9.63997 5.00004 9.8243V10.4166C5.00004 10.601 4.85104 10.75 4.66671 10.75Z" fill="#24AE5F"/>
<path d="M17 5.4166H14.3333C14.149 5.4166 14 5.26761 14 5.08327C14 4.89894 14.149 4.74994 14.3333 4.74994H17C17.1843 4.74994 17.3333 4.89894 17.3333 5.08327C17.3333 5.26761 17.1843 5.4166 17 5.4166Z" fill="#E57E25"/>
<path d="M17 7.41661H12C11.8156 7.41661 11.6666 7.26761 11.6666 7.08327C11.6666 6.89894 11.8156 6.74994 12 6.74994H17C17.1843 6.74994 17.3333 6.89894 17.3333 7.08327C17.3333 7.26761 17.1843 7.41661 17 7.41661Z" fill="#F0C419"/>
<path d="M17 9.41661H13C12.8156 9.41661 12.6666 9.26761 12.6666 9.08327C12.6666 8.89894 12.8156 8.74994 13 8.74994H17C17.1843 8.74994 17.3333 8.89894 17.3333 9.08327C17.3333 9.26761 17.1843 9.41661 17 9.41661Z" fill="#F3D55B"/>
<path d="M17 11.4167H15.3333C15.149 11.4167 15 11.2677 15 11.0833C15 10.899 15.149 10.75 15.3333 10.75H17C17.1843 10.75 17.3333 10.899 17.3333 11.0833C17.3333 11.2677 17.1843 11.4167 17 11.4167Z" fill="#E64C3C"/>
<path d="M17 13.7499H14.3333C14.149 13.7499 14 13.6009 14 13.4166C14 13.2323 14.149 13.0833 14.3333 13.0833H17C17.1843 13.0833 17.3333 13.2323 17.3333 13.4166C17.3333 13.6009 17.1843 13.7499 17 13.7499Z" fill="#C03A2B"/>
<path d="M6 14.4166H3.33333C3.149 14.4166 3 14.2676 3 14.0833C3 13.8989 3.149 13.7499 3.33333 13.7499H6C6.18433 13.7499 6.33333 13.8989 6.33333 14.0833C6.33333 14.2676 6.18433 14.4166 6 14.4166Z" fill="#D1D4D1"/>
<path d="M7.66671 14.4166C7.58004 14.4166 7.49304 14.38 7.43004 14.32C7.36971 14.2566 7.33337 14.1733 7.33337 14.0833C7.33337 13.9966 7.36971 13.9097 7.43004 13.8467C7.55337 13.7233 7.78004 13.7233 7.90337 13.8467C7.96337 13.9097 8.00004 13.9966 8.00004 14.0833C8.00004 14.17 7.96337 14.2566 7.90337 14.32C7.84004 14.38 7.75337 14.4166 7.66671 14.4166Z" fill="#D1D4D1"/>
<path d="M7.66671 12.75H6.66671C6.48237 12.75 6.33337 12.601 6.33337 12.4166C6.33337 12.2323 6.48237 12.0833 6.66671 12.0833H7.66671C7.85104 12.0833 8.00004 12.2323 8.00004 12.4166C8.00004 12.601 7.85104 12.75 7.66671 12.75Z" fill="#D1D4D1"/>
<path d="M4 12.75H3.33333C3.149 12.75 3 12.601 3 12.4166C3 12.2323 3.149 12.0833 3.33333 12.0833H4C4.18433 12.0833 4.33333 12.2323 4.33333 12.4166C4.33333 12.601 4.18433 12.75 4 12.75Z" fill="#D1D4D1"/>
<path d="M5.33333 12.75C5.24667 12.75 5.15967 12.7163 5.09667 12.6533C5.03633 12.59 5 12.5033 5 12.4166C5 12.3263 5.03633 12.243 5.09667 12.18C5.22333 12.0566 5.44667 12.0566 5.57 12.18C5.63 12.243 5.66667 12.33 5.66667 12.4166C5.66667 12.5033 5.63 12.59 5.57 12.6533C5.50667 12.7133 5.42 12.75 5.33333 12.75Z" fill="#D1D4D1"/>
<path d="M17 14.7499C16.8156 14.7499 16.6666 14.6009 16.6666 14.4166V4.08327C16.6666 3.89894 16.8156 3.74994 17 3.74994C17.1843 3.74994 17.3333 3.89894 17.3333 4.08327V14.4166C17.3333 14.6009 17.1843 14.7499 17 14.7499Z" fill="#D1D4D1"/>
<path d="M19.6667 16.75H0.333333C0.149 16.75 0 16.601 0 16.4166C0 16.2323 0.149 16.0833 0.333333 16.0833H19.6667C19.851 16.0833 20 16.2323 20 16.4166C20 16.601 19.851 16.75 19.6667 16.75Z" fill="#556080"/>
<path d="M9.99996 17.75C9.81563 17.75 9.66663 17.601 9.66663 17.4166V16.4166C9.66663 16.2323 9.81563 16.0833 9.99996 16.0833C10.1843 16.0833 10.3333 16.2323 10.3333 16.4166V17.4166C10.3333 17.601 10.1843 17.75 9.99996 17.75Z" fill="#556080"/>
<path d="M9.99996 20.0833C9.26463 20.0833 8.66663 19.4853 8.66663 18.75C8.66663 18.0146 9.26463 17.4166 9.99996 17.4166C10.7353 17.4166 11.3333 18.0146 11.3333 18.75C11.3333 19.4853 10.7353 20.0833 9.99996 20.0833ZM9.99996 18.0833C9.63229 18.0833 9.33329 18.3823 9.33329 18.75C9.33329 19.1176 9.63229 19.4166 9.99996 19.4166C10.3676 19.4166 10.6666 19.1176 10.6666 18.75C10.6666 18.3823 10.3676 18.0833 9.99996 18.0833Z" fill="#556080"/>
</g>
<defs>
<clipPath id="clip0">
<rect width="20" height="20" fill="white" transform="translate(0 0.25)"/>
</clipPath>
</defs>
</svg>
