<svg width="25" height="25" viewBox="0 0 25 25" fill="none" xmlns="http://www.w3.org/2000/svg">
<g clip-path="url(#clip0)">
<path d="M11.4244 18.6432L7.67699 17.3941L6.57846 17.3879L4.65692 22.9087C4.59569 23.0845 4.73817 23.2644 4.92338 23.2449L7.61688 22.9629C7.69213 22.955 7.76693 22.9811 7.82103 23.0339L9.75731 24.9275C9.89042 25.0576 10.1138 25.0051 10.1749 24.8293L12.1091 19.2724L11.4244 18.6432Z" fill="#0083FD"/>
<path d="M12.1092 19.2724L12.5 18.1496L6.96826 16.2684L6.57861 17.3879C8.14941 18.5088 10.0514 19.1949 12.1092 19.2724Z" fill="#0072FC"/>
<path d="M13.5757 18.6432L17.323 17.3941L18.4216 17.3879L20.3432 22.9087C20.4044 23.0846 20.2619 23.2644 20.0767 23.245L17.3832 22.9629C17.3079 22.9551 17.2331 22.9811 17.1791 23.034L15.2428 24.9275C15.1097 25.0577 14.8864 25.0052 14.8252 24.8293L12.8911 19.2725L13.5757 18.6432Z" fill="#0083FD"/>
<path d="M12.8908 19.2724L12.5 18.1496L18.0317 16.2684L18.4214 17.3879C16.8506 18.5088 14.9486 19.1949 12.8908 19.2724Z" fill="#0072FC"/>
<path d="M12.5002 17.3879C3.43674 17.3879 3.42922 8.76895 3.43674 8.61743C3.67497 3.81807 7.64172 0 12.5002 0C17.3587 0 21.3255 3.81807 21.5637 8.61743C21.5712 8.76895 21.5637 17.3879 12.5002 17.3879Z" fill="#FF9838"/>
<path d="M12.5 17.2347C7.64154 17.2347 3.67494 13.4166 3.43666 8.61731C3.42914 8.76882 3.42523 8.92131 3.42523 9.07468C3.42523 14.0866 7.48817 18.1495 12.5 18.1495C17.5119 18.1495 21.5748 14.0866 21.5748 9.07468C21.5748 8.92131 21.5709 8.76882 21.5634 8.61731C21.3251 13.4166 17.3585 17.2347 12.5 17.2347Z" fill="#FF8709"/>
<path d="M19.6491 9.0748C19.6491 12.136 16.4484 15.7844 12.5001 15.7844C8.55181 15.7844 5.35107 11.9353 5.35107 9.0748C5.35107 8.92114 5.35591 8.76865 5.36548 8.61738C5.60132 4.88223 8.70547 1.92578 12.5001 1.92578C16.2947 1.92578 19.3989 4.88223 19.6347 8.61738C19.6443 8.76865 19.6491 8.92114 19.6491 9.0748Z" fill="#CE7430"/>
<path d="M12.5001 15.3089C8.70552 15.3089 5.60195 12.3524 5.36606 8.61731C5.35649 8.76858 5.35107 8.92097 5.35107 9.07468C5.35107 13.023 8.55181 16.2237 12.5001 16.2237C16.4484 16.2237 19.6491 13.023 19.6491 9.07468C19.6491 8.92097 19.6437 8.76858 19.6341 8.61731C19.3982 12.3524 16.2947 15.3089 12.5001 15.3089Z" fill="#BC672E"/>
<path d="M12.509 13.3213C10.9693 13.3213 9.98958 12.26 9.801 11.0007C9.78386 10.8861 9.77844 10.6403 9.77844 10.6403C9.90955 10.3063 10.2348 10.0697 10.6154 10.0697C11.1117 10.0697 11.5141 10.4721 11.5141 10.9685C11.5141 11.5171 11.9604 11.9633 12.509 11.9633C13.0575 11.9633 13.5039 11.5171 13.5039 10.9685C13.5039 10.8035 13.4635 10.6479 13.3922 10.5108C13.3922 10.5108 13.3247 9.6633 12.5571 9.6633C11.7871 9.6633 11.7355 8.61701 11.7355 8.61701C11.8921 8.35309 12.1799 8.17619 12.509 8.17619C13.0576 8.17619 13.5039 7.7299 13.5039 7.18132C13.5039 6.63274 13.0576 6.18645 12.509 6.18645C11.9604 6.18645 11.5141 6.63274 11.5141 7.18132C11.5141 7.67771 11.1117 8.08005 10.6154 8.08005C10.1191 8.08005 9.71667 7.67771 9.71667 7.18132C9.71667 5.64167 10.9693 4.38904 12.509 4.38904C14.0487 4.38904 15.3013 5.64167 15.3013 7.18132C15.3013 7.9114 15.0198 8.57682 14.5594 9.07492C14.9216 9.46681 15.1731 9.96232 15.2639 10.5114C15.2639 10.5114 15.2667 10.8128 15.2406 10.9662C15.0178 12.2759 14.0487 13.3213 12.509 13.3213Z" fill="#FFAA5C"/>
<path d="M12.5088 9.05862C12.1797 9.05862 11.8927 8.88118 11.7362 8.61731C11.6566 8.75139 11.6101 8.90745 11.6101 9.07468C11.6101 9.57107 12.0125 9.97341 12.5088 9.97341C12.8925 9.97341 13.2255 10.1921 13.3914 10.511C13.4627 10.3739 13.5038 10.2185 13.5038 10.0536C13.5037 9.50491 13.0574 9.05862 12.5088 9.05862Z" fill="#EA9957"/>
<path d="M12.509 12.8458C11.1707 12.8458 10.0497 11.8991 9.77927 10.6404C9.73938 10.742 9.71667 10.8524 9.71667 10.9683C9.71667 12.508 10.9693 13.7606 12.509 13.7606C14.0487 13.7606 15.3013 12.508 15.3013 10.9683C15.3013 10.8126 15.2878 10.6601 15.2632 10.5112C15.0441 11.8338 13.8928 12.8458 12.509 12.8458Z" fill="#EA9957"/>
</g>
<defs>
<clipPath id="clip0">
<rect width="25" height="25" fill="white"/>
</clipPath>
</defs>
</svg>
