<svg width="20" height="20" viewBox="0 0 20 20" fill="none" xmlns="http://www.w3.org/2000/svg">
<g clip-path="url(#clip0)">
<path d="M11.3224 6.26521C10.8806 6.26521 10.4393 6.09693 10.1031 5.76107C9.96858 5.62624 9.96858 5.40797 10.1031 5.27348C10.2379 5.13866 10.4562 5.13866 10.5906 5.27348C10.9937 5.67659 11.65 5.67659 12.0537 5.27348C12.1886 5.13866 12.4069 5.13866 12.5413 5.27348C12.6762 5.40797 12.6762 5.62624 12.5413 5.76107C12.2055 6.09693 11.7641 6.26521 11.3224 6.26521Z" fill="#4C4031"/>
<path d="M13.46 13.6858V13.6851V12.3062C13.46 12.0141 14.3624 11.5003 15.609 11.3114C15.1745 10.3762 14.5193 9.52997 13.6586 8.86997L11.1593 7.17066C11.0286 7.07066 10.889 6.97859 10.7434 6.89653C10.5521 6.31239 10.4203 5.70997 10.3548 5.09928L10.1762 3.43963C10.1603 3.29273 10.1603 3.1448 10.1779 2.99825C10.2 2.81239 10.2245 2.54584 10.2348 2.51549C10.2566 2.45273 10.2862 2.3817 10.3152 2.31204C10.4572 2.03135 10.629 1.73756 10.8055 1.51963C10.8679 1.44997 10.929 1.37928 11.0021 1.31756C11.4028 0.97825 11.2997 0.340664 10.8014 0.175836C10.53 0.0858363 10.2355 0.0199743 9.93483 0.00376738C9.90621 0.00204324 9.87724 0.00445703 9.84862 0.00376738C9.78 0.00238807 9.71103 -0.000370554 9.64207 0.0041122C9.23862 0.0282501 8.83276 0.155836 8.46345 0.451009C8.33966 0.550319 8.19207 0.599629 8.04414 0.601009C7.89414 0.600664 7.74379 0.550664 7.61828 0.450319C7.15966 0.0841122 6.64483 -0.0245085 6.14759 0.00376738C5.8469 0.0199743 5.55276 0.0858363 5.28138 0.175836C4.7831 0.340664 4.68 0.97825 5.08069 1.31756C5.12276 1.35308 5.16759 1.39894 5.21276 1.44618C5.2269 1.46032 5.24069 1.47446 5.25414 1.48859C5.3131 1.55308 5.3731 1.62549 5.43379 1.70273C5.63552 1.97963 5.77276 2.27756 5.85483 2.51549C5.87793 2.58239 5.90138 2.9517 5.93759 3.15377C5.96069 3.28239 5.97586 3.41135 5.97586 3.54204V4.7448C5.97586 5.44722 5.88793 6.14584 5.72172 6.82687C5.55793 6.90756 5.39931 6.99894 5.25379 7.11308L2.82345 8.88377C0.43276 10.7631 -0.372068 14.0786 1.00345 16.7907C1.5769 17.922 2.37173 18.8931 3.30517 18.9562C3.39138 18.9624 3.47793 18.9655 3.56586 18.9655H10.3569C10.271 18.8224 10.201 18.6541 10.1455 18.4751C10.1814 18.4738 10.2172 18.4741 10.2528 18.4714C12.5021 18.3196 13.9552 16.9207 13.4603 14.9317V13.6858H13.46Z" fill="#C7B6A1"/>
<path d="M16.5634 14.342C14.8493 14.342 13.46 14.0482 13.46 13.6854V15.0651C13.461 15.4275 14.85 15.7213 16.5634 15.7213C18.2769 15.7213 19.6658 15.4275 19.6669 15.0651V13.6854C19.6669 14.0482 18.2779 14.342 16.5634 14.342Z" fill="#D19D18"/>
<path d="M19.6669 12.3062C19.6669 12.669 18.2775 12.9628 16.5634 12.9628C14.8493 12.9628 13.46 12.669 13.46 12.3062C13.46 11.9438 14.8493 11.2386 16.5634 11.2386C18.2779 11.2386 19.6669 11.9438 19.6669 12.3062Z" fill="#FCC62D"/>
<path d="M16.5634 12.9627C14.8493 12.9627 13.46 12.6689 13.46 12.3062V13.6858C13.461 14.0482 14.85 14.342 16.5634 14.342C18.2769 14.342 19.6658 14.0482 19.6669 13.6858V12.3062C19.6669 12.6689 18.2779 12.9627 16.5634 12.9627Z" fill="#E4AF18"/>
<path d="M10.3565 5.86202H5.87376C5.68341 5.86202 5.52893 5.70754 5.52893 5.51719C5.52893 5.32685 5.68341 5.17236 5.87376 5.17236H10.3565C10.5469 5.17236 10.7013 5.32685 10.7013 5.51719C10.7013 5.70719 10.5469 5.86202 10.3565 5.86202Z" fill="#6B5B46"/>
<path d="M10.3565 4.82759H5.87376C5.68341 4.82759 5.52893 4.67311 5.52893 4.48277C5.52893 4.29242 5.68341 4.13794 5.87376 4.13794H10.3565C10.5469 4.13794 10.7013 4.29242 10.7013 4.48277C10.7013 4.67311 10.5469 4.82759 10.3565 4.82759Z" fill="#6B5B46"/>
<path d="M10.3565 3.79305H5.87376C5.68341 3.79305 5.52893 3.63857 5.52893 3.44822C5.52893 3.25788 5.68341 3.10339 5.87376 3.10339H10.3565C10.5469 3.10339 10.7013 3.25788 10.7013 3.44822C10.7013 3.63857 10.5469 3.79305 10.3565 3.79305Z" fill="#6B5B46"/>
<path d="M16.5634 18.4799C15.8693 18.4799 15.2307 18.4313 14.7138 18.3499C14.5555 18.8247 14.2534 19.2323 13.8596 19.5244C14.3917 19.7241 15.4024 19.8592 16.5634 19.8592C18.2769 19.8592 19.6658 19.5654 19.6669 19.203V17.8234C19.6669 18.1861 18.2779 18.4799 16.5634 18.4799Z" fill="#E4AF18"/>
<path d="M16.5634 15.7214C14.8493 15.7214 13.46 15.4276 13.46 15.0648V15.4076C14.0965 15.7107 14.5779 16.2824 14.7589 16.9776C15.2675 17.0548 15.8896 17.1007 16.5634 17.1007C18.2769 17.1007 19.6658 16.8069 19.6669 16.4445V15.0648C19.6669 15.4276 18.2779 15.7214 16.5634 15.7214Z" fill="#E4AF18"/>
<path d="M16.5634 17.1006C15.8896 17.1006 15.2675 17.0548 14.7589 16.9775C14.8096 17.1724 14.8393 17.3755 14.8393 17.5858C14.8393 17.8531 14.7941 18.1096 14.7137 18.35C15.2306 18.4313 15.8693 18.48 16.5634 18.48C18.2768 18.48 19.6658 18.1862 19.6668 17.8237V16.4441C19.6668 16.8069 18.2779 17.1006 16.5634 17.1006Z" fill="#D19D18"/>
<path d="M14.8393 17.5862C14.8393 18.9193 13.7586 19.9999 12.4255 19.9999C11.0924 19.9999 10.0117 18.9193 10.0117 17.5862C10.0117 16.2531 11.0924 15.1724 12.4255 15.1724C13.759 15.1724 14.8393 16.2527 14.8393 17.5862Z" fill="#FCC62D"/>
<path d="M2.77036 14.138C2.58002 14.138 2.42554 13.9835 2.42554 13.7931C2.42554 11.4245 5.04243 8.62073 7.25312 8.62073C7.44347 8.62073 7.59795 8.77521 7.59795 8.96556C7.59795 9.1559 7.44347 9.31038 7.25312 9.31038C5.43554 9.31038 3.11519 11.8242 3.11519 13.7931C3.11519 13.9831 2.96071 14.138 2.77036 14.138Z" fill="#DBCCBA"/>
</g>
<defs>
<clipPath id="clip0">
<rect width="20" height="20" fill="white"/>
</clipPath>
</defs>
</svg>
