<svg width="20" height="20" viewBox="0 0 20 20" fill="none" xmlns="http://www.w3.org/2000/svg">
<path d="M8.07018 4.56141L7.01754 1.75439H0V4.56141V18.2456H16.8421V4.56141H8.07018Z" fill="#F3D55C"/>
<path d="M16.8422 5.96497H20.0001L16.8639 18.1618C16.8604 18.1741 16.8422 18.172 16.8422 18.159V5.96497Z" fill="#F0C41B"/>
<path d="M9.82452 11.579H2.10522V16.1404H9.82452V11.579Z" fill="#F5F1E2"/>
<path d="M6.66661 15.0877H3.50871C3.31468 15.0877 3.15784 14.9309 3.15784 14.7369C3.15784 14.5428 3.31468 14.386 3.50871 14.386H6.66661C6.86064 14.386 7.01749 14.5428 7.01749 14.7369C7.01749 14.9309 6.86064 15.0877 6.66661 15.0877Z" fill="#D6D0BB"/>
<path d="M4.91222 13.3333H3.50871C3.31468 13.3333 3.15784 13.1765 3.15784 12.9825C3.15784 12.7884 3.31468 12.6316 3.50871 12.6316H4.91222C5.10626 12.6316 5.2631 12.7884 5.2631 12.9825C5.2631 13.1765 5.10626 13.3333 4.91222 13.3333Z" fill="#D6D0BB"/>
<path d="M8.42104 13.3333H7.71929C7.52525 13.3333 7.36841 13.1765 7.36841 12.9825C7.36841 12.7884 7.52525 12.6316 7.71929 12.6316H8.42104C8.61507 12.6316 8.77192 12.7884 8.77192 12.9825C8.77192 13.1765 8.61507 13.3333 8.42104 13.3333Z" fill="#D6D0BB"/>
<path d="M8.07012 15.0878C7.97503 15.0878 7.88731 15.0492 7.82099 14.9825C7.75748 14.9193 7.71924 14.8316 7.71924 14.7369C7.71924 14.6418 7.75748 14.5541 7.82099 14.4877C7.95082 14.3579 8.18941 14.3579 8.31924 14.4877C8.3824 14.5541 8.42099 14.6456 8.42099 14.7369C8.42099 14.8281 8.3824 14.9193 8.31924 14.986C8.25257 15.0492 8.16134 15.0878 8.07012 15.0878Z" fill="#D6D0BB"/>
<path d="M6.31584 13.3334C6.22462 13.3334 6.13304 13.2948 6.06672 13.2316C6.00321 13.1649 5.96497 13.0737 5.96497 12.9825C5.96497 12.8912 6.00321 12.7997 6.06672 12.7334C6.19233 12.6035 6.43514 12.6035 6.56497 12.7334C6.62812 12.7997 6.66672 12.8874 6.66672 12.9825C6.66672 13.0737 6.62812 13.1649 6.56497 13.2316C6.4983 13.2948 6.40707 13.3334 6.31584 13.3334Z" fill="#D6D0BB"/>
</svg>
