<svg width="20" height="20" viewBox="0 0 20 20" fill="none" xmlns="http://www.w3.org/2000/svg">
<path d="M18.9655 0.172424H1.03448C0.465517 0.172424 0 0.637942 0 1.20691C0 1.77587 0.465517 2.24139 1.03448 2.24139V1.20691H18.9655V2.24139C19.5345 2.24139 20 1.77587 20 1.20691C20 0.637942 19.5345 0.172424 18.9655 0.172424Z" fill="#3D465B"/>
<path d="M1.72408 17.7586L3.79304 19.8276L5.86201 17.7586L7.93098 19.8276L9.99994 17.7586L12.0689 19.8276L14.1379 17.7586L16.2068 19.8276L18.2758 17.7586L18.9655 18.4483V1.20691H1.03442V18.4483L1.72408 17.7586Z" fill="#F0EDE0"/>
<path d="M14.8275 14.3104H9.65513C9.46479 14.3104 9.3103 14.1562 9.3103 13.9656C9.3103 13.7749 9.46479 13.6207 9.65513 13.6207H14.8275C15.0179 13.6207 15.1724 13.7749 15.1724 13.9656C15.1724 14.1562 15.0179 14.3104 14.8275 14.3104Z" fill="#D4C3A5"/>
<path d="M16.5517 14.3103C16.4621 14.3103 16.3724 14.2724 16.3069 14.2103C16.2448 14.1448 16.2069 14.0552 16.2069 13.9655C16.2069 13.8721 16.2448 13.7859 16.3069 13.7207C16.4379 13.5931 16.6655 13.5931 16.7966 13.7207C16.8586 13.7859 16.8966 13.8721 16.8966 13.9655C16.8966 14.0552 16.8586 14.1448 16.7966 14.2103C16.731 14.2724 16.6414 14.3103 16.5517 14.3103Z" fill="#D4C3A5"/>
<path d="M16.5517 9.48281H11.3793C11.1889 9.48281 11.0344 9.32867 11.0344 9.13798C11.0344 8.94729 11.1889 8.79315 11.3793 8.79315H16.5517C16.742 8.79315 16.8965 8.94729 16.8965 9.13798C16.8965 9.32867 16.742 9.48281 16.5517 9.48281Z" fill="#D4C3A5"/>
<path d="M16.5518 11.8966H13.1035C12.9131 11.8966 12.7587 11.7424 12.7587 11.5517C12.7587 11.361 12.9131 11.2069 13.1035 11.2069H16.5518C16.7421 11.2069 16.8966 11.361 16.8966 11.5517C16.8966 11.7424 16.7421 11.8966 16.5518 11.8966Z" fill="#D4C3A5"/>
<path d="M10.3448 11.8966H9.65513C9.46479 11.8966 9.3103 11.7424 9.3103 11.5517C9.3103 11.361 9.46479 11.2069 9.65513 11.2069H10.3448C10.5351 11.2069 10.6896 11.361 10.6896 11.5517C10.6896 11.7424 10.5351 11.8966 10.3448 11.8966Z" fill="#D4C3A5"/>
<path d="M14.8275 7.06899H9.65513C9.46479 7.06899 9.3103 6.91485 9.3103 6.72416C9.3103 6.53347 9.46479 6.37933 9.65513 6.37933H14.8275C15.0179 6.37933 15.1724 6.53347 15.1724 6.72416C15.1724 6.91485 15.0179 7.06899 14.8275 7.06899Z" fill="#D4C3A5"/>
<path d="M16.5517 7.06895C16.4621 7.06895 16.3724 7.03102 16.3069 6.96895C16.2448 6.90343 16.2069 6.81378 16.2069 6.72412C16.2069 6.63067 16.2448 6.54447 16.3069 6.4793C16.4345 6.35171 16.669 6.35171 16.7966 6.4793C16.8586 6.54447 16.8966 6.63447 16.8966 6.72412C16.8966 6.81378 16.8586 6.90343 16.7966 6.96895C16.731 7.03102 16.6448 7.06895 16.5517 7.06895Z" fill="#D4C3A5"/>
<path d="M9.99998 9.48283C9.91032 9.48283 9.82067 9.4449 9.75515 9.38283C9.69308 9.31731 9.65515 9.23111 9.65515 9.138C9.65515 9.04455 9.69308 8.95835 9.75515 8.89318C9.88619 8.76559 10.1172 8.76559 10.2448 8.89318C10.3069 8.95835 10.3448 9.04455 10.3448 9.138C10.3448 9.23111 10.3069 9.31731 10.2448 9.38283C10.1793 9.4449 10.0896 9.48283 9.99998 9.48283Z" fill="#D4C3A5"/>
<path d="M11.7241 11.8965C11.6344 11.8965 11.5448 11.8586 11.4793 11.7965C11.4172 11.731 11.3793 11.6414 11.3793 11.5517C11.3793 11.462 11.4172 11.372 11.4793 11.3069C11.6103 11.1793 11.8413 11.1793 11.9689 11.3069C12.031 11.3689 12.0689 11.4583 12.0689 11.5517C12.0689 11.6448 12.031 11.731 11.9689 11.7965C11.9034 11.8586 11.8138 11.8965 11.7241 11.8965Z" fill="#D4C3A5"/>
<path d="M6.20686 8.79313C6.20686 8.98382 6.36135 9.13795 6.55169 9.13795C6.74204 9.13795 6.89652 8.98382 6.89652 8.79313C6.89652 7.96071 6.30307 7.26416 5.51721 7.10382V6.72416C5.51721 6.53347 5.36273 6.37933 5.17238 6.37933C4.98204 6.37933 4.82755 6.53347 4.82755 6.72416V7.10485C4.45135 7.1814 4.10859 7.38106 3.85583 7.68002C3.64514 7.92899 3.54755 8.24761 3.58204 8.57761C3.61721 8.9152 3.791 9.2283 4.05893 9.43657L4.82755 10.0345V11.9097C4.42721 11.7669 4.1379 11.3876 4.1379 10.9386C4.1379 10.748 3.98341 10.5938 3.79307 10.5938C3.60272 10.5938 3.44824 10.748 3.44824 10.9386C3.44824 11.7711 4.04169 12.4676 4.82755 12.628V12.9311C4.82755 13.1217 4.98204 13.2759 5.17238 13.2759C5.36273 13.2759 5.51721 13.1217 5.51721 12.9311V12.6269C5.89341 12.5504 6.23617 12.3507 6.48928 12.0517C6.69997 11.8021 6.79721 11.4835 6.76272 11.1535C6.72721 10.8162 6.55376 10.5035 6.28583 10.2955L5.51721 9.69761V7.82244C5.91755 7.96485 6.20686 8.34416 6.20686 8.79313ZM5.86238 10.8397C5.98272 10.9331 6.061 11.0742 6.07686 11.2252C6.09169 11.3666 6.051 11.5021 5.96272 11.6062C5.84273 11.748 5.68755 11.8473 5.51721 11.908V10.5707L5.86238 10.8397ZM4.48238 8.89244C4.36169 8.79864 4.28376 8.65761 4.2679 8.50623C4.25341 8.3652 4.29376 8.23002 4.38204 8.12554C4.50204 7.98382 4.65721 7.88451 4.82755 7.82382V9.16071L4.48238 8.89244Z" fill="#24AE5F"/>
<path d="M2.06895 3.96556C1.97929 3.96556 1.88964 3.92763 1.82412 3.86556C1.76205 3.80004 1.72412 3.71038 1.72412 3.62073C1.72412 3.53107 1.76205 3.44107 1.82412 3.3759C1.95516 3.24832 2.18619 3.24832 2.31378 3.3759C2.37584 3.44107 2.41378 3.53107 2.41378 3.62073C2.41378 3.71038 2.37584 3.80004 2.31378 3.86556C2.24826 3.92763 2.1586 3.96556 2.06895 3.96556Z" fill="#A5A5A4"/>
<path d="M16.2655 3.62071C16.2655 3.43105 16.4172 3.27588 16.6103 3.27588C16.8 3.27588 16.9551 3.43105 16.9551 3.62071C16.9551 3.81036 16.8 3.96553 16.6103 3.96553C16.4172 3.96553 16.2655 3.81036 16.2655 3.62071ZM14.9414 3.62071C14.9414 3.43105 15.0965 3.27588 15.2862 3.27588C15.4793 3.27588 15.631 3.43105 15.631 3.62071C15.631 3.81036 15.4793 3.96553 15.2862 3.96553C15.0965 3.96553 14.9414 3.81036 14.9414 3.62071ZM13.6207 3.62071C13.6207 3.43105 13.7758 3.27588 13.9655 3.27588C14.1551 3.27588 14.3103 3.43105 14.3103 3.62071C14.3103 3.81036 14.1551 3.96553 13.9655 3.96553C13.7758 3.96553 13.6207 3.81036 13.6207 3.62071ZM12.3 3.62071C12.3 3.43105 12.4517 3.27588 12.6448 3.27588C12.8345 3.27588 12.9896 3.43105 12.9896 3.62071C12.9896 3.81036 12.8345 3.96553 12.6448 3.96553C12.4517 3.96553 12.3 3.81036 12.3 3.62071ZM10.9758 3.62071C10.9758 3.43105 11.131 3.27588 11.3207 3.27588C11.5138 3.27588 11.6655 3.43105 11.6655 3.62071C11.6655 3.81036 11.5138 3.96553 11.3207 3.96553C11.131 3.96553 10.9758 3.81036 10.9758 3.62071ZM9.65515 3.62071C9.65515 3.43105 9.81032 3.27588 9.99997 3.27588C10.1896 3.27588 10.3448 3.43105 10.3448 3.62071C10.3448 3.81036 10.1896 3.96553 9.99997 3.96553C9.81032 3.96553 9.65515 3.81036 9.65515 3.62071ZM8.33446 3.62071C8.33446 3.43105 8.48618 3.27588 8.67928 3.27588C8.86894 3.27588 9.02411 3.43105 9.02411 3.62071C9.02411 3.81036 8.86894 3.96553 8.67928 3.96553C8.48618 3.96553 8.33446 3.81036 8.33446 3.62071ZM7.01032 3.62071C7.01032 3.43105 7.16549 3.27588 7.35514 3.27588C7.54825 3.27588 7.69997 3.43105 7.69997 3.62071C7.69997 3.81036 7.54825 3.96553 7.35514 3.96553C7.16549 3.96553 7.01032 3.81036 7.01032 3.62071ZM5.68963 3.62071C5.68963 3.43105 5.8448 3.27588 6.03446 3.27588C6.22411 3.27588 6.37928 3.43105 6.37928 3.62071C6.37928 3.81036 6.22411 3.96553 6.03446 3.96553C5.8448 3.96553 5.68963 3.81036 5.68963 3.62071ZM4.36894 3.62071C4.36894 3.43105 4.52066 3.27588 4.71377 3.27588C4.90342 3.27588 5.05859 3.43105 5.05859 3.62071C5.05859 3.81036 4.90342 3.96553 4.71377 3.96553C4.52066 3.96553 4.36894 3.81036 4.36894 3.62071ZM3.0448 3.62071C3.0448 3.43105 3.19997 3.27588 3.38963 3.27588C3.58273 3.27588 3.73446 3.43105 3.73446 3.62071C3.73446 3.81036 3.58273 3.96553 3.38963 3.96553C3.19997 3.96553 3.0448 3.81036 3.0448 3.62071Z" fill="#A5A5A4"/>
<path d="M17.931 3.96556C17.8379 3.96556 17.7517 3.92763 17.6862 3.86211C17.6241 3.80004 17.5862 3.71038 17.5862 3.62073C17.5862 3.53107 17.6241 3.44107 17.6862 3.3759C17.8103 3.24832 18.0448 3.24832 18.1758 3.3759C18.2379 3.44107 18.2758 3.53107 18.2758 3.62073C18.2758 3.71038 18.2379 3.80004 18.1758 3.86556C18.1103 3.92763 18.0207 3.96556 17.931 3.96556Z" fill="#A5A5A4"/>
</svg>
