<svg width="45" height="50" viewBox="0 0 45 50" fill="none" xmlns="http://www.w3.org/2000/svg">
<path d="M16.7973 21.232H13.86C13.7277 21.2318 13.5973 21.1999 13.4799 21.1389C13.3624 21.0779 13.2614 20.9896 13.1851 20.8815L9.05402 14.9776H7.04049L12.3269 22.5339C12.4029 22.6425 12.5039 22.7311 12.6214 22.7924C12.7389 22.8536 12.8694 22.8856 13.0018 22.8857H19.1043C19.2368 22.8855 19.3674 22.9174 19.485 22.9787C19.6025 23.04 19.7034 23.1288 19.7792 23.2375L30.0574 37.9129C30.1541 38.0517 30.206 38.2169 30.206 38.3861C30.206 38.5553 30.1541 38.7205 30.0574 38.8593L22.6348 49.4617C22.5589 49.5703 22.4579 49.659 22.3404 49.7202C22.2229 49.7814 22.0924 49.8134 21.9599 49.8134C21.8274 49.8134 21.6969 49.7814 21.5794 49.7202C21.4619 49.659 21.3609 49.5703 21.285 49.4617L13.8625 38.8568C13.7651 38.7185 13.7129 38.5534 13.7129 38.3842C13.7129 38.2151 13.7651 38.05 13.8625 37.9117L17.8065 32.2791C17.8825 32.1707 17.9834 32.0823 18.1008 32.0212C18.2182 31.9601 18.3485 31.9283 18.4808 31.9283C18.6131 31.9283 18.7435 31.9601 18.8608 32.0212C18.9782 32.0823 19.0791 32.1707 19.1551 32.2791L20.6262 34.3726C20.7233 34.5113 20.7754 34.6765 20.7754 34.8458C20.7754 35.0151 20.7233 35.1803 20.6262 35.319L18.8084 37.9203C18.7114 38.0588 18.6594 38.2238 18.6594 38.3929C18.6594 38.562 18.7114 38.727 18.8084 38.8655L21.9549 43.3559L25.104 38.8581C25.2008 38.7195 25.2527 38.5545 25.2527 38.3855C25.2527 38.2164 25.2008 38.0515 25.104 37.9129L17.674 27.2919C17.5981 27.1833 17.4971 27.0946 17.3797 27.0334C17.2622 26.9721 17.1316 26.9401 16.9992 26.9401H13.0006C12.8681 26.9402 12.7376 26.9723 12.6201 27.0335C12.5027 27.0947 12.4017 27.1834 12.3257 27.2919L7.03553 34.8483L9.05154 34.8421L13.1839 28.9345C13.2601 28.8263 13.3612 28.738 13.4786 28.677C13.5961 28.616 13.7264 28.5841 13.8587 28.5839H16.141C16.2735 28.584 16.404 28.6159 16.5215 28.6772C16.639 28.7384 16.74 28.8271 16.8159 28.9357L17.1428 29.4015C17.2396 29.5401 17.2915 29.705 17.2915 29.8741C17.2915 30.0431 17.2396 30.2081 17.1428 30.3467L11.4056 38.5422C11.3296 38.6506 11.2285 38.739 11.111 38.8001C10.9936 38.8611 10.8631 38.8929 10.7307 38.8927H0.841393C0.690778 38.8925 0.543121 38.8509 0.414432 38.7726C0.285743 38.6944 0.180938 38.5823 0.111394 38.4487C0.0418512 38.315 0.0102257 38.1649 0.0199406 38.0145C0.0296555 37.8642 0.0803453 37.7194 0.166509 37.5958L8.711 25.3768C8.8078 25.2383 8.85971 25.0733 8.85971 24.9043C8.85971 24.7352 8.8078 24.5702 8.711 24.4317L0.166509 12.2202C0.0798877 12.0967 0.0288257 11.9518 0.0188824 11.8013C0.00893915 11.6508 0.0404997 11.5004 0.110125 11.3666C0.17975 11.2328 0.284754 11.1207 0.413706 11.0425C0.542659 10.9643 0.690601 10.9231 0.841393 10.9232H10.7381C10.8706 10.9233 11.0011 10.9554 11.1186 11.0166C11.2361 11.0778 11.337 11.1665 11.413 11.275L17.4747 19.9363C17.5615 20.0598 17.6127 20.2049 17.6226 20.3556C17.6325 20.5063 17.6007 20.6568 17.5308 20.7907C17.4608 20.9245 17.3553 21.0365 17.226 21.1143C17.0966 21.1922 16.9483 21.2329 16.7973 21.232Z" fill="#EC1E24"/>
<path d="M27.1336 28.5815H30.0696C30.2021 28.5816 30.3326 28.6136 30.4501 28.6749C30.5675 28.7361 30.6685 28.8247 30.7445 28.9333L34.8768 34.8359H36.8891L31.6027 27.2796C31.5268 27.1709 31.4258 27.0822 31.3083 27.021C31.1908 26.9598 31.0603 26.9278 30.9278 26.9278H24.8241C24.6917 26.9278 24.5613 26.896 24.4438 26.8349C24.3264 26.7739 24.2253 26.6855 24.1492 26.5772L13.8587 11.8994C13.7617 11.7609 13.7097 11.5959 13.7097 11.4268C13.7097 11.2577 13.7617 11.0927 13.8587 10.9542L21.28 0.351824C21.356 0.243209 21.4571 0.154534 21.5747 0.0933107C21.6923 0.0320878 21.8229 0.00012207 21.9555 0.00012207C22.0881 0.00012207 22.2187 0.0320878 22.3363 0.0933107C22.4538 0.154534 22.555 0.243209 22.631 0.351824L30.0523 10.9542C30.1491 11.0928 30.201 11.2577 30.201 11.4268C30.201 11.5958 30.1491 11.7608 30.0523 11.8994L26.1095 17.5307C26.0334 17.639 25.9323 17.7275 25.8149 17.7886C25.6974 17.8496 25.567 17.8815 25.4346 17.8815C25.3022 17.8815 25.1718 17.8496 25.0543 17.7886C24.9368 17.7275 24.8358 17.639 24.7597 17.5307L23.2923 15.4335C23.1955 15.2949 23.1436 15.13 23.1436 14.9609C23.1436 14.7919 23.1955 14.6269 23.2923 14.4883L25.1027 11.9018C25.1997 11.7633 25.2517 11.5984 25.2517 11.4293C25.2517 11.2602 25.1997 11.0952 25.1027 10.9567L21.9549 6.4551L18.8058 10.9542C18.7088 11.0927 18.6568 11.2577 18.6568 11.4268C18.6568 11.5959 18.7088 11.7609 18.8058 11.8994L26.2605 22.5278C26.3368 22.6359 26.4379 22.7242 26.5553 22.7852C26.6727 22.8462 26.8031 22.8781 26.9354 22.8783H30.908C31.0405 22.8783 31.171 22.8463 31.2885 22.7851C31.406 22.7238 31.5069 22.6351 31.5829 22.5265L36.8693 14.9702H34.8545L30.721 20.8765C30.6449 20.9848 30.5438 21.0732 30.4263 21.1343C30.3089 21.1953 30.1785 21.2271 30.0461 21.2271H27.7762C27.6438 21.2271 27.5132 21.1951 27.3957 21.1338C27.2782 21.0726 27.1773 20.9839 27.1014 20.8753L26.7682 20.3996C26.6709 20.2612 26.6187 20.0962 26.6187 19.927C26.6187 19.7579 26.6709 19.5928 26.7682 19.4544L32.5017 11.2726C32.5778 11.1638 32.679 11.0751 32.7967 11.0139C32.9144 10.9526 33.0451 10.9207 33.1778 10.9208H43.0733C43.2241 10.9209 43.372 10.9624 43.5009 11.0407C43.6298 11.1191 43.7347 11.2313 43.8043 11.3651C43.8739 11.499 43.9054 11.6493 43.8955 11.7999C43.8856 11.9504 43.8347 12.0954 43.7482 12.219L35.2037 24.4305C35.1065 24.5691 35.0543 24.7343 35.0543 24.9037C35.0543 25.073 35.1065 25.2382 35.2037 25.3769L43.7705 37.5921C43.859 37.7161 43.9115 37.8623 43.922 38.0143C43.9326 38.1664 43.9009 38.3184 43.8303 38.4535C43.7598 38.5886 43.6532 38.7015 43.5224 38.7797C43.3916 38.8579 43.2417 38.8983 43.0894 38.8965H33.1964C33.0637 38.8966 32.933 38.8646 32.8153 38.8034C32.6976 38.7421 32.5964 38.6534 32.5203 38.5447L26.4525 29.8846C26.3638 29.7607 26.3112 29.6146 26.3006 29.4626C26.29 29.3106 26.3217 29.1586 26.3923 29.0235C26.4629 28.8885 26.5696 28.7756 26.7004 28.6976C26.8313 28.6196 26.9812 28.5794 27.1336 28.5815Z" fill="#EC1E24"/>
</svg>
