<svg width="22" height="25" viewBox="0 0 22 25" fill="none" xmlns="http://www.w3.org/2000/svg">
<g clip-path="url(#clip0)">
<path d="M10.9368 25C12.6614 25 14.0603 23.6011 14.0603 21.875H7.81327C7.81327 23.6011 9.21219 25 10.9368 25ZM21.4539 17.6899C20.5105 16.6763 18.7454 15.1514 18.7454 10.1562C18.7454 6.3623 16.0852 3.3252 12.4983 2.58008V1.5625C12.4983 0.699707 11.7991 0 10.9368 0C10.0745 0 9.37528 0.699707 9.37528 1.5625V2.58008C5.78836 3.3252 3.12821 6.3623 3.12821 10.1562C3.12821 15.1514 1.36307 16.6763 0.419712 17.6899C0.126743 18.0049 -0.00314007 18.3813 -0.000698663 18.75C0.00467243 19.5508 0.63309 20.3125 1.56668 20.3125H20.3069C21.2405 20.3125 21.8694 19.5508 21.8743 18.75C21.8767 18.3813 21.7469 18.0044 21.4539 17.6899Z" fill="#0E9549"/>
</g>
<defs>
<clipPath id="clip0">
<rect width="21.875" height="25" fill="white"/>
</clipPath>
</defs>
</svg>
