<svg width="209" height="80" viewBox="0 0 209 80" fill="none" xmlns="http://www.w3.org/2000/svg">
<g clip-path="url(#clip0)">
<path d="M5.09696 37.473H0V31.646H17.1185V37.473H11.9539V57.9925H5.09696V37.473Z" fill="#0E9549"/>
<path d="M18.115 31.6418H24.7566V36.5875H18.115V31.6418ZM18.115 38.0266H24.7566V57.9926H18.115V38.0266Z" fill="#0E9549"/>
<path d="M33.5722 49.1355V51.7556C33.5722 53.5516 34.1749 54.4495 35.3801 54.4495C36.0195 54.4495 36.4931 54.1911 36.801 53.6743C37.1089 53.1575 37.2625 52.2595 37.2618 50.9804H43.2388C43.1889 53.4902 42.5495 55.3538 41.3207 56.5712C40.0918 57.7886 38.1241 58.3977 35.4176 58.3984C32.245 58.3984 30.0373 57.6294 28.7946 56.0915C27.5519 54.5536 26.9309 51.8659 26.9316 48.0284C26.9316 44.2401 27.5904 41.5395 28.908 39.9267C30.2256 38.3139 32.3961 37.5081 35.4196 37.5095C38.1741 37.5095 40.1969 38.2292 41.4881 39.6686C42.7794 41.1081 43.425 43.587 43.425 47.1054V49.1355H33.5722ZM37.2254 44.6331C37.2254 43.5495 37.0902 42.7681 36.8197 42.2887C36.5493 41.8094 36.0694 41.5697 35.3801 41.5697C34.7165 41.5697 34.2494 41.8094 33.979 42.2887C33.7085 42.7681 33.5729 43.5495 33.5722 44.6331V45.5186H37.2254V44.6331Z" fill="#0E9549"/>
<path d="M45.2672 38.0267H51.6873V40.4626H51.7611C52.621 38.4939 54.232 37.5095 56.5939 37.5095C58.2173 37.5095 59.4901 37.9157 60.4125 38.728C61.3348 39.5403 61.7959 40.9426 61.7959 42.9349V57.9926H55.1553V44.8173C55.1553 43.9807 55.0322 43.3778 54.786 43.0088C54.5395 42.6394 54.1224 42.4552 53.5316 42.4552C52.9407 42.4552 52.5226 42.6394 52.2771 43.0088C52.0316 43.3782 51.9057 43.9807 51.9057 44.8173V57.9926H45.2672V38.0267Z" fill="#0E9549"/>
<path d="M64.7469 31.6418H72.4205L76.8486 47.8806H76.9224V31.6418H83.3415V57.9926H75.8146L71.2378 41.7174H71.165V57.9926H64.7469V31.6418Z" fill="#0E9549"/>
<path d="M96.5124 37.5324H102.71V57.6606C102.71 62.3348 99.9309 64.6722 94.3728 64.6729C92.8229 64.6729 91.5191 64.5313 90.4616 64.2483C89.4089 63.9692 88.4683 63.3713 87.7685 62.5366C87.0314 61.6751 86.65 60.5187 86.6243 59.0675H92.6013C92.6013 60.1004 93.1561 60.6168 94.2656 60.6168C94.8807 60.6168 95.3727 60.4569 95.7416 60.1371C96.1106 59.8173 96.295 59.1531 96.295 58.1445V54.4495H96.2181C95.4802 56.4418 93.9796 57.438 91.7161 57.438C87.8327 57.438 85.891 54.1533 85.891 47.584C85.891 43.9179 86.4076 41.3221 87.4409 39.7966C88.4741 38.2712 90.0112 37.5081 92.0521 37.5074C94.3148 37.5074 95.7784 38.6024 96.4427 40.7924H96.5166L96.5124 37.5324ZM92.5274 47.4748C92.5274 49.4671 92.6752 50.8017 92.9706 51.4788C93.266 52.1558 93.759 52.494 94.4497 52.4933C95.1134 52.4933 95.5867 52.1614 95.8696 51.4975C96.1525 50.8337 96.294 49.4927 96.294 47.4748C96.294 45.5061 96.1463 44.1773 95.8509 43.4885C95.5554 42.7996 95.0884 42.4549 94.4497 42.4542C93.7847 42.4542 93.2993 42.7986 92.9935 43.4874C92.6876 44.1763 92.5323 45.5054 92.5274 47.4748Z" fill="#0E9549"/>
<path d="M115.18 57.9926C115.057 57.6728 114.922 56.9222 114.774 55.7408H114.7C113.962 57.5125 112.462 58.3984 110.199 58.3984C106.509 58.3984 104.665 56.4793 104.666 52.6411C104.666 50.7681 105.065 49.3533 105.865 48.3967C106.664 47.4401 108.109 46.7145 110.199 46.2199L112.819 45.5956C113.532 45.4235 114.036 45.1714 114.331 44.8391C114.626 44.5068 114.773 44.033 114.774 43.4177C114.774 42.1878 114.209 41.5728 113.078 41.5728C112.413 41.5728 111.94 41.7573 111.657 42.1264C111.374 42.4954 111.221 43.1943 111.197 44.2231H105.442C105.442 42.8704 105.687 41.7202 106.179 40.7726C106.671 39.825 107.329 39.1314 108.155 38.6916C108.915 38.274 109.728 37.9644 110.573 37.7717C111.397 37.595 112.239 37.5081 113.082 37.5126C115.639 37.5126 117.594 37.9802 118.947 38.9153C120.301 39.8504 120.977 41.5225 120.975 43.9317V53.6743C120.975 55.7658 121.183 57.2052 121.599 57.9926H115.18ZM112.708 54.0385C114.086 54.0385 114.774 52.9435 114.774 50.7535V48.3603H114.7C114.577 48.5329 114.403 48.6622 114.202 48.7297C113.994 48.8025 113.711 48.8823 113.354 48.969C113.042 49.0386 112.739 49.1433 112.45 49.2812C111.541 49.6974 111.085 50.5582 111.085 51.8638C111.085 52.5283 111.232 53.0573 111.528 53.4506C111.661 53.639 111.838 53.7916 112.044 53.8951C112.25 53.9986 112.478 54.0496 112.708 54.0437V54.0385Z" fill="#0E9549"/>
<path d="M124.446 59.8749C124.931 59.9801 125.426 60.0296 125.922 60.0227C126.66 60.0227 127.214 59.844 127.586 59.4868C127.954 59.1299 128.133 58.5097 128.133 58.2142C128.133 58.0415 128.035 57.5861 127.839 56.848L122.448 37.5387L129.347 37.5095L131.454 51.4975H131.527L133.516 37.5387H140.212L134.737 58.543C134.172 60.7812 133.402 62.6084 132.419 63.4336C131.436 64.2587 130.02 64.6697 128.176 64.6697C126.699 64.6697 125.457 64.6205 124.45 64.522L124.446 59.8749Z" fill="#0E9549"/>
<path d="M139.346 50.6848H145.543V57.9926H139.346V50.6848Z" fill="#EC1E24"/>
<path d="M147.016 37.547H153.819L155.763 52.3831H155.837L157.742 37.5491H164.66L159.67 57.9926H151.849L147.016 37.547Z" fill="#EC1E24"/>
<path d="M165.65 37.547H172.069V40.4605H172.143C173.004 38.4918 174.615 37.5074 176.977 37.5074C178.599 37.5074 179.872 37.9136 180.795 38.7259C181.718 39.5382 182.179 40.9405 182.179 42.9328V57.9926H175.537V44.8173C175.537 43.9807 175.414 43.3778 175.169 43.0088C174.923 42.6398 174.505 42.4549 173.914 42.4542C173.324 42.4542 172.905 42.6387 172.66 43.0078C172.414 43.3768 172.291 43.9796 172.291 44.8162V57.9926H165.65V37.547Z" fill="#EC1E24"/>
<path d="M5.7294 70.6393H3.68541V77.5204H2.00966V70.6393H0V69.248H5.7294V70.6393Z" fill="#0E9549"/>
<path d="M9.15377 77.5204C9.09133 77.3665 9.04565 77.2064 9.0175 77.0428C8.8874 77.231 8.71226 77.3838 8.50805 77.487C8.30383 77.5902 8.07703 77.6407 7.84832 77.6338C7.6113 77.6408 7.37536 77.5991 7.15511 77.5112C6.93486 77.4233 6.73498 77.2911 6.56784 77.1229C6.39789 76.9483 6.26523 76.7409 6.17797 76.5133C6.0907 76.2858 6.05064 76.0428 6.06023 75.7993C6.06023 75.1549 6.26549 74.6568 6.67603 74.3051C7.08656 73.9534 7.67808 73.7737 8.4506 73.7661H8.93845V73.2718C8.93845 72.995 8.8906 72.8005 8.79698 72.687C8.74544 72.6285 8.68108 72.5826 8.60891 72.553C8.53674 72.5234 8.45871 72.5109 8.3809 72.5164C7.97939 72.5164 7.77898 72.7512 7.77967 73.2208H6.17465C6.16863 72.9536 6.22292 72.6884 6.3335 72.445C6.44408 72.2016 6.60809 71.9863 6.81333 71.8151C7.23912 71.446 7.77759 71.2612 8.42875 71.2605C9.10141 71.2605 9.62151 71.4339 9.98904 71.7807C10.3566 72.1276 10.541 72.6284 10.5424 73.2833V76.1739C10.5494 76.7046 10.6249 77.1208 10.7692 77.4226V77.5204H9.15377ZM9.18289 70.5487H7.82544L6.25995 68.7933H8.05948L9.18289 70.5487ZM8.20719 76.3758C8.36526 76.382 8.52215 76.3461 8.66176 76.2717C8.77418 76.2113 8.86967 76.1236 8.93949 76.0168V74.7296H8.55358C8.43353 74.7234 8.31358 74.7436 8.20216 74.7887C8.09074 74.8338 7.99056 74.9028 7.90866 74.9908C7.7445 75.1852 7.66046 75.4349 7.67357 75.689C7.67357 76.1469 7.85144 76.3758 8.20719 76.3758Z" fill="#0E9549"/>
<path d="M12.2919 69.7819C12.2879 69.6689 12.307 69.5563 12.3479 69.4509C12.3889 69.3455 12.4509 69.2496 12.5301 69.169C12.7061 69.0147 12.9322 68.9297 13.1662 68.9297C13.4002 68.9297 13.6262 69.0147 13.8023 69.169C13.8815 69.2496 13.9435 69.3455 13.9844 69.4509C14.0254 69.5563 14.0445 69.6689 14.0405 69.7819C14.0445 69.8992 14.0249 70.0162 13.9828 70.1259C13.9407 70.2355 13.8769 70.3356 13.7953 70.42C13.7138 70.5045 13.616 70.5717 13.5079 70.6176C13.3998 70.6635 13.2836 70.6871 13.1662 70.6871C13.0488 70.6871 12.9325 70.6635 12.8245 70.6176C12.7164 70.5717 12.6186 70.5045 12.537 70.42C12.4554 70.3356 12.3917 70.2355 12.3496 70.1259C12.3075 70.0162 12.2879 69.8992 12.2919 69.7819ZM13.9781 77.5204H12.3658V71.3728H13.9781V77.5204Z" fill="#0E9549"/>
<path d="M21.2844 76.2968C21.749 76.2968 21.9855 75.994 21.9938 75.3884H23.5083C23.5007 76.0585 23.2927 76.5999 22.8842 77.0127C22.4758 77.4254 21.9533 77.6335 21.3167 77.637C20.5261 77.637 19.9224 77.3907 19.5057 76.8982C19.0889 76.4057 18.8771 75.6808 18.8701 74.7235V74.2344C18.8701 73.2688 19.0754 72.5324 19.4859 72.0253C19.8964 71.5183 20.5032 71.2644 21.3063 71.2637C21.9831 71.2637 22.5167 71.4718 22.9071 71.888C23.2975 72.3042 23.4979 72.8984 23.5083 73.6704H21.9938C21.9938 73.326 21.9335 73.0607 21.8232 72.8755C21.7673 72.7829 21.6866 72.7077 21.5904 72.6585C21.4941 72.6092 21.386 72.5878 21.2782 72.5966C21.0008 72.5966 20.8004 72.6962 20.6769 72.8952C20.5535 73.0943 20.489 73.4797 20.4835 74.0513V74.6756C20.4715 75.0265 20.4963 75.3777 20.5573 75.7234C20.5891 75.8918 20.6749 76.0453 20.8018 76.1605C20.9419 76.2607 21.1126 76.309 21.2844 76.2968Z" fill="#0E9549"/>
<path d="M26.5613 71.9118C26.9081 71.4769 27.3359 71.2591 27.8449 71.2584C28.4046 71.2584 28.8303 71.4554 29.1223 71.8494C29.4142 72.2434 29.5616 72.8303 29.5644 73.61V77.5204H27.9521V73.6277C27.9521 73.2677 27.8969 73.0034 27.7846 72.8462C27.6723 72.6891 27.4923 72.6048 27.2427 72.6048C27.1029 72.6028 26.9654 72.6394 26.8451 72.7107C26.7249 72.7819 26.6267 72.885 26.5613 73.0086V77.5204H24.9542V68.7933H26.5613V71.9118Z" fill="#0E9549"/>
<path d="M33.0252 77.5204H31.4139V71.3729H33.021L33.0252 77.5204ZM32.5582 68.8839H34.3639L32.787 70.6393H31.4462L32.5582 68.8839Z" fill="#0E9549"/>
<path d="M36.3995 71.3729L36.4453 71.9806C36.6058 71.753 36.8196 71.5681 37.068 71.4422C37.3165 71.3164 37.5919 71.2533 37.8704 71.2585C38.9265 71.2585 39.4698 71.999 39.5003 73.48V77.5205H37.887V73.5987C37.887 73.2518 37.835 72.9993 37.731 72.8411C37.627 72.683 37.4446 72.6042 37.1838 72.6049C36.8912 72.6049 36.6641 72.7544 36.5025 73.0534V77.5205H34.8892V71.3729H36.3995Z" fill="#0E9549"/>
<path d="M42.801 71.9118C43.1477 71.4769 43.5756 71.2591 44.0846 71.2584C44.6442 71.2584 45.07 71.4554 45.3619 71.8494C45.6539 72.2434 45.8016 72.8303 45.805 73.61V77.5204H44.1927V73.6277C44.1927 73.2677 44.1366 73.0072 44.0242 72.8462C43.9119 72.6853 43.7305 72.6048 43.4802 72.6048C43.3405 72.6029 43.203 72.6396 43.0828 72.7108C42.9625 72.7821 42.8643 72.8851 42.7989 73.0086V77.5204H41.1918V68.7933H42.7989L42.801 71.9118Z" fill="#0E9549"/>
<path d="M55.8928 70.6393H53.8488V77.5204H52.1741V70.6393H50.1644V69.248H55.8928V70.6393Z" fill="#EC1E24"/>
<path d="M57.3542 69.7819C57.3504 69.6688 57.3696 69.5562 57.4108 69.4508C57.4519 69.3454 57.5141 69.2495 57.5935 69.169C57.7693 69.0148 57.9952 68.9298 58.2291 68.9298C58.4629 68.9298 58.6888 69.0148 58.8646 69.169C58.944 69.2495 59.0062 69.3454 59.0474 69.4508C59.0885 69.5562 59.1077 69.6688 59.1039 69.7819C59.1039 70.014 59.0117 70.2365 58.8476 70.4007C58.6836 70.5648 58.4611 70.657 58.2291 70.657C57.997 70.657 57.7745 70.5648 57.6105 70.4007C57.4464 70.2365 57.3542 70.014 57.3542 69.7819ZM59.0415 77.5204H57.4281V71.3729H59.0415V77.5204Z" fill="#EC1E24"/>
<path d="M63.3479 77.6318C62.5226 77.6318 61.8791 77.3855 61.4173 76.893C60.9554 76.4005 60.7245 75.6964 60.7245 74.7807V74.2948C60.7245 73.3236 60.9367 72.5758 61.3611 72.0514C61.7855 71.5269 62.393 71.2637 63.1835 71.2616C63.9553 71.2616 64.5364 71.5086 64.9269 72.0025C65.3173 72.4964 65.5156 73.2258 65.5219 74.1907V74.9795H62.3253C62.3482 75.4352 62.4484 75.7689 62.626 75.9805C62.8035 76.192 63.0777 76.2961 63.4487 76.2926C63.6983 76.3004 63.9468 76.2563 64.1784 76.1631C64.4101 76.07 64.6199 75.9299 64.7948 75.7515L65.4251 76.7224C65.2028 77.0148 64.9071 77.2431 64.568 77.3842C64.1836 77.5528 63.7676 77.6372 63.3479 77.6318ZM64.9321 70.3813V70.45H63.6776L62.9671 69.6321L62.2577 70.45H61.0313V70.3584L62.5074 68.7976H63.4279L64.9321 70.3813ZM63.1086 78.0574C63.353 78.0465 63.5928 78.1266 63.7816 78.2821C63.8627 78.3523 63.9277 78.439 63.9722 78.5365C64.0168 78.634 64.0398 78.74 64.0398 78.8472C64.0398 78.9544 64.0168 79.0603 63.9722 79.1578C63.9277 79.2553 63.8627 79.342 63.7816 79.4122C63.5928 79.5678 63.353 79.6478 63.1086 79.6369C62.8662 79.6474 62.6285 79.5673 62.4418 79.4122C62.3606 79.3421 62.2955 79.2554 62.2508 79.1579C62.2062 79.0604 62.1831 78.9544 62.1831 78.8472C62.1831 78.7399 62.2062 78.6339 62.2508 78.5364C62.2955 78.4389 62.3606 78.3522 62.4418 78.2821C62.6285 78.1271 62.8662 78.0469 63.1086 78.0574ZM62.3368 73.8598H63.9428V73.7121C63.9356 73.3458 63.8752 73.067 63.7618 72.8797C63.6485 72.6924 63.4498 72.5956 63.171 72.5956C63.0517 72.5867 62.9321 72.6099 62.8248 72.6627C62.7174 72.7156 62.6261 72.7963 62.5604 72.8963C62.4335 73.095 62.3597 73.4176 62.3368 73.8598Z" fill="#EC1E24"/>
<path d="M68.4823 71.3729L68.5281 71.9806C68.6886 71.753 68.9024 71.5681 69.1508 71.4422C69.3992 71.3164 69.6747 71.2533 69.9531 71.2585C71.0086 71.2585 71.5516 71.999 71.5821 73.48V77.5205H69.9698V73.5987C69.9698 73.2518 69.9178 72.9993 69.8137 72.8411C69.7097 72.683 69.527 72.6042 69.2656 72.6049C68.9743 72.6049 68.7472 72.7544 68.5842 73.0534V77.5205H66.9719V71.3729H68.4823Z" fill="#EC1E24"/>
<path d="M78.593 75.2458L79.3669 71.3729H81.0426L79.3596 77.5204H77.8264L76.135 71.375H77.816L78.593 75.2458Z" fill="#EC1E24"/>
<path d="M85.2158 77.5204C85.1529 77.3667 85.1072 77.2065 85.0795 77.0428C84.9494 77.2311 84.7743 77.3838 84.5701 77.487C84.3659 77.5902 84.1391 77.6407 83.9104 77.6338C83.6733 77.6409 83.4374 77.5992 83.2171 77.5113C82.9968 77.4234 82.797 77.2912 82.6299 77.1229C82.4598 76.9483 82.327 76.741 82.2395 76.5134C82.1521 76.2859 82.1118 76.0429 82.1212 75.7993C82.1212 75.1549 82.3268 74.6568 82.738 74.3051C83.1493 73.9534 83.7405 73.7737 84.5116 73.7661H85.0005V73.2718C85.0005 72.9944 84.953 72.7994 84.858 72.6871C84.8064 72.6285 84.7421 72.5826 84.6699 72.553C84.5977 72.5234 84.5197 72.5109 84.4419 72.5164C84.0404 72.5164 83.8396 72.7512 83.8396 73.2209H82.2346C82.2286 72.9536 82.2829 72.6884 82.3934 72.445C82.504 72.2016 82.668 71.9863 82.8733 71.8151C83.2998 71.446 83.8382 71.2612 84.4887 71.2605C85.1628 71.2605 85.6829 71.4339 86.049 71.7808C86.4152 72.1276 86.5996 72.6284 86.6024 73.2833V76.1739C86.6107 76.7046 86.6856 77.1187 86.8302 77.4226V77.5204H85.2158ZM85.2439 70.5487H83.8916L82.324 68.7871H84.1205L85.2439 70.5487ZM84.2682 76.3758C84.4259 76.3821 84.5825 76.3462 84.7217 76.2717C84.8344 76.2113 84.9302 76.1237 85.0005 76.0168V74.7296H84.6146C84.4945 74.7233 84.3745 74.7435 84.2631 74.7886C84.1517 74.8337 84.0515 74.9028 83.9696 74.9908C83.8059 75.1854 83.7222 75.435 83.7356 75.689C83.7356 76.1469 83.9131 76.3758 84.2682 76.3758Z" fill="#EC1E24"/>
<path d="M97.4735 77.5204H95.8019L93.3606 72.096V77.5204H91.6963V69.248H93.3606L95.8071 74.6776V69.248H97.4715L97.4735 77.5204Z" fill="#EC1E24"/>
<path d="M99.1223 74.2583C99.1223 73.251 99.304 72.4994 99.6674 72.0034C100.031 71.5074 100.54 71.2591 101.194 71.2584C101.448 71.2482 101.7 71.3035 101.925 71.4191C102.151 71.5346 102.343 71.7065 102.483 71.9181L102.546 71.3729H103.994V77.5204C103.994 78.3036 103.774 78.9026 103.335 79.3174C102.896 79.7323 102.266 79.9404 101.445 79.9417C101.08 79.9359 100.72 79.8662 100.379 79.7357C100.062 79.6375 99.7762 79.4607 99.5467 79.2217L100.086 78.1083C100.253 78.2781 100.454 78.4108 100.676 78.4975C100.893 78.5928 101.127 78.6441 101.364 78.6484C101.723 78.6484 101.982 78.562 102.139 78.3903C102.296 78.2186 102.376 77.9397 102.38 77.5579V77.0293C102.244 77.2194 102.064 77.3736 101.855 77.4786C101.647 77.5836 101.416 77.6361 101.182 77.6317C100.527 77.6317 100.02 77.3772 99.6632 76.868C99.3061 76.3588 99.1258 75.6398 99.1223 74.7109V74.2583ZM100.729 74.661C100.729 75.2291 100.803 75.6429 100.95 75.9024C101.018 76.0273 101.121 76.1302 101.246 76.1991C101.37 76.2679 101.512 76.3 101.654 76.2915C101.796 76.3001 101.938 76.2716 102.066 76.2088C102.193 76.1461 102.302 76.0512 102.382 75.9336V72.9972C102.308 72.8731 102.202 72.7713 102.075 72.7023C101.948 72.6333 101.805 72.5996 101.66 72.6049C101.518 72.5976 101.376 72.6306 101.251 72.6999C101.126 72.7693 101.023 72.8722 100.954 72.9972C100.8 73.258 100.724 73.6784 100.724 74.2583L100.729 74.661Z" fill="#EC1E24"/>
<path d="M108.663 77.5204C108.6 77.3665 108.555 77.2064 108.527 77.0428C108.396 77.2311 108.221 77.3838 108.017 77.487C107.813 77.5903 107.586 77.6407 107.357 77.6338C107.12 77.6408 106.884 77.5991 106.664 77.5112C106.444 77.4233 106.244 77.2912 106.077 77.1229C105.907 76.9483 105.774 76.7409 105.687 76.5133C105.6 76.2858 105.56 76.0429 105.569 75.7993C105.569 75.1549 105.775 74.6568 106.185 74.3051C106.596 73.9534 107.187 73.7737 107.96 73.7661H108.447V73.2719C108.447 72.9944 108.4 72.7995 108.305 72.6871C108.254 72.6283 108.189 72.5823 108.117 72.5527C108.045 72.5231 107.967 72.5107 107.889 72.5164C107.487 72.5164 107.287 72.7512 107.287 73.2209H105.684C105.677 72.9536 105.732 72.6883 105.842 72.4449C105.953 72.2015 106.117 71.9862 106.322 71.8151C106.748 71.4461 107.287 71.2612 107.938 71.2605C108.611 71.2605 109.131 71.4339 109.498 71.7808C109.865 72.1276 110.049 72.6285 110.051 73.2833V76.1739C110.059 76.7046 110.135 77.1208 110.278 77.4226V77.5204H108.663ZM107.715 76.3758C107.873 76.3822 108.03 76.3463 108.169 76.2717C108.282 76.2116 108.378 76.1239 108.447 76.0168V74.7297H108.062C107.942 74.7234 107.822 74.7436 107.71 74.7887C107.599 74.8338 107.499 74.9028 107.417 74.9908C107.253 75.1853 107.168 75.4349 107.182 75.689C107.182 76.1469 107.359 76.3758 107.715 76.3758Z" fill="#EC1E24"/>
<path d="M113.685 74.8431L114.503 71.3729H116.217L114.196 78.4382C113.893 79.4787 113.324 79.999 112.487 79.999C112.263 79.9952 112.042 79.9602 111.828 79.8949V78.6369H112.015C112.214 78.651 112.413 78.6003 112.58 78.4923C112.728 78.3605 112.829 78.184 112.867 77.9897L112.992 77.5735L111.224 71.3656H112.95L113.685 74.8431Z" fill="#EC1E24"/>
<path d="M122.967 76.2968C123.433 76.2968 123.67 75.994 123.677 75.3884H125.188C125.179 76.0585 124.971 76.5999 124.563 77.0127C124.156 77.4254 123.633 77.6335 122.996 77.637C122.204 77.637 121.6 77.3907 121.185 76.8982C120.77 76.4057 120.557 75.6808 120.548 74.7235V74.2344C120.548 73.2688 120.754 72.5324 121.165 72.0253C121.576 71.5183 122.183 71.2644 122.984 71.2637C123.662 71.2637 124.196 71.4718 124.585 71.888C124.975 72.3042 125.176 72.8984 125.188 73.6704H123.679C123.691 73.3953 123.632 73.1216 123.509 72.8755C123.453 72.783 123.372 72.7079 123.276 72.6586C123.18 72.6094 123.071 72.5879 122.964 72.5966C122.683 72.5966 122.483 72.7007 122.361 72.8952C122.24 73.0898 122.176 73.479 122.169 74.0513V74.6756C122.156 75.0265 122.181 75.3778 122.243 75.7234C122.274 75.8917 122.36 76.0452 122.486 76.1605C122.626 76.2601 122.796 76.3083 122.967 76.2968Z" fill="#0E9549"/>
<path d="M128.244 71.9118C128.59 71.4769 129.018 71.2591 129.527 71.2584C130.088 71.2584 130.513 71.4554 130.805 71.8494C131.096 72.2434 131.244 72.8303 131.248 73.61V77.5204H129.635V73.6277C129.635 73.2677 129.58 73.0072 129.468 72.8462C129.356 72.685 129.176 72.6048 128.925 72.6048C128.785 72.6029 128.648 72.6396 128.528 72.7108C128.407 72.7821 128.309 72.8851 128.244 73.0086V77.5204H126.638V68.7933H128.244V71.9118Z" fill="#0E9549"/>
<path d="M132.795 74.2469C132.795 73.3145 133.014 72.5837 133.453 72.0544C133.892 71.5251 134.499 71.2598 135.275 71.2584C136.059 71.2584 136.67 71.5238 137.109 72.0544C137.548 72.5851 137.768 73.3197 137.768 74.2583V74.6495C137.768 75.5853 137.55 76.3161 137.116 76.842C136.681 77.3678 136.071 77.6311 135.287 77.6317C134.5 77.6317 133.887 77.3674 133.45 76.8389C133.012 76.3103 132.794 75.5767 132.795 74.6381V74.2469ZM134.407 74.6495C134.407 75.7484 134.7 76.2974 135.287 76.2967C135.829 76.2967 136.121 75.8385 136.162 74.9222V74.2469C136.162 73.6857 136.084 73.2694 135.929 72.9982C135.868 72.8755 135.774 72.7724 135.658 72.7006C135.541 72.6289 135.407 72.5913 135.27 72.5924C134.998 72.5924 134.785 72.7277 134.632 72.9982C134.478 73.2687 134.402 73.685 134.402 74.2469L134.407 74.6495Z" fill="#0E9549"/>
<path d="M144.12 71.3728L144.166 71.9399C144.332 71.7213 144.548 71.5455 144.796 71.427C145.044 71.3085 145.316 71.2507 145.591 71.2584C146.205 71.2584 146.638 71.5358 146.891 72.0908C147.044 71.8296 147.265 71.6145 147.53 71.468C147.794 71.3215 148.094 71.2491 148.396 71.2584C149.471 71.2584 150.022 72.0027 150.048 73.4914V77.5204H148.441V73.5933C148.441 73.2375 148.392 72.9836 148.293 72.8317C148.195 72.6797 148.028 72.6041 147.794 72.6048C147.496 72.6048 147.273 72.7886 147.124 73.1563L147.136 73.3488V77.5204H145.529V73.6048C145.529 73.252 145.482 72.9981 145.387 72.841C145.292 72.6839 145.124 72.6048 144.882 72.6048C144.604 72.6048 144.385 72.7543 144.223 73.0533V77.5204H142.616V71.3728H144.12Z" fill="#0E9549"/>
<path d="M151.629 74.2469C151.629 73.3145 151.849 72.5837 152.288 72.0544C152.727 71.5251 153.334 71.2598 154.11 71.2584C154.893 71.2584 155.504 71.5238 155.944 72.0544C156.384 72.5851 156.603 73.3197 156.602 74.2583V74.6495C156.602 75.5853 156.385 76.3162 155.949 76.842C155.514 77.3678 154.905 77.6311 154.122 77.6317C153.334 77.6317 152.721 77.3675 152.285 76.8389C151.848 76.3103 151.629 75.5767 151.629 74.6381V74.2469ZM154.105 78.0969C154.349 78.0859 154.588 78.166 154.777 78.3216C154.858 78.3917 154.923 78.4784 154.968 78.5759C155.013 78.6734 155.036 78.7794 155.036 78.8866C155.036 78.9939 155.013 79.0999 154.968 79.1974C154.923 79.2949 154.858 79.3816 154.777 79.4517C154.584 79.5969 154.349 79.6754 154.107 79.6754C153.865 79.6754 153.63 79.5969 153.437 79.4517C153.356 79.3815 153.291 79.2948 153.247 79.1973C153.202 79.0998 153.179 78.9938 153.179 78.8866C153.179 78.7794 153.202 78.6735 153.247 78.576C153.291 78.4785 153.356 78.3918 153.437 78.3216C153.624 78.1648 153.862 78.0828 154.105 78.0917V78.0969ZM153.242 74.6548C153.242 75.7536 153.535 76.3026 154.122 76.3019C154.662 76.3019 154.954 75.8438 154.995 74.9274L155.002 74.2521C155.002 73.6909 154.924 73.2747 154.769 73.0034C154.708 72.8807 154.614 72.7776 154.498 72.7058C154.381 72.6341 154.247 72.5966 154.11 72.5976C153.838 72.5976 153.625 72.7329 153.471 73.0034C153.318 73.274 153.242 73.6902 153.242 74.2521V74.6548Z" fill="#0E9549"/>
<path d="M158.183 69.7819C158.179 69.6689 158.198 69.5563 158.239 69.4509C158.28 69.3455 158.342 69.2496 158.422 69.169C158.598 69.0147 158.824 68.9297 159.058 68.9297C159.292 68.9297 159.518 69.0147 159.694 69.169C159.773 69.2496 159.835 69.3455 159.876 69.4509C159.917 69.5563 159.936 69.6689 159.932 69.7819C159.936 69.8992 159.916 70.0162 159.874 70.1259C159.832 70.2355 159.768 70.3356 159.687 70.42C159.605 70.5045 159.507 70.5717 159.399 70.6176C159.291 70.6635 159.175 70.6871 159.058 70.6871C158.94 70.6871 158.824 70.6635 158.716 70.6176C158.608 70.5717 158.51 70.5045 158.429 70.42C158.347 70.3356 158.283 70.2355 158.241 70.1259C158.199 70.0162 158.179 69.8992 158.183 69.7819ZM159.87 77.5204H158.257V71.3728H159.87V77.5204Z" fill="#0E9549"/>
<path d="M166.431 71.3729L166.476 71.9806C166.637 71.753 166.85 71.5682 167.099 71.4424C167.347 71.3165 167.623 71.2533 167.901 71.2585C168.958 71.2585 169.501 71.999 169.531 73.48V77.5205H167.919V73.5987C167.919 73.2518 167.867 72.9993 167.763 72.8411C167.659 72.684 167.476 72.6049 167.215 72.6049C166.923 72.6049 166.695 72.7544 166.533 73.0534V77.5205H164.921V71.3729H166.431Z" fill="#0E9549"/>
<path d="M172.828 71.9118C173.175 71.4769 173.603 71.2591 174.111 71.2584C174.672 71.2584 175.098 71.4554 175.388 71.8494C175.679 72.2434 175.827 72.8303 175.831 73.61V77.5204H174.219V73.6277C174.219 73.2677 174.163 73.0072 174.052 72.8462C173.939 72.685 173.759 72.6048 173.509 72.6048C173.369 72.6028 173.232 72.6394 173.112 72.7106C172.992 72.7819 172.893 72.885 172.828 73.0086V77.5204H171.221V68.7933H172.828V71.9118Z" fill="#0E9549"/>
<path d="M180.484 77.5204C180.421 77.3669 180.375 77.2066 180.348 77.0428C180.218 77.231 180.042 77.3837 179.838 77.4869C179.633 77.5901 179.407 77.6406 179.178 77.6338C178.941 77.6408 178.705 77.5991 178.485 77.5112C178.264 77.4233 178.064 77.2912 177.897 77.1229C177.727 76.9481 177.595 76.7407 177.508 76.5132C177.42 76.2857 177.38 76.0428 177.39 75.7993C177.39 75.1549 177.595 74.6568 178.005 74.3051C178.416 73.9534 179.007 73.7737 179.78 73.7661H180.266V73.2718C180.266 72.9944 180.219 72.7994 180.124 72.6871C180.073 72.6285 180.008 72.5826 179.936 72.553C179.864 72.5234 179.786 72.5109 179.708 72.5164C179.307 72.5164 179.107 72.7512 179.107 73.2209H177.5C177.494 72.9536 177.548 72.6884 177.659 72.445C177.769 72.2016 177.933 71.9863 178.139 71.8151C178.565 71.446 179.104 71.2612 179.754 71.2605C180.428 71.2605 180.948 71.4339 181.314 71.7808C181.68 72.1276 181.865 72.6285 181.868 73.2833V76.1739C181.875 76.7046 181.95 77.1208 182.094 77.4226V77.5204H180.484ZM180.512 70.5487H179.16L177.594 68.7871H179.393L180.512 70.5487ZM179.538 76.3758C179.696 76.3822 179.853 76.3463 179.992 76.2717C180.105 76.2113 180.2 76.1237 180.27 76.0168V74.7297H179.884C179.764 74.7234 179.644 74.7435 179.533 74.7886C179.422 74.8338 179.322 74.9028 179.24 74.9908C179.076 75.1851 178.991 75.4347 179.004 75.689C179.003 76.1469 179.181 76.3758 179.538 76.3758Z" fill="#0E9549"/>
<path d="M186.11 17.8349H183.642C183.531 17.8348 183.422 17.808 183.323 17.7567C183.224 17.7055 183.139 17.6313 183.075 17.5405L179.605 12.5812H177.914L182.355 18.9285C182.418 19.0197 182.503 19.0942 182.602 19.1456C182.701 19.1971 182.81 19.224 182.921 19.2241H188.048C188.159 19.2239 188.269 19.2507 188.367 19.3021C188.466 19.3536 188.551 19.4282 188.614 19.5196L197.248 31.8469C197.329 31.9635 197.373 32.1022 197.373 32.2444C197.373 32.3865 197.329 32.5252 197.248 32.6418L191.013 41.5478C190.949 41.6391 190.865 41.7136 190.766 41.765C190.667 41.8164 190.558 41.8433 190.446 41.8433C190.335 41.8433 190.225 41.8164 190.127 41.765C190.028 41.7136 189.943 41.6391 189.879 41.5478L183.644 32.6398C183.563 32.5235 183.519 32.3849 183.519 32.2428C183.519 32.1007 183.563 31.9621 183.644 31.8458L186.957 27.1145C187.021 27.0235 187.106 26.9492 187.205 26.8979C187.303 26.8466 187.413 26.8198 187.524 26.8198C187.635 26.8198 187.744 26.8466 187.843 26.8979C187.942 26.9492 188.026 27.0235 188.09 27.1145L189.326 28.873C189.407 28.9895 189.451 29.1283 189.451 29.2705C189.451 29.4127 189.407 29.5515 189.326 29.668L187.799 31.8531C187.717 31.9695 187.674 32.108 187.674 32.2501C187.674 32.3921 187.717 32.5307 187.799 32.647L190.442 36.419L193.087 32.6408C193.169 32.5244 193.212 32.3858 193.212 32.2438C193.212 32.1018 193.169 31.9633 193.087 31.8469L186.846 22.9253C186.782 22.834 186.698 22.7595 186.599 22.7081C186.5 22.6566 186.391 22.6298 186.279 22.6297H182.92C182.809 22.6298 182.7 22.6567 182.601 22.7082C182.502 22.7596 182.417 22.8341 182.353 22.9253L177.91 29.2726L179.603 29.2674L183.074 24.305C183.138 24.2142 183.223 24.14 183.322 24.0888C183.421 24.0375 183.53 24.0107 183.641 24.0105H185.558C185.67 24.0106 185.779 24.0374 185.878 24.0889C185.977 24.1403 186.061 24.2148 186.125 24.3061L186.4 24.6973C186.481 24.8137 186.525 24.9523 186.525 25.0943C186.525 25.2363 186.481 25.3748 186.4 25.4912L181.581 32.3755C181.517 32.4665 181.432 32.5408 181.333 32.5921C181.235 32.6433 181.125 32.6701 181.014 32.6699H172.707C172.58 32.6697 172.456 32.6348 172.348 32.5691C172.24 32.5033 172.152 32.4092 172.093 32.2969C172.035 32.1847 172.009 32.0585 172.017 31.9322C172.025 31.8059 172.067 31.6843 172.14 31.5805L179.317 21.3166C179.398 21.2002 179.442 21.0616 179.442 20.9196C179.442 20.7776 179.398 20.639 179.317 20.5226L172.14 10.265C172.067 10.1613 172.024 10.0396 172.016 9.91313C172.007 9.78669 172.034 9.66039 172.092 9.548C172.151 9.43561 172.239 9.34144 172.347 9.27576C172.456 9.21008 172.58 9.17541 172.707 9.17554H181.02C181.131 9.17563 181.241 9.20253 181.34 9.25397C181.438 9.30541 181.523 9.37987 181.587 9.47105L186.679 16.7465C186.752 16.8503 186.795 16.9722 186.803 17.0987C186.811 17.2253 186.785 17.3518 186.726 17.4642C186.667 17.5766 186.578 17.6707 186.47 17.7361C186.361 17.8015 186.236 17.8357 186.11 17.8349Z" fill="#EC1E24"/>
<path d="M194.792 24.0085H197.258C197.37 24.0086 197.479 24.0355 197.578 24.0869C197.677 24.1383 197.762 24.2128 197.825 24.304L201.296 29.2622H202.987L198.546 22.9149C198.482 22.8236 198.398 22.7491 198.299 22.6977C198.2 22.6462 198.091 22.6193 197.979 22.6193H192.852C192.741 22.6194 192.631 22.5926 192.533 22.5414C192.434 22.4901 192.349 22.4159 192.285 22.3249L183.641 9.99549C183.56 9.87915 183.516 9.74055 183.516 9.59852C183.516 9.45648 183.56 9.31789 183.641 9.20155L189.875 0.295552C189.939 0.204315 190.024 0.129828 190.123 0.0784005C190.221 0.0269733 190.331 0.00012207 190.443 0.00012207C190.554 0.00012207 190.664 0.0269733 190.762 0.0784005C190.861 0.129828 190.946 0.204315 191.01 0.295552L197.244 9.20155C197.325 9.31795 197.369 9.45652 197.369 9.59852C197.369 9.74052 197.325 9.87909 197.244 9.99549L193.932 14.7258C193.868 14.8168 193.783 14.8911 193.684 14.9424C193.586 14.9937 193.476 15.0205 193.365 15.0205C193.254 15.0205 193.144 14.9937 193.046 14.9424C192.947 14.8911 192.862 14.8168 192.798 14.7258L191.565 12.9642C191.484 12.8478 191.441 12.7092 191.441 12.5672C191.441 12.4252 191.484 12.2866 191.565 12.1702L193.086 9.99757C193.168 9.88123 193.211 9.74263 193.211 9.6006C193.211 9.45856 193.168 9.31997 193.086 9.20363L190.442 5.4223L187.797 9.20155C187.715 9.31789 187.672 9.45648 187.672 9.59852C187.672 9.74055 187.715 9.87915 187.797 9.99549L194.059 18.9233C194.123 19.0142 194.208 19.0884 194.306 19.1396C194.405 19.1908 194.515 19.2177 194.626 19.2178H197.963C198.074 19.2178 198.184 19.1909 198.282 19.1395C198.381 19.088 198.466 19.0135 198.53 18.9223L202.97 12.575H201.278L197.806 17.5363C197.742 17.6273 197.657 17.7015 197.558 17.7528C197.459 17.804 197.35 17.8308 197.239 17.8308H195.332C195.221 17.8308 195.111 17.8039 195.012 17.7524C194.914 17.701 194.829 17.6265 194.765 17.5353L194.485 17.1357C194.404 17.0195 194.36 16.8808 194.36 16.7387C194.36 16.5966 194.404 16.458 194.485 16.3418L199.301 9.46897C199.365 9.37765 199.45 9.3031 199.549 9.25165C199.648 9.20021 199.758 9.17338 199.869 9.17346H208.181C208.308 9.17356 208.432 9.20842 208.541 9.27423C208.649 9.34004 208.737 9.43429 208.796 9.54672C208.854 9.65915 208.881 9.78547 208.872 9.91193C208.864 10.0384 208.821 10.1601 208.748 10.2639L201.571 20.5216C201.489 20.6381 201.446 20.7768 201.446 20.9191C201.446 21.0613 201.489 21.2001 201.571 21.3166L208.767 31.5774C208.841 31.6816 208.886 31.8043 208.894 31.9321C208.903 32.0598 208.877 32.1875 208.817 32.3009C208.758 32.4144 208.669 32.5093 208.559 32.575C208.449 32.6406 208.323 32.6746 208.195 32.6731H199.885C199.773 32.6731 199.664 32.6463 199.565 32.5949C199.466 32.5434 199.381 32.4689 199.317 32.3775L194.22 25.1031C194.146 24.999 194.101 24.8763 194.092 24.7486C194.084 24.6209 194.11 24.4932 194.17 24.3798C194.229 24.2663 194.318 24.1715 194.428 24.106C194.538 24.0404 194.664 24.0067 194.792 24.0085Z" fill="#EC1E24"/>
</g>
<defs>
<clipPath id="clip0">
<rect width="208.889" height="80" fill="white"/>
</clipPath>
</defs>
</svg>
