<svg width="240" height="95" viewBox="0 0 240 95" fill="none" xmlns="http://www.w3.org/2000/svg">
<path d="M5.73408 47.157H0V40.6016H19.2583V47.157H13.4482V70.2414H5.73408V47.157Z" fill="white"/>
<path d="M20.3793 40.5969H27.8512V46.1608H20.3793V40.5969ZM20.3793 47.7798H27.8512V70.2415H20.3793V47.7798Z" fill="white"/>
<path d="M37.7688 60.2772V63.2248C37.7688 65.2453 38.4468 66.2555 39.8027 66.2555C40.5219 66.2555 41.0548 65.9648 41.4012 65.3834C41.7476 64.802 41.9204 63.7918 41.9196 62.3527H48.6437C48.5875 65.1762 47.8682 67.2728 46.4858 68.6424C45.1034 70.012 42.8897 70.6972 39.8448 70.698C36.2756 70.698 33.792 69.8329 32.394 68.1027C30.996 66.3726 30.2973 63.3489 30.2981 59.0317C30.2981 54.7699 31.0393 51.7318 32.5215 49.9173C34.0038 48.1029 36.4457 47.1964 39.8471 47.198C42.9459 47.198 45.2215 48.0077 46.6742 49.627C48.1268 51.2464 48.8531 54.0351 48.8531 57.9934V60.2772H37.7688ZM41.8786 55.212C41.8786 53.993 41.7265 53.1139 41.4222 52.5746C41.118 52.0353 40.5781 51.7657 39.8027 51.7657C39.0561 51.7657 38.5306 52.0353 38.2264 52.5746C37.9221 53.1139 37.7696 53.993 37.7688 55.212V56.2082H41.8786V55.212Z" fill="white"/>
<path d="M50.9257 47.7798H58.1483V50.5202H58.2314C59.1987 48.3054 61.011 47.198 63.6682 47.198C65.4945 47.198 66.9265 47.6549 67.9641 48.5688C69.0017 49.4826 69.5205 51.0602 69.5205 53.3016V70.2415H62.0498V55.4192C62.0498 54.478 61.9113 53.7999 61.6344 53.3847C61.357 52.9691 60.8878 52.7619 60.2231 52.7619C59.5584 52.7619 59.088 52.9691 58.8118 53.3847C58.5356 53.8002 58.394 54.478 58.394 55.4192V70.2415H50.9257V47.7798Z" fill="white"/>
<path d="M72.8404 40.5969H81.4731L86.4547 58.8655H86.5378V40.5969H93.7592V70.2415H85.2915L80.1425 51.9319H80.0606V70.2415H72.8404V40.5969Z" fill="white"/>
<path d="M108.576 47.2239H115.549V69.8682C115.549 75.1265 112.422 77.7561 106.169 77.7569C104.426 77.7569 102.959 77.5977 101.769 77.2793C100.585 76.9653 99.5268 76.2927 98.7396 75.3536C97.9103 74.3844 97.4813 73.0834 97.4524 71.4508H104.176C104.176 72.6128 104.801 73.1938 106.049 73.1938C106.741 73.1938 107.294 73.014 107.709 72.6542C108.124 72.2944 108.332 71.5472 108.332 70.4125V66.2557H108.245C107.415 68.497 105.727 69.6176 103.181 69.6176C98.8118 69.6176 96.6274 65.9224 96.6274 58.532C96.6274 54.4075 97.2086 51.4873 98.371 49.7711C99.5334 48.055 101.263 47.1966 103.559 47.1958C106.104 47.1958 107.751 48.4277 108.498 50.8914H108.581L108.576 47.2239ZM104.093 58.4091C104.093 60.6504 104.26 62.1519 104.592 62.9136C104.924 63.6752 105.479 64.0557 106.256 64.0549C107.003 64.0549 107.535 63.6815 107.853 62.9346C108.172 62.1878 108.331 60.6793 108.331 58.4091C108.331 56.1943 108.165 54.6994 107.832 53.9245C107.5 53.1495 106.974 52.7617 106.256 52.7609C105.508 52.7609 104.962 53.1483 104.618 53.9233C104.274 54.6982 104.099 56.1935 104.093 58.4091Z" fill="white"/>
<path d="M129.577 70.2416C129.439 69.8818 129.287 69.0374 129.121 67.7084H129.038C128.208 69.7015 126.52 70.6981 123.974 70.6981C119.823 70.6981 117.748 68.5391 117.749 64.2211C117.749 62.114 118.198 60.5224 119.098 59.4462C119.997 58.37 121.623 57.5537 123.974 56.9973L126.921 56.2949C127.724 56.1014 128.291 55.8177 128.622 55.4439C128.954 55.0701 129.12 54.537 129.121 53.8448C129.121 52.4612 128.485 51.7693 127.212 51.7693C126.465 51.7693 125.932 51.9769 125.614 52.3921C125.295 52.8073 125.123 53.5935 125.097 54.7509H118.622C118.622 53.2291 118.898 51.9352 119.451 50.8691C120.005 49.8031 120.746 49.0227 121.675 48.5279C122.529 48.0582 123.444 47.7099 124.394 47.4931C125.322 47.2943 126.268 47.1965 127.217 47.2016C130.093 47.2016 132.293 47.7276 133.816 48.7796C135.339 49.8316 136.099 51.7127 136.097 54.4231V65.3835C136.097 67.7365 136.331 69.3558 136.799 70.2416H129.577ZM126.797 65.7932C128.346 65.7932 129.121 64.5614 129.121 62.0976V59.4052H129.038C128.899 59.5994 128.703 59.7448 128.477 59.8208C128.243 59.9027 127.925 59.9925 127.524 60.09C127.172 60.1683 126.831 60.2861 126.507 60.4412C125.483 60.9094 124.971 61.8779 124.97 63.3467C124.97 64.0943 125.136 64.6894 125.469 65.1318C125.618 65.3437 125.818 65.5155 126.049 65.6319C126.281 65.7483 126.538 65.8057 126.797 65.7991V65.7932Z" fill="white"/>
<path d="M140.001 72.3591C140.547 72.4774 141.104 72.5331 141.662 72.5253C142.492 72.5253 143.116 72.3243 143.534 71.9224C143.949 71.5209 144.15 70.8232 144.15 70.4908C144.15 70.2965 144.039 69.7841 143.819 68.9538L137.753 47.2308L145.516 47.198L147.885 62.9345H147.968L150.206 47.2308H157.738L151.58 70.8607C150.943 73.3787 150.077 75.4342 148.971 76.3625C147.865 77.2908 146.273 77.7532 144.198 77.7532C142.537 77.7532 141.14 77.6978 140.006 77.587L140.001 72.3591Z" fill="white"/>
<path d="M156.764 62.0203H163.736V70.2415H156.764V62.0203Z" fill="white"/>
<path d="M165.393 47.2402H173.046L175.233 63.9308H175.316L177.46 47.2426H185.242L179.629 70.2416H170.83L165.393 47.2402Z" fill="white"/>
<path d="M186.356 47.2403H193.578V50.518H193.661C194.63 48.3032 196.442 47.1958 199.099 47.1958C200.924 47.1958 202.356 47.6527 203.395 48.5666C204.433 49.4804 204.952 51.058 204.951 53.2994V70.2416H197.479V55.4193C197.479 54.4782 197.341 53.8 197.065 53.3848C196.789 52.9696 196.318 52.7617 195.654 52.7609C194.989 52.7609 194.519 52.9685 194.242 53.3837C193.966 53.7988 193.828 54.477 193.827 55.4182V70.2416H186.356V47.2403Z" fill="white"/>
<path d="M6.44557 84.4692H4.14609V92.2104H2.26086V84.4692H0V82.9041H6.44557V84.4692Z" fill="white"/>
<path d="M10.298 92.2102C10.2277 92.0372 10.1763 91.857 10.1447 91.6729C9.9983 91.8848 9.80127 92.0566 9.57152 92.1727C9.34178 92.2888 9.08663 92.3456 8.82933 92.3378C8.56268 92.3457 8.29725 92.2988 8.04947 92.1999C7.80169 92.101 7.57682 91.9524 7.38879 91.7631C7.19759 91.5666 7.04836 91.3333 6.95018 91.0773C6.852 90.8213 6.80694 90.548 6.81773 90.2741C6.81773 89.5491 7.04865 88.9887 7.5105 88.5931C7.97234 88.1974 8.63781 87.9953 9.50689 87.9867H10.0557V87.4306C10.0557 87.1193 10.0019 86.9004 9.89657 86.7728C9.83859 86.7069 9.76619 86.6553 9.68499 86.622C9.6038 86.5887 9.51602 86.5746 9.42849 86.5808C8.97678 86.5808 8.75132 86.8449 8.7521 87.3733H6.94645C6.93968 87.0726 7.00076 86.7743 7.12516 86.5005C7.24955 86.2266 7.43407 85.9844 7.66497 85.7918C8.14398 85.3766 8.74976 85.1686 9.48232 85.1679C10.2391 85.1679 10.8242 85.363 11.2376 85.7532C11.6511 86.1434 11.8586 86.7068 11.8602 87.4435V90.6955C11.868 91.2925 11.953 91.7607 12.1153 92.1002V92.2102H10.298ZM10.3307 84.3672H8.80359L7.04241 82.3923H9.06689L10.3307 84.3672ZM9.23306 90.9226C9.41089 90.9296 9.58739 90.8892 9.74444 90.8055C9.87092 90.7375 9.97834 90.6389 10.0569 90.5187V89.0707H9.62274C9.48769 89.0637 9.35275 89.0863 9.2274 89.1371C9.10205 89.1879 8.98934 89.2655 8.89721 89.3645C8.71254 89.5832 8.61798 89.864 8.63274 90.15C8.63274 90.665 8.83284 90.9226 9.23306 90.9226Z" fill="white"/>
<path d="M13.8285 83.5043C13.824 83.3772 13.8454 83.2505 13.8915 83.132C13.9376 83.0135 14.0073 82.9056 14.0964 82.8149C14.2945 82.6413 14.5488 82.5457 14.812 82.5457C15.0753 82.5457 15.3296 82.6413 15.5276 82.8149C15.6167 82.9056 15.6865 83.0135 15.7325 83.132C15.7786 83.2505 15.8001 83.3772 15.7956 83.5043C15.8002 83.6364 15.7781 83.768 15.7307 83.8914C15.6833 84.0147 15.6116 84.1273 15.5198 84.2223C15.428 84.3173 15.3181 84.3929 15.1965 84.4445C15.0749 84.4962 14.9441 84.5228 14.812 84.5228C14.6799 84.5228 14.5492 84.4962 14.4276 84.4445C14.306 84.3929 14.196 84.3173 14.1042 84.2223C14.0124 84.1273 13.9407 84.0147 13.8933 83.8914C13.846 83.768 13.8239 83.6364 13.8285 83.5043ZM15.7254 92.2102H13.9115V85.2942H15.7254V92.2102Z" fill="white"/>
<path d="M23.945 90.8336C24.4677 90.8336 24.7337 90.493 24.7431 89.8117H26.4469C26.4384 90.5656 26.2043 91.1747 25.7448 91.639C25.2853 92.1034 24.6975 92.3375 23.9813 92.3414C23.0919 92.3414 22.4128 92.0643 21.9439 91.5102C21.4751 90.9562 21.2367 90.1406 21.2289 89.0637V88.5135C21.2289 87.4272 21.4599 86.5988 21.9217 86.0283C22.3835 85.4578 23.0662 85.1722 23.9696 85.1714C24.731 85.1714 25.3313 85.4055 25.7705 85.8738C26.2098 86.342 26.4352 87.0104 26.4469 87.879H24.7431C24.7431 87.4915 24.6752 87.193 24.5512 86.9847C24.4882 86.8805 24.3975 86.796 24.2892 86.7405C24.1809 86.6851 24.0592 86.661 23.938 86.6709C23.6259 86.6709 23.4005 86.7829 23.2616 87.0069C23.1227 87.2309 23.0502 87.6644 23.0439 88.3075V89.0098C23.0305 89.4046 23.0583 89.7997 23.127 90.1886C23.1628 90.3781 23.2593 90.5507 23.402 90.6803C23.5596 90.7931 23.7517 90.8473 23.945 90.8336Z" fill="white"/>
<path d="M29.8815 85.9006C30.2716 85.4113 30.753 85.1663 31.3256 85.1655C31.9552 85.1655 32.4342 85.3871 32.7626 85.8304C33.0911 86.2737 33.2568 86.9339 33.26 87.8111V92.2102H31.4461V87.831C31.4461 87.426 31.3841 87.1286 31.2577 86.9519C31.1313 86.7751 30.9289 86.6803 30.648 86.6803C30.4908 86.678 30.3361 86.7192 30.2008 86.7993C30.0655 86.8795 29.9551 86.9955 29.8815 87.1345V92.2102H28.0735V82.3923H29.8815V85.9006Z" fill="white"/>
<path d="M37.1533 92.2104H35.3406V85.2945H37.1486L37.1533 92.2104ZM36.6279 82.4944H38.6594L36.8853 84.4692H35.3769L36.6279 82.4944Z" fill="white"/>
<path d="M40.9495 85.2944L41.001 85.978C41.1815 85.7219 41.4221 85.514 41.7015 85.3724C41.981 85.2307 42.2909 85.1598 42.6042 85.1656C43.7923 85.1656 44.4036 85.9987 44.4379 87.6649V92.2104H42.6229V87.7983C42.6229 87.4081 42.5644 87.1241 42.4473 86.9461C42.3303 86.7682 42.1251 86.6796 41.8318 86.6804C41.5026 86.6804 41.2471 86.8486 41.0653 87.1849V92.2104H39.2503V85.2944H40.9495Z" fill="white"/>
<path d="M48.151 85.9006C48.5411 85.4113 49.0224 85.1663 49.5951 85.1655C50.2247 85.1655 50.7037 85.3871 51.0321 85.8304C51.3605 86.2737 51.5267 86.9339 51.5306 87.8111V92.2102H49.7168V87.831C49.7168 87.426 49.6536 87.1329 49.5272 86.9519C49.4008 86.7708 49.1968 86.6803 48.9152 86.6803C48.758 86.6781 48.6033 86.7194 48.4681 86.7995C48.3328 86.8796 48.2223 86.9956 48.1487 87.1345V92.2102H46.3407V82.3923H48.1487L48.151 85.9006Z" fill="white"/>
<path d="M62.8794 84.4692H60.5799V92.2104H58.6959V84.4692H56.435V82.9041H62.8794V84.4692Z" fill="white"/>
<path d="M64.5235 83.5045C64.5191 83.3773 64.5408 83.2505 64.587 83.132C64.6333 83.0134 64.7033 82.9056 64.7926 82.815C64.9905 82.6415 65.2446 82.5459 65.5076 82.5459C65.7707 82.5459 66.0248 82.6415 66.2226 82.815C66.312 82.9056 66.3819 83.0134 66.4282 83.132C66.4745 83.2505 66.4961 83.3773 66.4918 83.5045C66.4918 83.7656 66.3881 84.016 66.2035 84.2006C66.019 84.3852 65.7686 84.4889 65.5076 84.4889C65.2466 84.4889 64.9963 84.3852 64.8117 84.2006C64.6272 84.016 64.5235 83.7656 64.5235 83.5045ZM66.4216 92.2103H64.6065V85.2943H66.4216V92.2103Z" fill="white"/>
<path d="M71.2664 92.3357C70.338 92.3357 69.614 92.0586 69.0945 91.5046C68.5749 90.9505 68.3151 90.1584 68.3151 89.1282V88.5815C68.3151 87.489 68.5538 86.6477 69.0313 86.0577C69.5087 85.4677 70.1921 85.1716 71.0815 85.1692C71.9498 85.1692 72.6036 85.447 73.0428 86.0027C73.482 86.5583 73.7051 87.3789 73.7121 88.4645V89.3518H70.1161C70.1418 89.8645 70.2545 90.2399 70.4543 90.4779C70.654 90.716 70.9625 90.833 71.3799 90.8291C71.6606 90.8378 71.9402 90.7882 72.2008 90.6835C72.4614 90.5787 72.6975 90.421 72.8942 90.2204L73.6033 91.3126C73.3532 91.6415 73.0205 91.8984 72.639 92.0571C72.2066 92.2468 71.7386 92.3418 71.2664 92.3357ZM73.0486 84.1789V84.2561H71.6373L70.8381 83.336L70.04 84.2561H68.6603V84.1531L70.3208 82.3972H71.3565L73.0486 84.1789ZM70.9972 92.8145C71.2722 92.8022 71.5419 92.8923 71.7544 93.0673C71.8455 93.1462 71.9187 93.2438 71.9688 93.3535C72.0189 93.4632 72.0449 93.5824 72.0449 93.703C72.0449 93.8236 72.0189 93.9427 71.9688 94.0524C71.9187 94.1621 71.8455 94.2597 71.7544 94.3386C71.5419 94.5136 71.2722 94.6037 70.9972 94.5915C70.7245 94.6032 70.4571 94.5131 70.2471 94.3386C70.1558 94.2598 70.0825 94.1622 70.0323 94.0526C69.982 93.9429 69.956 93.8236 69.956 93.703C69.956 93.5823 69.982 93.4631 70.0323 93.3534C70.0825 93.2437 70.1558 93.1461 70.2471 93.0673C70.4571 92.8929 70.7245 92.8027 70.9972 92.8145ZM70.1289 88.0922H71.9357V87.926C71.9276 87.514 71.8597 87.2002 71.7321 86.9895C71.6046 86.7788 71.3811 86.6699 71.0674 86.6699C70.9332 86.6599 70.7987 86.686 70.6779 86.7455C70.5571 86.805 70.4545 86.8957 70.3805 87.0082C70.2378 87.2318 70.1547 87.5947 70.1289 88.0922Z" fill="white"/>
<path d="M77.0425 85.2944L77.094 85.978C77.2746 85.7219 77.5151 85.514 77.7946 85.3724C78.0741 85.2307 78.384 85.1598 78.6972 85.1656C79.8846 85.1656 80.4955 85.9987 80.5298 87.6649V92.2104H78.7159V87.7983C78.7159 87.4081 78.6574 87.1241 78.5404 86.9461C78.4234 86.7682 78.2178 86.6796 77.9237 86.6804C77.596 86.6804 77.3405 86.8486 77.1572 87.1849V92.2104H75.3434V85.2944H77.0425Z" fill="white"/>
<path d="M88.4172 89.6514L89.2878 85.2944H91.173L89.2796 92.2104H87.5547L85.6519 85.2968H87.543L88.4172 89.6514Z" fill="white"/>
<path d="M95.8678 92.2102C95.797 92.0373 95.7456 91.8571 95.7145 91.6729C95.5681 91.8847 95.3711 92.0565 95.1414 92.1726C94.9116 92.2888 94.6565 92.3456 94.3992 92.3378C94.1325 92.3457 93.8671 92.2988 93.6193 92.2C93.3715 92.1011 93.1466 91.9524 92.9586 91.763C92.7673 91.5666 92.6179 91.3333 92.5195 91.0774C92.4211 90.8214 92.3758 90.548 92.3864 90.274C92.3864 89.549 92.6177 88.9887 93.0803 88.593C93.543 88.1973 94.208 87.9952 95.0756 87.9866H95.6256V87.4306C95.6256 87.1184 95.5721 86.8991 95.4652 86.7727C95.4073 86.7068 95.3349 86.6552 95.2537 86.6219C95.1725 86.5886 95.0847 86.5745 94.9972 86.5807C94.5455 86.5807 94.3196 86.8449 94.3196 87.3732H92.5139C92.5072 87.0725 92.5683 86.7742 92.6927 86.5004C92.8171 86.2266 93.0016 85.9844 93.2325 85.7917C93.7123 85.3766 94.318 85.1686 95.0498 85.1678C95.8081 85.1678 96.3932 85.3629 96.8052 85.7531C97.2171 86.1433 97.4246 86.7068 97.4277 87.4435V90.6954C97.4371 91.2924 97.5213 91.7583 97.684 92.1002V92.2102H95.8678ZM95.8994 84.3671H94.3781L92.6146 82.3853H94.6356L95.8994 84.3671ZM94.8017 90.9225C94.9792 90.9296 95.1553 90.8892 95.3119 90.8055C95.4387 90.7375 95.5465 90.6389 95.6256 90.5187V89.0706H95.1914C95.0564 89.0635 94.9214 89.0862 94.796 89.1369C94.6707 89.1877 94.558 89.2654 94.4659 89.3644C94.2816 89.5833 94.1875 89.8642 94.2026 90.1499C94.2026 90.665 94.4023 90.9225 94.8017 90.9225Z" fill="white"/>
<path d="M109.658 92.2104H107.777L105.031 86.108V92.2104H103.158V82.9041H105.031L107.783 89.0123V82.9041H109.655L109.658 92.2104Z" fill="white"/>
<path d="M111.513 88.5405C111.513 87.4074 111.717 86.5618 112.126 86.0038C112.535 85.4458 113.107 85.1664 113.844 85.1657C114.129 85.1541 114.412 85.2164 114.666 85.3464C114.92 85.4764 115.136 85.6698 115.294 85.9078L115.364 85.2944H116.993V92.2104C116.993 93.0915 116.746 93.7654 116.252 94.2321C115.758 94.6987 115.049 94.9329 114.126 94.9344C113.715 94.9279 113.309 94.8494 112.926 94.7026C112.57 94.5922 112.248 94.3932 111.99 94.1244L112.596 92.8718C112.785 93.0629 113.011 93.2121 113.261 93.3096C113.505 93.4169 113.768 93.4746 114.034 93.4794C114.438 93.4794 114.73 93.3822 114.906 93.189C115.083 92.9959 115.173 92.6822 115.178 92.2525V91.6579C115.025 91.8718 114.822 92.0453 114.587 92.1634C114.353 92.2815 114.092 92.3406 113.83 92.3357C113.092 92.3357 112.523 92.0493 112.121 91.4764C111.719 90.9036 111.517 90.0947 111.513 89.0498V88.5405ZM113.321 88.9936C113.321 89.6327 113.403 90.0982 113.569 90.3901C113.646 90.5306 113.761 90.6464 113.901 90.7239C114.042 90.8014 114.201 90.8375 114.361 90.8279C114.521 90.8375 114.68 90.8055 114.824 90.7349C114.967 90.6643 115.09 90.5576 115.18 90.4252V87.1218C115.097 86.9822 114.977 86.8676 114.834 86.79C114.692 86.7124 114.53 86.6745 114.368 86.6804C114.208 86.6723 114.048 86.7093 113.908 86.7874C113.767 86.8654 113.651 86.9812 113.573 87.1218C113.4 87.4152 113.314 87.8881 113.315 88.5405L113.321 88.9936Z" fill="white"/>
<path d="M122.246 92.2104C122.175 92.0373 122.124 91.8571 122.092 91.673C121.946 91.8849 121.749 92.0567 121.519 92.1728C121.29 92.289 121.034 92.3457 120.777 92.338C120.51 92.3458 120.245 92.2989 119.997 92.2C119.749 92.1012 119.525 91.9525 119.337 91.7632C119.145 91.5667 118.996 91.3334 118.898 91.0774C118.8 90.8214 118.755 90.5481 118.765 90.2742C118.765 89.5492 118.996 88.9888 119.458 88.5932C119.92 88.1975 120.586 87.9954 121.455 87.9868H122.003V87.4308C122.003 87.1186 121.95 86.8993 121.843 86.7729C121.785 86.7068 121.713 86.655 121.632 86.6217C121.551 86.5884 121.463 86.5744 121.375 86.5809C120.923 86.5809 120.698 86.8451 120.698 87.3734H118.894C118.887 87.0727 118.948 86.7742 119.073 86.5004C119.197 86.2266 119.382 85.9844 119.613 85.7919C120.092 85.3767 120.698 85.1687 121.43 85.168C122.188 85.168 122.773 85.3631 123.185 85.7533C123.598 86.1435 123.806 86.7069 123.808 87.4436V90.6956C123.817 91.2926 123.902 91.7608 124.063 92.1003V92.2104H122.246ZM121.18 90.9227C121.357 90.9299 121.533 90.8895 121.69 90.8056C121.817 90.738 121.925 90.6393 122.003 90.5188V89.0708H121.569C121.434 89.0638 121.299 89.0864 121.174 89.1372C121.049 89.188 120.936 89.2656 120.844 89.3646C120.659 89.5833 120.565 89.8642 120.579 90.1501C120.579 90.6652 120.779 90.9227 121.18 90.9227Z" fill="white"/>
<path d="M127.896 89.1983L128.815 85.2943H130.744L128.47 93.2428C128.13 94.4134 127.489 94.9987 126.548 94.9987C126.296 94.9944 126.047 94.955 125.807 94.8816V93.4664H126.017C126.241 93.4823 126.464 93.4252 126.653 93.3037C126.819 93.1554 126.933 92.9569 126.976 92.7382L127.116 92.27L125.127 85.2861H127.068L127.896 89.1983Z" fill="white"/>
<path d="M138.338 90.8336C138.862 90.8336 139.128 90.493 139.137 89.8117H140.836C140.827 90.5656 140.593 91.1747 140.134 91.639C139.675 92.1034 139.087 92.3375 138.37 92.3414C137.479 92.3414 136.8 92.0643 136.333 91.5102C135.866 90.9562 135.627 90.1406 135.617 89.0637V88.5135C135.617 87.4272 135.848 86.5988 136.311 86.0283C136.773 85.4578 137.456 85.1722 138.358 85.1714C139.12 85.1714 139.72 85.4055 140.158 85.8738C140.597 86.342 140.823 87.0104 140.836 87.879H139.139C139.152 87.5694 139.086 87.2616 138.947 86.9847C138.884 86.8806 138.794 86.7961 138.685 86.7407C138.577 86.6853 138.455 86.6611 138.334 86.6709C138.018 86.6709 137.793 86.788 137.657 87.0069C137.52 87.2258 137.448 87.6636 137.44 88.3075V89.0098C137.426 89.4046 137.454 89.7997 137.523 90.1886C137.559 90.3779 137.655 90.5506 137.797 90.6803C137.954 90.7924 138.145 90.8466 138.338 90.8336Z" fill="white"/>
<path d="M144.274 85.9006C144.664 85.4113 145.145 85.1663 145.718 85.1655C146.348 85.1655 146.827 85.3871 147.155 85.8304C147.483 86.2737 147.649 86.9339 147.654 87.8111V92.2102H145.84V87.831C145.84 87.426 145.777 87.1329 145.651 86.9519C145.525 86.7704 145.323 86.6803 145.041 86.6803C144.883 86.6781 144.729 86.7194 144.593 86.7995C144.458 86.8796 144.348 86.9956 144.274 87.1345V92.2102H142.467V82.3923H144.274V85.9006Z" fill="white"/>
<path d="M149.394 88.5275C149.394 87.4787 149.641 86.6565 150.135 86.061C150.628 85.4656 151.312 85.1671 152.185 85.1655C153.066 85.1655 153.754 85.464 154.248 86.061C154.742 86.6581 154.989 87.4845 154.989 88.5404V88.9805C154.989 90.0333 154.744 90.8555 154.255 91.447C153.766 92.0386 153.08 92.3347 152.198 92.3355C151.312 92.3355 150.623 92.0382 150.131 91.4435C149.639 90.8488 149.393 90.0236 149.394 88.9677V88.5275ZM151.208 88.9805C151.208 90.2167 151.538 90.8344 152.198 90.8336C152.808 90.8336 153.136 90.3182 153.182 89.2873V88.5275C153.182 87.8962 153.094 87.4279 152.92 87.1228C152.852 86.9848 152.746 86.8687 152.615 86.788C152.484 86.7073 152.333 86.6651 152.179 86.6663C151.872 86.6663 151.633 86.8184 151.46 87.1228C151.288 87.4271 151.202 87.8954 151.202 88.5275L151.208 88.9805Z" fill="white"/>
<path d="M162.135 85.2942L162.187 85.9322C162.374 85.6863 162.617 85.4885 162.896 85.3552C163.174 85.2219 163.481 85.1568 163.79 85.1654C164.48 85.1654 164.968 85.4776 165.253 86.1019C165.425 85.8081 165.673 85.5661 165.971 85.4013C166.269 85.2365 166.606 85.155 166.946 85.1654C168.155 85.1654 168.775 86.0028 168.804 87.6776V92.2102H166.996V87.7923C166.996 87.3919 166.941 87.1063 166.83 86.9354C166.719 86.7645 166.532 86.6794 166.268 86.6802C165.933 86.6802 165.682 86.887 165.515 87.3006L165.528 87.5172V92.2102H163.72V87.8052C163.72 87.4083 163.667 87.1227 163.56 86.9459C163.454 86.7692 163.264 86.6802 162.992 86.6802C162.68 86.6802 162.433 86.8484 162.251 87.1847V92.2102H160.443V85.2942H162.135Z" fill="white"/>
<path d="M170.583 88.5275C170.583 87.4787 170.83 86.6565 171.324 86.061C171.818 85.4656 172.501 85.1671 173.374 85.1655C174.255 85.1655 174.942 85.464 175.437 86.061C175.932 86.6581 176.179 87.4845 176.178 88.5404V88.9805C176.178 90.0333 175.933 90.8555 175.443 91.447C174.953 92.0386 174.268 92.3347 173.387 92.3355C172.501 92.3355 171.812 92.0382 171.32 91.4435C170.829 90.8488 170.583 90.0236 170.583 88.9677V88.5275ZM173.368 92.8588C173.643 92.8465 173.912 92.9366 174.124 93.1116C174.215 93.1904 174.289 93.288 174.339 93.3977C174.389 93.5074 174.415 93.6266 174.415 93.7473C174.415 93.8679 174.389 93.9872 174.339 94.0969C174.289 94.2066 174.215 94.3041 174.124 94.3829C173.907 94.5463 173.642 94.6346 173.37 94.6346C173.099 94.6346 172.834 94.5463 172.617 94.3829C172.526 94.304 172.452 94.2064 172.402 94.0967C172.352 93.987 172.326 93.8679 172.326 93.7473C172.326 93.6267 172.352 93.5075 172.402 93.3978C172.452 93.2881 172.526 93.1905 172.617 93.1116C172.826 92.9352 173.094 92.843 173.368 92.8529V92.8588ZM172.397 88.9864C172.397 90.2226 172.727 90.8403 173.387 90.8395C173.995 90.8395 174.323 90.324 174.37 89.2931L174.377 88.5334C174.377 87.902 174.289 87.4338 174.115 87.1286C174.047 86.9906 173.941 86.8746 173.81 86.7939C173.679 86.7131 173.528 86.6709 173.374 86.6721C173.067 86.6721 172.828 86.8243 172.655 87.1286C172.483 87.433 172.397 87.9012 172.397 88.5334V88.9864Z" fill="white"/>
<path d="M177.956 83.5043C177.952 83.3772 177.973 83.2505 178.019 83.132C178.065 83.0135 178.135 82.9056 178.224 82.8149C178.422 82.6413 178.677 82.5457 178.94 82.5457C179.203 82.5457 179.457 82.6413 179.656 82.8149C179.745 82.9056 179.814 83.0135 179.86 83.132C179.907 83.2505 179.928 83.3772 179.923 83.5043C179.928 83.6364 179.906 83.768 179.859 83.8914C179.811 84.0147 179.74 84.1273 179.648 84.2223C179.556 84.3173 179.446 84.3929 179.324 84.4445C179.203 84.4962 179.072 84.5228 178.94 84.5228C178.808 84.5228 178.677 84.4962 178.555 84.4445C178.434 84.3929 178.324 84.3173 178.232 84.2223C178.14 84.1273 178.069 84.0147 178.021 83.8914C177.974 83.768 177.952 83.6364 177.956 83.5043ZM179.853 92.2102H178.039V85.2942H179.853V92.2102Z" fill="white"/>
<path d="M187.235 85.2944L187.285 85.978C187.466 85.722 187.707 85.5141 187.986 85.3725C188.266 85.2309 188.575 85.1598 188.889 85.1656C190.078 85.1656 190.689 85.9987 190.722 87.6649V92.2104H188.909V87.7983C188.909 87.4081 188.85 87.124 188.733 86.9461C188.616 86.7694 188.41 86.6804 188.116 86.6804C187.788 86.6804 187.532 86.8486 187.35 87.1849V92.2104H185.536V85.2944H187.235Z" fill="white"/>
<path d="M194.432 85.9006C194.822 85.4113 195.303 85.1663 195.875 85.1655C196.506 85.1655 196.985 85.3871 197.312 85.8304C197.639 86.2737 197.805 86.9339 197.81 87.8111V92.2102H195.997V87.831C195.997 87.426 195.934 87.1329 195.808 86.9519C195.682 86.7704 195.479 86.6803 195.197 86.6803C195.04 86.6779 194.886 86.7191 194.751 86.7993C194.615 86.8795 194.505 86.9955 194.432 87.1345V92.2102H192.624V82.3923H194.432V85.9006Z" fill="white"/>
<path d="M203.045 92.2102C202.973 92.0375 202.922 91.8572 202.891 91.6729C202.745 91.8846 202.547 92.0564 202.318 92.1725C202.088 92.2886 201.832 92.3454 201.575 92.3378C201.308 92.3457 201.043 92.2987 200.795 92.1999C200.547 92.101 200.322 91.9523 200.134 91.763C199.943 91.5664 199.794 91.3331 199.696 91.0771C199.598 90.8212 199.553 90.5479 199.563 90.274C199.563 89.549 199.794 88.9887 200.256 88.593C200.718 88.1973 201.383 87.9952 202.253 87.9866H202.799V87.4306C202.799 87.1184 202.746 86.8991 202.64 86.7727C202.582 86.7068 202.509 86.6552 202.428 86.6219C202.347 86.5886 202.259 86.5745 202.172 86.5807C201.721 86.5807 201.495 86.8449 201.495 87.3732H199.687C199.681 87.0725 199.742 86.7742 199.866 86.5004C199.99 86.2266 200.175 85.9844 200.406 85.7917C200.886 85.3766 201.491 85.1686 202.223 85.1678C202.982 85.1678 203.567 85.3629 203.979 85.7531C204.391 86.1433 204.598 86.7068 204.601 87.4435V90.6954C204.609 91.2924 204.694 91.7607 204.856 92.1002V92.2102H203.045ZM203.076 84.3671H201.555L199.793 82.3853H201.817L203.076 84.3671ZM201.98 90.9225C202.158 90.9298 202.334 90.8893 202.491 90.8055C202.618 90.7375 202.725 90.6389 202.804 90.5187V89.0706H202.37C202.235 89.0635 202.1 89.0862 201.975 89.137C201.85 89.1877 201.737 89.2654 201.645 89.3644C201.46 89.583 201.365 89.8638 201.38 90.1499C201.378 90.665 201.578 90.9225 201.98 90.9225Z" fill="white"/>
<path d="M203.639 42.7535C203.925 42.7538 204.207 42.6851 204.461 42.5533C204.715 42.4215 204.933 42.2305 205.097 41.9965L205.097 41.9957L205.469 41.4649L210.832 23.2644L205.105 15.0813L205.105 15.0813C204.941 14.8471 204.723 14.6559 204.469 14.5238C204.216 14.3916 203.934 14.3225 203.648 14.3223H203.648H194.296M203.639 42.7535L203.64 41.7535V42.7535H203.639ZM203.639 42.7535H194.295H194.293C193.968 42.7528 193.65 42.6632 193.372 42.4943C193.094 42.3254 192.868 42.0837 192.718 41.7954L193.604 41.3343L192.718 41.7954C192.568 41.5071 192.5 41.1833 192.521 40.8591C192.542 40.5348 192.651 40.2225 192.837 39.9559L192.838 39.9548L200.824 28.5344L192.839 17.1222C192.839 17.122 192.838 17.1218 192.838 17.1216C192.651 16.8552 192.541 16.5426 192.52 16.218C192.499 15.8931 192.567 15.5685 192.717 15.2797C192.867 14.9909 193.094 14.7488 193.372 14.5799C193.651 14.4112 193.97 14.322 194.296 14.3223M194.296 14.3223C194.296 14.3223 194.296 14.3223 194.296 14.3223L194.295 15.3223V14.3223H194.296ZM209.373 25.6268H210.184L210.294 25.8097C210.015 25.9774 209.696 26.0653 209.371 26.0641L209.373 25.6268ZM209.373 25.6268V25.0641L209.37 25.6268M210.538 34.224C210.697 33.9864 210.797 33.7145 210.829 33.4317L211.382 34.2217C211.246 34.1888 211.105 34.172 210.964 34.172C210.82 34.172 210.677 34.1896 210.538 34.224ZM213.811 38.9497C213.98 38.7076 214.086 38.4281 214.121 38.1368L216.315 41.274L214.247 44.2281L212.182 41.281L213.811 38.9497ZM211.151 24.1704C211.13 23.8453 211.02 23.5323 210.832 23.2657L211.554 26.6268V25.6268H211.553C211.553 25.6268 211.552 25.6268 211.552 25.6268L210.545 25.6268C210.711 25.4821 210.85 25.3071 210.953 25.1103L210.067 24.647L210.953 25.1103C211.104 24.8212 211.173 24.496 211.151 24.1704Z" fill="#EC1E24" stroke="white" stroke-width="2"/>
<mask id="path-40-outside-1" maskUnits="userSpaceOnUse" x="204.456" y="3" width="33" height="41" fill="black">
<rect fill="white" x="204.456" y="3" width="33" height="41"/>
<path d="M219.141 32.0094H221.916C222.041 32.0095 222.164 32.0398 222.275 32.0976C222.386 32.1555 222.482 32.2393 222.554 32.3418L226.459 37.9198H228.36L223.364 30.7791C223.293 30.6764 223.197 30.5926 223.086 30.5347C222.975 30.4769 222.852 30.4466 222.727 30.4466H216.959C216.834 30.4467 216.71 30.4166 216.599 30.3589C216.488 30.3012 216.393 30.2177 216.321 30.1153L206.596 16.2448C206.505 16.1139 206.456 15.958 206.456 15.7982C206.456 15.6384 206.505 15.4825 206.596 15.3516L213.61 5.33236C213.681 5.22972 213.777 5.14592 213.888 5.08806C213.999 5.03021 214.123 5 214.248 5C214.373 5 214.497 5.03021 214.608 5.08806C214.719 5.14592 214.814 5.22972 214.886 5.33236L221.899 15.3516C221.991 15.4826 222.04 15.6384 222.04 15.7982C222.04 15.9579 221.991 16.1138 221.899 16.2448L218.173 21.5664C218.101 21.6688 218.006 21.7524 217.895 21.8101C217.784 21.8678 217.661 21.8979 217.536 21.8979C217.411 21.8979 217.287 21.8678 217.176 21.8101C217.065 21.7524 216.97 21.6688 216.898 21.5664L215.511 19.5845C215.42 19.4536 215.371 19.2977 215.371 19.1379C215.371 18.9782 215.42 18.8223 215.511 18.6914L217.222 16.2471C217.314 16.1162 217.363 15.9603 217.363 15.8005C217.363 15.6407 217.314 15.4848 217.222 15.354L214.247 11.1L211.271 15.3516C211.18 15.4825 211.131 15.6384 211.131 15.7982C211.131 15.958 211.18 16.1139 211.271 16.2448L218.316 26.2886C218.388 26.3908 218.484 26.4743 218.595 26.5319C218.706 26.5896 218.829 26.6197 218.954 26.6199H222.708C222.833 26.6199 222.957 26.5897 223.068 26.5318C223.179 26.4739 223.274 26.3901 223.346 26.2874L228.341 19.1467H226.437L222.531 24.7282C222.459 24.8306 222.364 24.9141 222.253 24.9718C222.142 25.0294 222.019 25.0595 221.894 25.0595H219.748C219.623 25.0595 219.5 25.0292 219.389 24.9714C219.278 24.9135 219.182 24.8297 219.111 24.727L218.796 24.2775C218.704 24.1468 218.655 23.9908 218.655 23.8309C218.655 23.6711 218.704 23.5151 218.796 23.3843L224.214 15.6525C224.286 15.5497 224.382 15.4658 224.493 15.408C224.604 15.3501 224.728 15.3199 224.853 15.32H234.204C234.347 15.3201 234.486 15.3593 234.608 15.4334C234.73 15.5074 234.829 15.6134 234.895 15.7399C234.961 15.8664 234.991 16.0085 234.981 16.1508C234.972 16.293 234.924 16.43 234.842 16.5468L226.767 28.0867C226.676 28.2177 226.626 28.3738 226.626 28.5338C226.626 28.6939 226.676 28.85 226.767 28.981L234.863 40.5244C234.947 40.6416 234.996 40.7797 235.006 40.9234C235.016 41.0671 234.986 41.2108 234.92 41.3384C234.853 41.4661 234.752 41.5728 234.629 41.6467C234.505 41.7206 234.363 41.7588 234.219 41.7571H224.871C224.745 41.7571 224.622 41.727 224.51 41.6691C224.399 41.6112 224.304 41.5273 224.232 41.4246L218.498 33.2409C218.414 33.1238 218.364 32.9857 218.354 32.842C218.344 32.6984 218.374 32.5547 218.441 32.4271C218.507 32.2995 218.608 32.1929 218.732 32.1191C218.856 32.0454 218.997 32.0074 219.141 32.0094Z"/>
</mask>
<path d="M219.141 32.0094H221.916C222.041 32.0095 222.164 32.0398 222.275 32.0976C222.386 32.1555 222.482 32.2393 222.554 32.3418L226.459 37.9198H228.36L223.364 30.7791C223.293 30.6764 223.197 30.5926 223.086 30.5347C222.975 30.4769 222.852 30.4466 222.727 30.4466H216.959C216.834 30.4467 216.71 30.4166 216.599 30.3589C216.488 30.3012 216.393 30.2177 216.321 30.1153L206.596 16.2448C206.505 16.1139 206.456 15.958 206.456 15.7982C206.456 15.6384 206.505 15.4825 206.596 15.3516L213.61 5.33236C213.681 5.22972 213.777 5.14592 213.888 5.08806C213.999 5.03021 214.123 5 214.248 5C214.373 5 214.497 5.03021 214.608 5.08806C214.719 5.14592 214.814 5.22972 214.886 5.33236L221.899 15.3516C221.991 15.4826 222.04 15.6384 222.04 15.7982C222.04 15.9579 221.991 16.1138 221.899 16.2448L218.173 21.5664C218.101 21.6688 218.006 21.7524 217.895 21.8101C217.784 21.8678 217.661 21.8979 217.536 21.8979C217.411 21.8979 217.287 21.8678 217.176 21.8101C217.065 21.7524 216.97 21.6688 216.898 21.5664L215.511 19.5845C215.42 19.4536 215.371 19.2977 215.371 19.1379C215.371 18.9782 215.42 18.8223 215.511 18.6914L217.222 16.2471C217.314 16.1162 217.363 15.9603 217.363 15.8005C217.363 15.6407 217.314 15.4848 217.222 15.354L214.247 11.1L211.271 15.3516C211.18 15.4825 211.131 15.6384 211.131 15.7982C211.131 15.958 211.18 16.1139 211.271 16.2448L218.316 26.2886C218.388 26.3908 218.484 26.4743 218.595 26.5319C218.706 26.5896 218.829 26.6197 218.954 26.6199H222.708C222.833 26.6199 222.957 26.5897 223.068 26.5318C223.179 26.4739 223.274 26.3901 223.346 26.2874L228.341 19.1467H226.437L222.531 24.7282C222.459 24.8306 222.364 24.9141 222.253 24.9718C222.142 25.0294 222.019 25.0595 221.894 25.0595H219.748C219.623 25.0595 219.5 25.0292 219.389 24.9714C219.278 24.9135 219.182 24.8297 219.111 24.727L218.796 24.2775C218.704 24.1468 218.655 23.9908 218.655 23.8309C218.655 23.6711 218.704 23.5151 218.796 23.3843L224.214 15.6525C224.286 15.5497 224.382 15.4658 224.493 15.408C224.604 15.3501 224.728 15.3199 224.853 15.32H234.204C234.347 15.3201 234.486 15.3593 234.608 15.4334C234.73 15.5074 234.829 15.6134 234.895 15.7399C234.961 15.8664 234.991 16.0085 234.981 16.1508C234.972 16.293 234.924 16.43 234.842 16.5468L226.767 28.0867C226.676 28.2177 226.626 28.3738 226.626 28.5338C226.626 28.6939 226.676 28.85 226.767 28.981L234.863 40.5244C234.947 40.6416 234.996 40.7797 235.006 40.9234C235.016 41.0671 234.986 41.2108 234.92 41.3384C234.853 41.4661 234.752 41.5728 234.629 41.6467C234.505 41.7206 234.363 41.7588 234.219 41.7571H224.871C224.745 41.7571 224.622 41.727 224.51 41.6691C224.399 41.6112 224.304 41.5273 224.232 41.4246L218.498 33.2409C218.414 33.1238 218.364 32.9857 218.354 32.842C218.344 32.6984 218.374 32.5547 218.441 32.4271C218.507 32.2995 218.608 32.1929 218.732 32.1191C218.856 32.0454 218.997 32.0074 219.141 32.0094Z" fill="#EC1E24"/>
<path d="M221.916 32.0094L221.917 30.0094H221.916V32.0094ZM222.554 32.3418L220.915 33.4887L220.915 33.4889L222.554 32.3418ZM226.459 37.9198L224.82 39.0668L225.417 39.9198H226.459V37.9198ZM228.36 37.9198V39.9198H232.2L229.999 36.7733L228.36 37.9198ZM223.364 30.7791L221.725 31.9247L221.726 31.9256L223.364 30.7791ZM222.727 30.4466L222.727 28.4466H222.727V30.4466ZM216.959 30.4466V28.4466H216.958L216.959 30.4466ZM216.321 30.1153L214.683 31.2635L214.685 31.2652L216.321 30.1153ZM206.596 16.2448L204.958 17.3919L204.959 17.3929L206.596 16.2448ZM206.596 15.3516L208.235 16.4987L208.235 16.4985L206.596 15.3516ZM213.61 5.33236L211.971 4.18523L211.971 4.18547L213.61 5.33236ZM214.886 5.33236L216.525 4.18548L216.525 4.18523L214.886 5.33236ZM221.899 15.3516L223.539 14.2062L223.538 14.2047L221.899 15.3516ZM222.04 15.7982H220.04H222.04ZM221.899 16.2448L223.538 17.3919L223.539 17.3902L221.899 16.2448ZM218.173 21.5664L219.81 22.7157L219.812 22.7135L218.173 21.5664ZM217.536 21.8979V19.8979V21.8979ZM216.898 21.5664L215.259 22.713L215.261 22.7157L216.898 21.5664ZM215.511 19.5845L213.872 20.7299L213.872 20.7311L215.511 19.5845ZM215.371 19.1379H217.371H215.371ZM215.511 18.6914L213.873 17.5445L213.872 17.546L215.511 18.6914ZM217.222 16.2471L215.584 15.1L215.583 15.1002L217.222 16.2471ZM217.222 15.354L215.583 16.5001L215.584 16.5011L217.222 15.354ZM214.247 11.1L215.886 9.95383L214.248 7.61103L212.609 9.95311L214.247 11.1ZM211.271 15.3516L212.91 16.4987L212.91 16.4985L211.271 15.3516ZM211.271 16.2448L209.633 17.3919L209.634 17.3932L211.271 16.2448ZM218.316 26.2886L216.679 27.4371L216.682 27.4411L218.316 26.2886ZM218.954 26.6199L218.951 28.6199H218.954V26.6199ZM222.708 26.6199V28.6199H222.708L222.708 26.6199ZM223.346 26.2874L221.707 25.141L221.706 25.1418L223.346 26.2874ZM228.341 19.1467L229.98 20.2932L232.181 17.1467H228.341V19.1467ZM226.437 19.1467V17.1467H225.396L224.799 18L226.437 19.1467ZM222.531 24.7282L224.168 25.8781L224.17 25.875L222.531 24.7282ZM221.894 25.0595L221.894 23.0595H221.894V25.0595ZM219.748 25.0595L219.748 27.0595H219.748V25.0595ZM219.111 24.727L220.75 23.5814L220.749 23.5798L219.111 24.727ZM218.796 24.2775L220.434 23.1303L220.432 23.1269L218.796 24.2775ZM218.655 23.8309H216.655H218.655ZM218.796 23.3843L220.432 24.5349L220.434 24.5321L218.796 23.3843ZM224.214 15.6525L225.852 16.8002L225.853 16.7993L224.214 15.6525ZM224.853 15.32L224.852 17.32H224.853V15.32ZM234.204 15.32L234.206 13.32H234.204V15.32ZM234.842 16.5468L233.203 15.3999L233.203 15.4002L234.842 16.5468ZM226.767 28.0867L228.405 29.2353L228.406 29.2333L226.767 28.0867ZM226.767 28.981L228.405 27.8327L228.405 27.8324L226.767 28.981ZM234.863 40.5244L233.226 41.6728L233.23 41.6796L233.235 41.6865L234.863 40.5244ZM234.219 41.7571L234.243 39.7572L234.231 39.7571H234.219V41.7571ZM224.871 41.7571V39.7571H224.869L224.871 41.7571ZM224.232 41.4246L225.87 40.2777L225.87 40.277L224.232 41.4246ZM218.498 33.2409L220.135 32.0932L220.13 32.0851L220.124 32.077L218.498 33.2409ZM219.141 34.0094H221.916V30.0094H219.141V34.0094ZM221.914 34.0094C221.718 34.0092 221.525 33.9618 221.351 33.8711L223.2 30.3241C222.804 30.1177 222.364 30.0098 221.917 30.0094L221.914 34.0094ZM221.351 33.8711C221.177 33.7805 221.027 33.6494 220.915 33.4887L224.192 31.195C223.936 30.8292 223.596 30.5305 223.2 30.3241L221.351 33.8711ZM220.915 33.4889L224.82 39.0668L228.097 36.7728L224.192 31.1948L220.915 33.4889ZM226.459 39.9198H228.36V35.9198H226.459V39.9198ZM229.999 36.7733L225.003 29.6326L221.726 31.9256L226.721 39.0663L229.999 36.7733ZM225.004 29.6335C224.748 29.2671 224.407 28.9679 224.011 28.7612L222.162 32.3082C221.987 32.2173 221.838 32.0857 221.725 31.9247L225.004 29.6335ZM224.011 28.7612C223.614 28.5546 223.174 28.4466 222.727 28.4466L222.727 32.4466C222.53 32.4466 222.336 32.3991 222.162 32.3082L224.011 28.7612ZM222.727 28.4466H216.959V32.4466H222.727V28.4466ZM216.958 28.4466C217.154 28.4466 217.347 28.4937 217.521 28.5841L215.677 32.1337C216.073 32.3394 216.513 32.4467 216.959 32.4466L216.958 28.4466ZM217.521 28.5841C217.695 28.6744 217.845 28.8053 217.957 28.9655L214.685 31.2652C214.941 31.6301 215.281 31.9281 215.677 32.1337L217.521 28.5841ZM217.959 28.9672L208.234 15.0967L204.959 17.3929L214.683 31.2635L217.959 28.9672ZM208.235 15.0977C208.379 15.3031 208.456 15.5476 208.456 15.7982H204.456C204.456 16.3683 204.631 16.9248 204.958 17.3919L208.235 15.0977ZM208.456 15.7982C208.456 16.0488 208.379 16.2933 208.235 16.4987L204.958 14.2045C204.631 14.6716 204.456 15.2281 204.456 15.7982H208.456ZM208.235 16.4985L215.248 6.47924L211.971 4.18547L204.958 14.2047L208.235 16.4985ZM215.248 6.47949C215.135 6.64012 214.986 6.77137 214.812 6.86202L212.964 3.3141C212.568 3.52047 212.227 3.81932 211.971 4.18523L215.248 6.47949ZM214.812 6.86202C214.638 6.95266 214.444 7 214.248 7V3C213.801 3 213.361 3.10775 212.964 3.3141L214.812 6.86202ZM214.248 7C214.052 7 213.858 6.95266 213.684 6.86202L215.531 3.3141C215.135 3.10775 214.695 3 214.248 3V7ZM213.684 6.86202C213.51 6.77142 213.36 6.6402 213.248 6.47949L216.525 4.18523C216.268 3.81923 215.928 3.52042 215.531 3.3141L213.684 6.86202ZM213.248 6.47924L220.261 16.4985L223.538 14.2047L216.525 4.18548L213.248 6.47924ZM220.26 16.497C220.117 16.292 220.04 16.0481 220.04 15.7982H224.04C224.04 15.2288 223.865 14.6731 223.539 14.2062L220.26 16.497ZM220.04 15.7982C220.04 15.5483 220.117 15.3044 220.26 15.0994L223.539 17.3902C223.865 16.9233 224.04 16.3676 224.04 15.7982H220.04ZM220.261 15.0977L216.535 20.4193L219.812 22.7135L223.538 17.3919L220.261 15.0977ZM216.537 20.4171C216.649 20.2568 216.799 20.1259 216.973 20.0355L218.817 23.5846C219.213 23.3788 219.554 23.0807 219.81 22.7157L216.537 20.4171ZM216.973 20.0355C217.146 19.9451 217.34 19.8979 217.536 19.8979V23.8979C217.982 23.8979 218.422 23.7904 218.817 23.5846L216.973 20.0355ZM217.536 19.8979C217.732 19.8979 217.925 19.9451 218.099 20.0355L216.254 23.5846C216.65 23.7905 217.089 23.8979 217.536 23.8979V19.8979ZM218.099 20.0355C218.273 20.1259 218.422 20.2568 218.535 20.4171L215.261 22.7157C215.517 23.0807 215.858 23.3788 216.254 23.5846L218.099 20.0355ZM218.537 20.4198L217.15 18.4379L213.872 20.7311L215.259 22.713L218.537 20.4198ZM217.151 18.4391C217.294 18.6441 217.371 18.888 217.371 19.1379H213.371C213.371 19.7073 213.545 20.2631 213.872 20.7299L217.151 18.4391ZM217.371 19.1379C217.371 19.3878 217.294 19.6318 217.151 19.8367L213.872 17.546C213.545 18.0128 213.371 18.5686 213.371 19.1379H217.371ZM217.15 19.8382L218.86 17.394L215.583 15.1002L213.873 17.5445L217.15 19.8382ZM218.86 17.3942C219.187 16.9271 219.363 16.3707 219.363 15.8005H215.363C215.363 15.55 215.44 15.3054 215.584 15.1L218.86 17.3942ZM219.363 15.8005C219.363 15.2304 219.187 14.674 218.86 14.2068L215.584 16.5011C215.44 16.2957 215.363 16.0511 215.363 15.8005H219.363ZM218.861 14.2078L215.886 9.95383L212.608 12.2461L215.583 16.5001L218.861 14.2078ZM212.609 9.95311L209.633 14.2048L212.91 16.4985L215.886 12.2468L212.609 9.95311ZM209.633 14.2045C209.306 14.6716 209.131 15.2281 209.131 15.7982H213.131C213.131 16.0488 213.054 16.2933 212.91 16.4987L209.633 14.2045ZM209.131 15.7982C209.131 16.3683 209.306 16.9248 209.633 17.3919L212.91 15.0977C213.054 15.3031 213.131 15.5476 213.131 15.7982H209.131ZM209.634 17.3932L216.679 27.4371L219.954 25.1402L212.909 15.0963L209.634 17.3932ZM216.682 27.4411C216.938 27.8047 217.278 28.1016 217.673 28.3068L219.517 24.7571C219.69 24.847 219.838 24.977 219.951 25.1362L216.682 27.4411ZM217.673 28.3068C218.068 28.5119 218.506 28.6193 218.951 28.6199L218.957 24.6199C219.152 24.6202 219.344 24.6672 219.517 24.7571L217.673 28.3068ZM218.954 28.6199H222.708V24.6199H218.954V28.6199ZM222.708 28.6199C223.155 28.6199 223.596 28.5119 223.992 28.3053L222.143 24.7583C222.317 24.6674 222.511 24.6199 222.708 24.6199L222.708 28.6199ZM223.992 28.3053C224.388 28.0986 224.729 27.7994 224.985 27.4331L221.706 25.1418C221.819 24.9808 221.969 24.8492 222.143 24.7583L223.992 28.3053ZM224.985 27.4339L229.98 20.2932L226.703 18.0002L221.707 25.141L224.985 27.4339ZM228.341 17.1467H226.437V21.1467H228.341V17.1467ZM224.799 18L220.893 23.5814L224.17 25.875L228.076 20.2935L224.799 18ZM220.895 23.5783C221.007 23.4181 221.157 23.2872 221.331 23.1969L223.175 26.7466C223.571 26.541 223.911 26.2431 224.168 25.8781L220.895 23.5783ZM221.331 23.1969C221.505 23.1066 221.698 23.0594 221.894 23.0595L221.893 27.0595C222.339 27.0596 222.779 26.9522 223.175 26.7466L221.331 23.1969ZM221.894 23.0595H219.748V27.0595H221.894V23.0595ZM219.749 23.0595C219.945 23.0595 220.139 23.107 220.313 23.1979L218.464 26.7449C218.861 26.9515 219.301 27.0595 219.748 27.0595L219.749 23.0595ZM220.313 23.1979C220.488 23.2888 220.638 23.4204 220.75 23.5814L217.471 25.8726C217.727 26.239 218.068 26.5382 218.464 26.7449L220.313 23.1979ZM220.749 23.5798L220.434 23.1303L217.158 25.4248L217.472 25.8743L220.749 23.5798ZM220.432 23.1269C220.577 23.3332 220.655 23.579 220.655 23.8309H216.655C216.655 24.4026 216.831 24.9604 217.16 25.4281L220.432 23.1269ZM220.655 23.8309C220.655 24.0828 220.577 24.3287 220.432 24.5349L217.16 22.2338C216.831 22.7015 216.655 23.2593 216.655 23.8309H220.655ZM220.434 24.5321L225.852 16.8002L222.576 14.5047L217.158 22.2366L220.434 24.5321ZM225.853 16.7993C225.74 16.9602 225.59 17.0915 225.416 17.1822L223.57 13.6338C223.173 13.8402 222.832 14.1392 222.576 14.5056L225.853 16.7993ZM225.416 17.1822C225.242 17.2728 225.048 17.3201 224.852 17.32L224.854 13.32C224.407 13.3197 223.966 13.4274 223.57 13.6338L225.416 17.1822ZM224.853 17.32H234.204V13.32H224.853V17.32ZM234.203 17.32C233.979 17.3198 233.76 17.2584 233.569 17.1424L235.647 13.7244C235.213 13.4603 234.714 13.3204 234.206 13.32L234.203 17.32ZM233.569 17.1424C233.379 17.0264 233.223 16.8604 233.12 16.6624L236.67 14.8174C236.435 14.3665 236.081 13.9884 235.647 13.7244L233.569 17.1424ZM233.12 16.6624C233.018 16.4646 232.971 16.2422 232.986 16.0196L236.977 16.282C237.01 15.7748 236.904 15.2683 236.67 14.8174L233.12 16.6624ZM232.986 16.0196C233 15.7969 233.076 15.5826 233.203 15.3999L236.48 17.6937C236.772 17.2774 236.944 16.7891 236.977 16.282L232.986 16.0196ZM233.203 15.4002L225.129 26.9401L228.406 29.2333L236.481 17.6934L233.203 15.4002ZM225.13 26.9381C224.802 27.4057 224.626 27.9629 224.626 28.5338H228.626C228.626 28.7847 228.549 29.0297 228.405 29.2353L225.13 26.9381ZM224.626 28.5338C224.626 29.1048 224.802 29.662 225.13 30.1296L228.405 27.8324C228.549 28.038 228.626 28.283 228.626 28.5338H224.626ZM225.13 30.1294L233.226 41.6728L236.5 39.376L228.405 27.8327L225.13 30.1294ZM233.235 41.6865C233.104 41.503 233.027 41.2869 233.011 41.0621L237.001 40.7848C236.966 40.2726 236.789 39.7802 236.491 39.3624L233.235 41.6865ZM233.011 41.0621C232.995 40.8373 233.042 40.6125 233.147 40.4127L236.692 42.2641C236.93 41.809 237.037 41.297 237.001 40.7848L233.011 41.0621ZM233.147 40.4127C233.251 40.2129 233.409 40.0459 233.602 39.9301L235.655 43.3633C236.096 43.0997 236.455 42.7193 236.692 42.2641L233.147 40.4127ZM233.602 39.9301C233.796 39.8144 234.018 39.7545 234.243 39.7572L234.195 43.7569C234.709 43.7631 235.214 43.6268 235.655 43.3633L233.602 39.9301ZM234.219 39.7571H224.871V43.7571H234.219V39.7571ZM224.869 39.7571C225.066 39.7569 225.259 39.8042 225.434 39.8949L223.587 43.4433C223.984 43.6497 224.425 43.7574 224.872 43.7571L224.869 39.7571ZM225.434 39.8949C225.608 39.9856 225.758 40.1169 225.87 40.2777L222.593 42.5715C222.849 42.9378 223.19 43.2368 223.587 43.4433L225.434 39.8949ZM225.87 40.277L220.135 32.0932L216.86 34.3885L222.594 42.5723L225.87 40.277ZM220.124 32.077C220.255 32.2607 220.333 32.4773 220.349 32.7027L216.359 32.9814C216.395 33.4941 216.572 33.9868 216.871 34.4047L220.124 32.077ZM220.349 32.7027C220.365 32.9281 220.318 33.1533 220.213 33.3535L216.668 31.5007C216.43 31.9561 216.323 32.4687 216.359 32.9814L220.349 32.7027ZM220.213 33.3535C220.109 33.5537 219.95 33.7211 219.756 33.8369L217.707 30.4014C217.266 30.6646 216.906 31.0452 216.668 31.5007L220.213 33.3535ZM219.756 33.8369C219.562 33.9527 219.339 34.0123 219.113 34.0092L219.169 30.0096C218.655 30.0024 218.149 30.1381 217.707 30.4014L219.756 33.8369Z" fill="white" mask="url(#path-40-outside-1)"/>
</svg>
