<svg width="20" height="20" viewBox="0 0 20 20" fill="none" xmlns="http://www.w3.org/2000/svg">
<path d="M10 0C4.47727 0 0 4.47727 0 10C0 15.5227 4.47727 20 10 20C15.5227 20 20 15.5227 20 10C20 4.47727 15.5227 0 10 0ZM10 18.3333C5.39773 18.3333 1.66668 14.6023 1.66668 10C1.66668 5.39773 5.39773 1.66668 10 1.66668C14.6023 1.66668 18.3333 5.39773 18.3333 10C18.3333 14.6023 14.6023 18.3333 10 18.3333Z" fill="#656D77"/>
<path d="M14.1667 5.83301H5.83332C5.37309 5.83301 5 6.20609 5 6.66633C5 7.12656 5.37309 7.49965 5.83332 7.49965H14.1666C14.6269 7.49965 15 7.12656 15 6.66633C15 6.20613 14.6269 5.83301 14.1667 5.83301Z" fill="#656D77"/>
<path d="M14.1667 9.16699H5.83332C5.37309 9.16699 5 9.54008 5 10.0003C5 10.4605 5.37309 10.8336 5.83332 10.8336H14.1666C14.6269 10.8336 15 10.4605 15 10.0003C15 9.54008 14.6269 9.16699 14.1667 9.16699Z" fill="#656D77"/>
<path d="M14.1667 12.5H5.83332C5.37309 12.5 5 12.8731 5 13.3333C5 13.7936 5.37309 14.1666 5.83332 14.1666H14.1666C14.6269 14.1666 15 13.7936 15 13.3333C15 12.8731 14.6269 12.5 14.1667 12.5Z" fill="#656D77"/>
</svg>
