<svg width="25" height="24" viewBox="0 0 25 24" fill="none" xmlns="http://www.w3.org/2000/svg">
<path fill-rule="evenodd" clip-rule="evenodd" d="M8.4502 0.75C8.4502 0.335786 8.78598 0 9.2002 0H15.2002C15.6144 0 15.9502 0.335786 15.9502 0.75C15.9502 1.16421 15.6144 1.5 15.2002 1.5H9.2002C8.78598 1.5 8.4502 1.16421 8.4502 0.75Z" fill="#C70404"/>
<path fill-rule="evenodd" clip-rule="evenodd" d="M6.9502 4.5C6.53598 4.5 6.2002 4.83579 6.2002 5.25V19.5C6.2002 19.9142 6.53598 20.25 6.9502 20.25H17.4502C17.8644 20.25 18.2002 19.9142 18.2002 19.5V5.25C18.2002 4.83579 17.8644 4.5 17.4502 4.5H6.9502ZM4.7002 5.25C4.7002 4.00736 5.70755 3 6.9502 3H17.4502C18.6928 3 19.7002 4.00736 19.7002 5.25V19.5C19.7002 20.7426 18.6928 21.75 17.4502 21.75H6.9502C5.70755 21.75 4.7002 20.7426 4.7002 19.5V5.25Z" fill="#C70404"/>
</svg>
