<svg width="17" height="16" viewBox="0 0 17 16" fill="none" xmlns="http://www.w3.org/2000/svg">
<g clip-path="url(#clip0_2967_9386)">
<path d="M8.49984 4.33333C11.0265 4.33333 13.2798 5.75333 14.3798 8C13.2798 10.2467 11.0332 11.6667 8.49984 11.6667C5.9665 11.6667 3.71984 10.2467 2.61984 8C3.71984 5.75333 5.97317 4.33333 8.49984 4.33333ZM8.49984 3C5.1665 3 2.31984 5.07333 1.1665 8C2.31984 10.9267 5.1665 13 8.49984 13C11.8332 13 14.6798 10.9267 15.8332 8C14.6798 5.07333 11.8332 3 8.49984 3ZM8.49984 6.33333C9.41984 6.33333 10.1665 7.08 10.1665 8C10.1665 8.92 9.41984 9.66667 8.49984 9.66667C7.57984 9.66667 6.83317 8.92 6.83317 8C6.83317 7.08 7.57984 6.33333 8.49984 6.33333ZM8.49984 5C6.8465 5 5.49984 6.34667 5.49984 8C5.49984 9.65333 6.8465 11 8.49984 11C10.1532 11 11.4998 9.65333 11.4998 8C11.4998 6.34667 10.1532 5 8.49984 5Z" fill="#1D9752"/>
</g>
<defs>
<clipPath id="clip0_2967_9386">
<rect width="16" height="16" fill="white" transform="translate(0.5)"/>
</clipPath>
</defs>
</svg>
