<svg width="25" height="24" viewBox="0 0 25 24" fill="none" xmlns="http://www.w3.org/2000/svg">
<path fill-rule="evenodd" clip-rule="evenodd" d="M12.8 3.75C8.2437 3.75 4.55005 7.44365 4.55005 12C4.55005 16.5563 8.2437 20.25 12.8 20.25C17.3564 20.25 21.05 16.5563 21.05 12C21.05 7.44365 17.3564 3.75 12.8 3.75ZM3.05005 12C3.05005 6.61522 7.41527 2.25 12.8 2.25C18.1848 2.25 22.55 6.61522 22.55 12C22.55 17.3848 18.1848 21.75 12.8 21.75C7.41527 21.75 3.05005 17.3848 3.05005 12Z" fill="#C70404"/>
<path fill-rule="evenodd" clip-rule="evenodd" d="M5.904 5.10407C6.19689 4.81118 6.67176 4.81118 6.96466 5.10407L19.6959 17.8353C19.9888 18.1282 19.9888 18.6031 19.6959 18.896C19.403 19.1889 18.9281 19.1889 18.6352 18.896L5.904 6.16473C5.6111 5.87184 5.6111 5.39696 5.904 5.10407Z" fill="#C70404"/>
</svg>
