<svg width="16" height="16" viewBox="0 0 16 16" fill="none" xmlns="http://www.w3.org/2000/svg">
<path fill-rule="evenodd" clip-rule="evenodd" d="M7.64645 0.646447C7.84171 0.451184 8.15829 0.451184 8.35355 0.646447L10.9786 3.27145C11.1738 3.46671 11.1738 3.78329 10.9786 3.97855C10.7833 4.17382 10.4667 4.17382 10.2714 3.97855L8 1.70711L5.72855 3.97855C5.53329 4.17382 5.21671 4.17382 5.02145 3.97855C4.82618 3.78329 4.82618 3.46671 5.02145 3.27145L7.64645 0.646447Z" fill="#1D9752"/>
<path fill-rule="evenodd" clip-rule="evenodd" d="M8 0.5C8.27614 0.5 8.5 0.723858 8.5 1V8C8.5 8.27614 8.27614 8.5 8 8.5C7.72386 8.5 7.5 8.27614 7.5 8V1C7.5 0.723858 7.72386 0.5 8 0.5Z" fill="#1D9752"/>
<path fill-rule="evenodd" clip-rule="evenodd" d="M2.79289 5.79289C2.98043 5.60536 3.23478 5.5 3.5 5.5H5C5.27614 5.5 5.5 5.72386 5.5 6C5.5 6.27614 5.27614 6.5 5 6.5L3.5 6.5L3.5 13H12.5V6.5H11C10.7239 6.5 10.5 6.27614 10.5 6C10.5 5.72386 10.7239 5.5 11 5.5H12.5C12.7652 5.5 13.0196 5.60536 13.2071 5.79289C13.3946 5.98043 13.5 6.23478 13.5 6.5V13C13.5 13.2652 13.3946 13.5196 13.2071 13.7071C13.0196 13.8946 12.7652 14 12.5 14H3.5C3.23478 14 2.98043 13.8946 2.79289 13.7071C2.60536 13.5196 2.5 13.2652 2.5 13V6.5C2.5 6.23478 2.60536 5.98043 2.79289 5.79289Z" fill="#1D9752"/>
</svg>
