<svg width="25" height="24" viewBox="0 0 25 24" fill="none" xmlns="http://www.w3.org/2000/svg">
<path fill-rule="evenodd" clip-rule="evenodd" d="M12.3999 11C11.8476 11 11.3999 11.4477 11.3999 12C11.3999 12.5523 11.8476 13 12.3999 13C12.9522 13 13.3999 12.5523 13.3999 12C13.3999 11.4477 12.9522 11 12.3999 11ZM9.3999 12C9.3999 10.3431 10.743 9 12.3999 9C14.0568 9 15.3999 10.3431 15.3999 12C15.3999 13.6569 14.0568 15 12.3999 15C10.743 15 9.3999 13.6569 9.3999 12Z" fill="#C70404"/>
<path fill-rule="evenodd" clip-rule="evenodd" d="M6.03696 4.22278C6.42755 4.61324 6.42764 5.24641 6.03718 5.63699C4.34994 7.32474 3.4021 9.61352 3.4021 12C3.4021 14.3865 4.34994 16.6752 6.03718 18.363C6.42764 18.7536 6.42755 19.3867 6.03696 19.7772C5.64638 20.1677 5.01322 20.1676 4.62275 19.777C2.56057 17.7142 1.4021 14.9168 1.4021 12C1.4021 9.08319 2.56057 6.2858 4.62275 4.22299C5.01322 3.83241 5.64638 3.83231 6.03696 4.22278ZM18.763 4.22278C19.1535 3.83231 19.7867 3.83241 20.1772 4.22299C22.2394 6.2858 23.3978 9.08319 23.3978 12C23.3978 14.9168 22.2394 17.7142 20.1772 19.777C19.7867 20.1676 19.1535 20.1677 18.763 19.7772C18.3724 19.3867 18.3723 18.7536 18.7627 18.363C20.45 16.6752 21.3978 14.3865 21.3978 12C21.3978 9.61352 20.45 7.32474 18.7627 5.63699C18.3723 5.24641 18.3724 4.61324 18.763 4.22278ZM8.86746 7.04328C9.25777 7.43402 9.25742 8.06719 8.86668 8.45749C8.4018 8.92186 8.033 9.4733 7.78138 10.0803C7.52976 10.6873 7.40024 11.3379 7.40024 11.995C7.40024 12.6521 7.52976 13.3027 7.78138 13.9097C8.033 14.5167 8.4018 15.0681 8.86668 15.5325C9.25742 15.9228 9.25777 16.556 8.86746 16.9467C8.47716 17.3374 7.84399 17.3378 7.45325 16.9475C6.80242 16.2974 6.2861 15.5254 5.93383 14.6756C5.58156 13.8258 5.40024 12.9149 5.40024 11.995C5.40024 11.0751 5.58156 10.1642 5.93383 9.31441C6.2861 8.46462 6.80242 7.6926 7.45325 7.04249C7.84399 6.65219 8.47716 6.65254 8.86746 7.04328ZM15.9325 7.05328C16.3228 6.66254 16.9559 6.66219 17.3467 7.05249C17.9975 7.7026 18.5138 8.47462 18.8661 9.32441C19.2184 10.1742 19.3997 11.0851 19.3997 12.005C19.3997 12.9249 19.2184 13.8358 18.8661 14.6856C18.5138 15.5354 17.9975 16.3074 17.3467 16.9575C16.9559 17.3478 16.3228 17.3474 15.9325 16.9567C15.5422 16.566 15.5425 15.9328 15.9333 15.5425C16.3981 15.0781 16.7669 14.5267 17.0185 13.9197C17.2702 13.3127 17.3997 12.6621 17.3997 12.005C17.3997 11.3479 17.2702 10.6973 17.0185 10.0903C16.7669 9.4833 16.3981 8.93186 15.9333 8.46749C15.5425 8.07719 15.5422 7.44402 15.9325 7.05328Z" fill="#C70404"/>
</svg>
