<svg width="25" height="24" viewBox="0 0 25 24" fill="none" xmlns="http://www.w3.org/2000/svg">
<path fill-rule="evenodd" clip-rule="evenodd" d="M3.6001 11C3.6001 10.4477 4.04781 10 4.6001 10C7.25226 10 9.7958 11.0536 11.6712 12.9289C13.5465 14.8043 14.6001 17.3478 14.6001 20C14.6001 20.5523 14.1524 21 13.6001 21C13.0478 21 12.6001 20.5523 12.6001 20C12.6001 17.8783 11.7572 15.8434 10.257 14.3431C8.75666 12.8429 6.72183 12 4.6001 12C4.04781 12 3.6001 11.5523 3.6001 11Z" fill="#C70404"/>
<path fill-rule="evenodd" clip-rule="evenodd" d="M3.6001 4C3.6001 3.44772 4.04781 3 4.6001 3C9.10878 3 13.4328 4.79107 16.6209 7.97919C19.809 11.1673 21.6001 15.4913 21.6001 20C21.6001 20.5523 21.1524 21 20.6001 21C20.0478 21 19.6001 20.5523 19.6001 20C19.6001 16.0218 18.0197 12.2064 15.2067 9.3934C12.3937 6.58035 8.57835 5 4.6001 5C4.04781 5 3.6001 4.55228 3.6001 4Z" fill="#C70404"/>
<path fill-rule="evenodd" clip-rule="evenodd" d="M3.6001 19C3.6001 17.8954 4.49553 17 5.6001 17C6.70467 17 7.6001 17.8954 7.6001 19C7.6001 20.1046 6.70467 21 5.6001 21C4.49553 21 3.6001 20.1046 3.6001 19Z" fill="#C70404"/>
</svg>
