<svg width="20" height="20" viewBox="0 0 20 20" fill="none" xmlns="http://www.w3.org/2000/svg">
<path d="M10.8334 2.5C6.69171 2.5 3.33337 5.85833 3.33337 10H0.833374L4.07504 13.2417L4.13337 13.3583L7.50004 10H5.00004C5.00004 6.775 7.60837 4.16667 10.8334 4.16667C14.0584 4.16667 16.6667 6.775 16.6667 10C16.6667 13.225 14.0584 15.8333 10.8334 15.8333C9.22504 15.8333 7.76671 15.175 6.71671 14.1167L5.53337 15.3C6.89171 16.6583 8.75837 17.5 10.8334 17.5C14.975 17.5 18.3334 14.1417 18.3334 10C18.3334 5.85833 14.975 2.5 10.8334 2.5ZM10 6.66667V10.8333L13.5667 12.95L14.1667 11.9417L11.25 10.2083V6.66667H10Z" fill="white"/>
</svg>
