<svg width="20" height="20" viewBox="0 0 20 20" fill="none" xmlns="http://www.w3.org/2000/svg">
<path fill-rule="evenodd" clip-rule="evenodd" d="M9.375 10C9.375 9.65482 9.65482 9.375 10 9.375H16.875C17.2202 9.375 17.5 9.65482 17.5 10C17.5 10.3452 17.2202 10.625 16.875 10.625H10C9.65482 10.625 9.375 10.3452 9.375 10Z" fill="white"/>
<path fill-rule="evenodd" clip-rule="evenodd" d="M9.375 5C9.375 4.65482 9.65482 4.375 10 4.375H16.875C17.2202 4.375 17.5 4.65482 17.5 5C17.5 5.34518 17.2202 5.625 16.875 5.625H10C9.65482 5.625 9.375 5.34518 9.375 5Z" fill="white"/>
<path fill-rule="evenodd" clip-rule="evenodd" d="M9.375 15C9.375 14.6548 9.65482 14.375 10 14.375H16.875C17.2202 14.375 17.5 14.6548 17.5 15C17.5 15.3452 17.2202 15.625 16.875 15.625H10C9.65482 15.625 9.375 15.3452 9.375 15Z" fill="white"/>
<path fill-rule="evenodd" clip-rule="evenodd" d="M7.64696 3.3263C7.88096 3.58005 7.86496 3.97545 7.61121 4.20946L4.90027 6.70946C4.66067 6.93042 4.29149 6.93015 4.0522 6.70885L2.70064 5.45885C2.44722 5.22448 2.43179 4.82905 2.66616 4.57564C2.90053 4.32222 3.29596 4.30679 3.54937 4.54116L4.47718 5.39925L6.7638 3.29055C7.01755 3.05654 7.41295 3.07255 7.64696 3.3263Z" fill="white"/>
<path fill-rule="evenodd" clip-rule="evenodd" d="M7.64696 8.3263C7.88096 8.58005 7.86496 8.97545 7.61121 9.20946L4.90027 11.7095C4.66067 11.9304 4.29149 11.9302 4.0522 11.7088L2.70064 10.4588C2.44722 10.2245 2.43179 9.82905 2.66616 9.57564C2.90053 9.32222 3.29596 9.30679 3.54937 9.54116L4.47718 10.3992L6.7638 8.29055C7.01755 8.05654 7.41295 8.07255 7.64696 8.3263Z" fill="white"/>
<path fill-rule="evenodd" clip-rule="evenodd" d="M7.64696 13.3263C7.88096 13.58 7.86496 13.9755 7.61121 14.2095L4.90027 16.7095C4.66067 16.9304 4.29149 16.9302 4.0522 16.7088L2.70064 15.4588C2.44722 15.2245 2.43179 14.8291 2.66616 14.5756C2.90053 14.3222 3.29596 14.3068 3.54937 14.5412L4.47718 15.3992L6.7638 13.2905C7.01755 13.0565 7.41295 13.0725 7.64696 13.3263Z" fill="white"/>
</svg>
